<svg xmlns="http://www.w3.org/2000/svg" width="52.598" height="36.169" viewBox="0 0 52.598 36.169">
  <path id="Tracé_5036" data-name="Tracé 5036" d="M52.029,1451.531l-6.6-10.266a3.694,3.694,0,0,0-6.185-.048l-.9,1.356a1.026,1.026,0,0,1-.857.459h-12.9a3.712,3.712,0,0,0-2.272.781l-1.386,1.081-5.845-1.583a1.028,1.028,0,0,1-.588-.423l-1.11-1.67a3.682,3.682,0,0,0-3.076-1.649h-.029a3.684,3.684,0,0,0-3.08,1.7L.6,1451.531A3.695,3.695,0,0,0,3,1457.153l1.876.37a1.032,1.032,0,0,1,.673.464l1.295,2.071a3.7,3.7,0,0,0-.663,4.769l.05.078a3.688,3.688,0,0,0,2.741,1.676,3.675,3.675,0,0,0,.579,1.754l.051.079a3.671,3.671,0,0,0,2.323,1.613,3.744,3.744,0,0,0,.757.085,3.673,3.673,0,0,0,.562,1.577l.05.078a3.67,3.67,0,0,0,2.323,1.613,3.726,3.726,0,0,0,.793.086,3.656,3.656,0,0,0,.579-.048,4.528,4.528,0,0,0,4.035,2.317,6.356,6.356,0,0,0,1.863-.3l.016-.005a3.665,3.665,0,0,0,1.993-1.479l4.854,1.485a6.349,6.349,0,0,0,1.861.3,4.529,4.529,0,0,0,4.035-2.318,3.656,3.656,0,0,0,.579.048,3.726,3.726,0,0,0,.793-.086,3.67,3.67,0,0,0,2.323-1.612l.051-.079a3.672,3.672,0,0,0,.562-1.577,3.743,3.743,0,0,0,.757-.085,3.671,3.671,0,0,0,2.323-1.613l.051-.079a3.674,3.674,0,0,0,.579-1.753,3.688,3.688,0,0,0,2.741-1.676l.051-.079a3.746,3.746,0,0,1-.071-5.716l.7-1.123a1.032,1.032,0,0,1,.673-.464l1.877-.37a3.695,3.695,0,0,0,2.393-5.623M8.472,1463.464l-.05-.078a1.03,1.03,0,0,1,.309-1.422l2.132-1.37a1.026,1.026,0,0,1,1.314.17l.065.07a1.016,1.016,0,0,1,.262.827,1.031,1.031,0,0,1-.236.536l-1.607,1.032a3.755,3.755,0,0,0-.451.341l-.315.2a1.03,1.03,0,0,1-1.422-.31m3.372,3.509-.051-.079a1.029,1.029,0,0,1,.084-1.226l1.6-1.031a3.725,3.725,0,0,0,.445-.337l2.933-1.885a1.027,1.027,0,0,1,1.263.118l.07.067a1.029,1.029,0,0,1-.151,1.613l-.078.05h0l-3.609,2.32h0l-1.086.7a1.029,1.029,0,0,1-1.422-.309m4.339,3.8a1.023,1.023,0,0,1-.647-.449l-.05-.079a1.03,1.03,0,0,1,.309-1.422l.987-.634.35-.225.083-.054.073-.047.09-.058.11-.071.108-.069.161-.1.022-.014.5-.321.211-.136.01-.007.261-.168.03-.02.612-.394a1.034,1.034,0,0,1,1.168.039l.081.06a1.029,1.029,0,0,1-.057,1.692l-3.639,2.339a1.022,1.022,0,0,1-.775.14m6.638,1.37a1.013,1.013,0,0,1-.7.741l-.016.005a2.628,2.628,0,0,1-2.06-.05,1.926,1.926,0,0,1-.651-.6l1.282-.824.59-.379a1.024,1.024,0,0,1,1.276.13,1.012,1.012,0,0,1,.28.979m21.391-8.76-.051.079a1.03,1.03,0,0,1-1.422.309l-.315-.2a3.742,3.742,0,0,0-.451-.341l-8.439-5.424a1.333,1.333,0,1,0-1.441,2.243l2.087,1.342a1.327,1.327,0,0,0,.255.215l6.322,4.064a1.03,1.03,0,0,1,.084,1.226l-.051.079a1.029,1.029,0,0,1-1.422.309l-1.085-.7,0,0-3.563-2.29h0l-2.746-1.765a1.333,1.333,0,1,0-1.441,2.243l2.747,1.765h0l1.4.9,2.165,1.392a1.03,1.03,0,0,1,.309,1.421l-.051.079a1.028,1.028,0,0,1-1.422.309l-.036-.023-.013-.008-5.046-3.244a1.333,1.333,0,0,0-1.441,2.243l4.1,2.636a1.923,1.923,0,0,1-.65.6,2.627,2.627,0,0,1-2.06.05l-5.05-1.545a3.671,3.671,0,0,0-1.073-2.085,3.728,3.728,0,0,0-.87-.635,3.692,3.692,0,0,0-1.295-4.163l-.081-.06a3.656,3.656,0,0,0-1.018-.53c.009-.061.017-.122.022-.184a3.673,3.673,0,0,0-1.14-3.028l-.07-.067a3.688,3.688,0,0,0-4.536-.424l-.406.261a3.692,3.692,0,0,0-.8-1.4l-.065-.071a3.687,3.687,0,0,0-4.721-.612l-.359.23-1.255-2.007a3.708,3.708,0,0,0-2.418-1.666l-1.876-.37a1.029,1.029,0,0,1-.666-1.565l6.6-10.267a1.029,1.029,0,0,1,1.722-.013l1.11,1.67a3.693,3.693,0,0,0,2.111,1.521l3.913,1.06-2.541,1.982a3.7,3.7,0,0,0-.641,5.186l.058.074a3.7,3.7,0,0,0,5.186.642l3.051-2.38a1.034,1.034,0,0,1,.627-.217l4.373-.023h.005a1.027,1.027,0,0,1,.556.163l1.7,1.095,10.574,6.8h0l2.648,1.7a1.03,1.03,0,0,1,.309,1.421m5.655-9.453a1.02,1.02,0,0,1-.748.606l-1.877.37a3.708,3.708,0,0,0-2.418,1.666l-.7,1.123a1.028,1.028,0,0,1-1.427.321l-12.048-7.744h0l-.231-.148a3.685,3.685,0,0,0-2-.587H28.4l-4.373.023a3.715,3.715,0,0,0-2.253.781l-3.051,2.38a1.03,1.03,0,0,1-1.444-.179l-.057-.074a1.03,1.03,0,0,1,.179-1.444l6.557-5.113a1.034,1.034,0,0,1,.633-.218h12.9a3.687,3.687,0,0,0,3.077-1.649l.9-1.356a1.029,1.029,0,0,1,1.722.013l6.6,10.267a1.019,1.019,0,0,1,.081.959" transform="translate(-0.018 -1439.567)" fill="#232853"/>
</svg>
