<svg id="Groupe_2958" data-name="Groupe 2958" xmlns="http://www.w3.org/2000/svg" xmlns:xlink="http://www.w3.org/1999/xlink" width="52.712" height="55" viewBox="0 0 52.712 55">
  <defs>
    <clipPath id="clip-path">
      <rect id="Rectangle_577" data-name="Rectangle 577" width="52.712" height="55" fill="#232853"/>
    </clipPath>
  </defs>
  <g id="Groupe_2523" data-name="Groupe 2523" transform="translate(0)" clip-path="url(#clip-path)">
    <path id="Tracé_4430" data-name="Tracé 4430" d="M32.719,21.761c-4.267,0-12.632,2.088-12.632,6.914V38.968a6.045,6.045,0,0,0,4.574,5.624V60.7a1.2,1.2,0,0,0,2.391,0V30.962a1.2,1.2,0,0,0-2.391,0V42.076a3.749,3.749,0,0,1-2.183-3.108V28.675c0-2.581,6.213-4.523,10.241-4.523S42.96,26.095,42.96,28.675V38.968a3.749,3.749,0,0,1-2.183,3.108V30.962a1.2,1.2,0,0,0-2.391,0V60.7a1.2,1.2,0,0,0,2.391,0V44.592a6.045,6.045,0,0,0,4.574-5.624V28.675c0-4.826-8.365-6.914-12.632-6.914" transform="translate(-6.363 -6.893)" fill="#232853"/>
    <path id="Tracé_4431" data-name="Tracé 4431" d="M59.252,26.783c-.391,0-.812.02-1.254.061a1.2,1.2,0,0,0,.221,2.382c.368-.035.716-.052,1.033-.052,3.579,0,9.1,1.942,9.1,4.523V43.99c0,1.131-1.062,1.8-2.183,2.082V35.984a1.2,1.2,0,0,0-2.391,0v26.3a1.2,1.2,0,0,0,2.391,0V48.515c2.387-.392,4.574-1.948,4.574-4.525V33.7c0-4.826-7.607-6.914-11.488-6.914" transform="translate(-18.029 -8.484)" fill="#232853"/>
    <path id="Tracé_4432" data-name="Tracé 4432" d="M35.9,13.828a5.581,5.581,0,0,0,5.771-5.77V5.771A5.581,5.581,0,0,0,35.9,0a5.581,5.581,0,0,0-5.77,5.771V8.058a5.58,5.58,0,0,0,5.77,5.77M32.522,5.771A3.2,3.2,0,0,1,35.9,2.391,3.2,3.2,0,0,1,39.28,5.771V8.058A3.2,3.2,0,0,1,35.9,11.437a3.2,3.2,0,0,1-3.379-3.379Z" transform="translate(-9.545)" fill="#232853"/>
    <path id="Tracé_4433" data-name="Tracé 4433" d="M38.022,50.217a1.2,1.2,0,0,0-1.2,1.2v18.3a1.2,1.2,0,0,0,2.391,0v-18.3a1.2,1.2,0,0,0-1.2-1.2" transform="translate(-11.665 -15.907)" fill="#232853"/>
    <path id="Tracé_4434" data-name="Tracé 4434" d="M57.662,18.849a5.581,5.581,0,0,0,5.771-5.77V10.792a5.77,5.77,0,0,0-11.54,0v2.287a5.581,5.581,0,0,0,5.77,5.77m-3.379-8.057a3.379,3.379,0,0,1,6.758,0v2.287a3.379,3.379,0,0,1-6.758,0Z" transform="translate(-16.438 -1.591)" fill="#232853"/>
    <path id="Tracé_4435" data-name="Tracé 4435" d="M12.743,26.844c-.441-.041-.864-.061-1.254-.061C7.607,26.783,0,28.87,0,33.7V43.989c0,2.577,2.187,4.134,4.574,4.525V62.288a1.2,1.2,0,0,0,2.391,0v-26.3a1.2,1.2,0,0,0-2.391,0V46.073c-1.12-.279-2.183-.952-2.183-2.083V33.7c0-2.581,5.518-4.522,9.1-4.522.317,0,.665.017,1.033.051a1.2,1.2,0,0,0,.221-2.381" transform="translate(0 -8.484)" fill="#232853"/>
    <path id="Tracé_4436" data-name="Tracé 4436" d="M14.14,18.849a5.581,5.581,0,0,0,5.771-5.77V10.792a5.581,5.581,0,0,0-5.771-5.77,5.581,5.581,0,0,0-5.77,5.77v2.287a5.581,5.581,0,0,0,5.77,5.77m-3.379-8.057A3.2,3.2,0,0,1,14.14,7.413a3.2,3.2,0,0,1,3.379,3.379v2.287a3.2,3.2,0,0,1-3.379,3.379,3.2,3.2,0,0,1-3.379-3.379Z" transform="translate(-2.651 -1.591)" fill="#232853"/>
  </g>
</svg>
