<?xml version="1.0" encoding="utf-8"?>
<!-- Generator: Adobe Illustrator 25.1.0, SVG Export Plug-In . SVG Version: 6.00 Build 0)  -->
<svg version="1.1" id="Calque_1" xmlns="http://www.w3.org/2000/svg" xmlns:xlink="http://www.w3.org/1999/xlink" x="0px" y="0px"
	 viewBox="0 0 496.8 302.4" style="enable-background:new 0 0 496.8 302.4;" xml:space="preserve">
<style type="text/css">
	.st0{fill:none;}
	.st1{fill:#E02B88;}
	.st2{fill:#BACE00;}
	.st3{fill:#FBBA00;}
	.st4{fill:#232853;}
	.st5{fill:#FFFFFF;}
</style>
<g>
	<g>
		<path class="st0" d="M431.6,151c-1.1,4.2-1.7,8.2-2,11.8c0,0.4-0.1,0.7-0.1,1l0.1-0.1c1.5-1.7,3.1-3.9,4.6-6.2
			c0.7-1.1,2-3.3,3-4.9l0.6-1.1c-0.6,0.1-1.2,0.1-1.8,0.1C434.5,151.6,433,151.4,431.6,151z"/>
	</g>
	<g>
		<path class="st0" d="M404.3,123.7c-0.5,0.4-1.7,1.8-3.4,5.5c-1.6,3.4-3.1,7.3-4.4,11.5c-0.5,1.5-0.9,3-1.3,4.6
			c1.7-3.5,3.5-7.1,5.4-11.1c1.1-3,2.2-5.9,3.3-8.6c0.4-1,0.9-2,1.3-2.9c-0.2,0.2-0.4,0.5-0.7,0.7
			C404.5,123.5,404.4,123.6,404.3,123.7z"/>
	</g>
	<g>
		<path class="st1" d="M265.7,121.7c0.7-1.6,1.3-3.2,2-4.6c1.9-4.1,4.2-7.5,6.5-10.5l-2.3-0.2C269.5,111.1,267.5,116.3,265.7,121.7z
			"/>
	</g>
	<g>
		<g>
			<path class="st1" d="M355.5,37.2c-61.2-56.5-160.7-18.1-172.9,60.7c2.4-0.5,4.8-0.9,7.3-1c0.6,0,1.1,0,1.7,0
				c9.8,0,19.2,3.7,26.5,10.4c4.2,3.9,7.5,8.6,9.6,13.7c0.8-2.4,1.7-4.9,2.5-7.4c0.6-1.8,1.3-3.5,1.9-5.3c-0.2,0-0.4,0-0.6,0
				c-4.9,0-9.1-1.8-12.3-5.3c-2.4-2.6-4-5.6-4.9-8.8c-0.9-3.2-1-6.4-0.3-9.4c1.3-5.8,5.8-9.5,11.5-9.5c2.2,0,4.4,0.8,6.1,2.2
				c0.4,0.1,1.2,0.4,3,0.6c3,0.4,6.4,0.6,10.3,0.6c1.5-3,2.9-5.9,4.4-8.6c2.3-4.4,4.6-8.4,6.9-11.7c2.4-3.6,4.7-6.5,6.9-8.7
				c3.6-3.6,7.3-5.4,11.1-5.4c3.8,0,7,0.5,9.8,1.4c3.1,1,5.5,3,7.5,4.9c2.6,2.4,3.2,4.9,3.6,8c0.5,3.6-0.7,6.5-3,9.2
				c-2,2.7-3.6,6.3-5.6,9.4c4.3,0.2,8.8,2.2,11.9,5c2.7,2.4,4.3,4.9,5.4,8.1s1.3,6.6,0.7,9.6c0,0.2-0.1,0.4-0.1,0.5
				c2-1.1,4.7-2.1,7.3-2.1c2.6,0,5.4,0.4,8.4,1.1s6,1.9,8.7,3.4c2.4,1.3,4.4,3.2,6.3,5c0.5-0.7,1.2-2.2,1.8-2.8
				c4.6-5.3,9.4-6.2,12.7-6.2c3.8,0,7,0.5,9.8,1.4c3.1,1,5.3,2.5,7.3,4.4c1.4,1.3,2.7,3.1,3.5,4.6c0.1-0.2,0.6-0.7,0.8-0.9
				c1.8-2.7,3.4-4.8,5.2-6.2c3.5-2.7,7.2-3.1,9.8-3.1c0.5,0,1,0,1.5,0C384.7,76.7,374.3,54.5,355.5,37.2z"/>
		</g>
		<g>
			<path class="st1" d="M335.4,195.3c-0.5-0.3-1.1-0.6-1.6-0.9c-3.3-2.1-6.1-4.8-8.4-8.1c-2.1-3-3.8-6.4-4.9-10
				c-1.2-3.8-1.3-8.1-1.3-11.5c0-1.7,0-3.5,0.2-5.4c-1.8,0.8-3.8,1.2-6,1.2c-3.9,0-7.5-1.4-9.8-2.6c-0.1,0-0.2-0.1-0.3-0.1
				c-0.2-0.1-0.5-0.3-0.7-0.4c-3.7,9.8-7.6,20.9-11.5,33.1c-1.3,3.8-4.8,6.4-8.9,6.4h-0.8c-4.5,0-8.7-1.2-12.5-3.6
				c-2.8-1.8-5.3-4-7.4-6.7c-1.7,2.1-3.3,3.8-5,5.3c-3.5,3-7.2,4.6-11.2,4.6c-4.5,0-8.7-1.2-12.5-3.6c-3.3-2.1-6.1-4.8-8.4-8.1
				c-2.1-3-3.8-6.4-4.9-10c-0.9-3-1.4-5.9-1.6-8.8c-3.3,3.1-7.1,5.6-11.3,7.5c1.1,3.6,2.8,6.7,5,8.8c2.8,2.7,3.7,6.9,2.1,10.5
				c-1.2,2.7-3.6,4.6-6.3,5.3c-0.7,0.2-1.5,0.3-2.2,0.3c-0.2,0-0.4,0-0.6,0c-1.1-0.1-2.2-0.2-3.4-0.3
				c25.2,50.6,72.6,89.1,132.1,92.8c-17.5-16.6-29.2-43.9-30.7-75.1c16.4-2.8,30.7-9.1,42.8-18C341.8,197.8,338.4,196.9,335.4,195.3
				z"/>
		</g>
	</g>
	<g>
		<path class="st2" d="M448.9,150.1c-1,1.7-3.4,6-4.4,7.7c-1.8,2.8-3.6,5.3-5.4,7.4c-1.8,2.1-3.6,3.9-5.3,5.2c-1.7,1.4-2.6,1-4.2,1
			c-2.6,0-4.3-1.4-5.2-4.3c-0.9-2.9-1.2-6.5-0.8-10.8c0.3-4.3,1.2-9,2.5-14.1s2.9-9.7,4.7-14.1c1.8-4.3,3.8-6.5,5.8-9.4
			s3.2-3.2,4.9-3.2c1.5,0,2.1-0.3,1.8,1.9c-0.3,2.2-1,4.6-2.3,7.2c-1.2,2.6-2.6,5-4.2,7.2s-2.9,3.3-4,3.3c1.6,1.6,3.5,2.5,5.5,2.5
			c1.8,0,4.2,0,5.9-1.1c1.7-1.2,3.2-2.7,4.5-4.5s3.4-4.7,4.2-6.9c0.8-2.2,0.3-4.6,0.3-6.8c0-2.1-0.6-4-1.8-5.8
			c-1.2-1.8-3.3-3.5-5.3-4.8s-4.2-2.4-6.8-3.2c-2.5-0.8-5.2-1.2-7.9-1.2c-2.5,0-5.4,2.5-8.3,6.6c-2.9,4-5.7,9-8.2,14.9
			c-1.2,2.7-2.3,5.6-3.3,8.5c-3.6,7.5-6.9,14.3-10.1,20.2c-1.4,2.7-2.8,5.4-4.3,8s-2.9,4.9-4.1,7s-2.4,3.7-3.4,4.9s-1.3,1.3-2,1.3
			c-1.5,0-2.5-1.3-2.9-3.9c-0.3-2.2-0.4-4.8-0.2-8.1c0-0.6,0.1-1.3,0.1-2c0.3-4.1,1-8.6,2.1-13.5s2.4-9,3.8-13.7
			c1.3-4.3,2.8-8.3,4.5-11.9c0.1-0.3,0.2-0.6,0.4-0.8c1.8-3.8,3.6-6.6,5.5-8.4c0.7-0.7,1-1.5,0.8-2.5c-0.1-1-0.7-1.9-1.7-2.9
			s-3.4-2.9-5.2-3.6c-0.3-0.1-0.6-0.2-1-0.3c-1.7-0.4-3.4,0.3-5.7,0.3c-0.1,0-0.2,0-0.4,0c-2.5,0.2-4.8,1.8-6.9,5.1
			c-1.4,2-2.6,4.4-3.9,7.1c-0.8,1.8-1.6,3.7-2.4,5.8c-0.4,1.2-1.1,3.4-2.1,6.4c-1,3-2.1,6.4-3.5,10.2s-2.9,7.7-4.5,11.7
			s-3.3,7.7-4.9,11.1c-1.6,3.4-3.2,6.1-4.7,8.2c-1.5,2.1-2.9,3.2-4.1,3.2c-1.5,0-1.6-2.1-2-4.6s-0.4-4.6-0.1-8.5s1-8.2,2.1-12.9
			c1-4.7,2.1-8.6,3.5-13s2.9-8.7,4.7-12.4s4-7.6,5.9-9.4c0.7-0.7,1-1.5,0.8-2.5c-0.1-1-0.7-1.9-1.7-2.9s-2.5-1.7-4.3-2.4
			c-1.8-0.6-5-0.3-7.8-0.3c-1.9,0-3.8,1.1-5.6,3.2c-1.8,2.1-3.6,4.9-5.1,8.2c-0.2,0.5-0.4,1-0.6,1.4c-1.3,3-2.6,6.3-3.7,10
			c-0.6,1.9-1,3.1-1.6,5.7c-0.3,1.1-1.2,4.7-2,9.1c-1.2,5.9-2.3,13.4-2.2,19.1c0,2.5,0.1,6.1,0.9,8.8s2,5.1,3.6,7.4
			c1.6,2.3,3.5,4.1,5.7,5.5c2.3,1.4,4.7,2.2,7.5,2.2c0.1,0,0.3,0,0.4,0c1.8-0.1,3.5-0.6,5.2-1.6c1.8-1.1,4.2-2.3,5.7-4.2
			c1.6-1.9,3-4.1,4.4-6.7c1.4-2.5,2-4.5,3.2-7.2c0.3,2.3,0.9,3.6,1.7,6.1c0.2,0.6,0.5,1.2,0.7,1.8c0.8,1.8,1.8,3.4,3,4.9
			c0.7,0.8,1.4,1.6,2.2,2.3c1,1,2.2,1.9,3.4,2.6c2.1,1.3,4.5,1.9,7.1,1.9c1.6,0,3.9,0.1,5.7-1.5c1.8-1.5,4-3.7,5.8-6.1
			c1.8-2.5,3.2-5,4.9-8.1c1.5-2.8,2.4-5.4,3.8-8.4c0,0.7,0,0.3,0,0.9c0,1.9,0.5,4.2,1.5,6.9s2.7,5.2,5.1,7.7s5.4,4.5,9.1,6.3
			c3.7,1.7,9.2,2.9,14.5,2.9c1,0,2.1-0.8,3.5-2.4c1.4-1.6,3.7-3.9,5.3-6.5s2.8-5.1,4.5-8.4s3.5-6.9,5.1-10.4L448.9,150.1z
			 M343.4,122.2c-1.5-6.6,3.9-13.3,9.3-16.3c0.4-0.2,1,0.4,0.6,0.7c-2.3,2-3.9,4.4-5.2,7.2c-1.3,2.8-1.4,5.5-2.2,8.4
			C345.5,123.4,343.7,123.5,343.4,122.2z M388,106.8c0.4-0.3,0.9-0.6,1.3-0.8c0.4-0.2,1,0.4,0.6,0.7c-0.6,0.6-1.2,1.2-1.8,1.8
			c-1.4,1.6-2.5,3.4-3.4,5.3c-1.3,2.8-1.4,5.5-2.2,8.4c-0.3,1.2-2.2,1.3-2.5,0C378.6,116.2,383.1,110.1,388,106.8z M419.6,175.7
			c-7.5-4.4-10.4-13.3-7.3-21.4c0.2-0.6,1.1-0.4,1,0.3c-1.4,7.2,1.8,14.6,7.7,18.8C422.4,174.4,421.2,176.6,419.6,175.7z"/>
	</g>
	<g>
		<path class="st2" d="M333,111.9c-0.2-0.2-0.4-0.5-0.6-0.7c-1.4-1.4-3-2.7-5-3.8c-2-1.1-4.1-1.9-6.4-2.5c-2.3-0.5-5.2-1.1-7.2-1.1
			c-1.9,0-4.2,1.9-6.9,5.6c-2.7,3.8-5.4,8.5-8.3,14c-2.8,5.5-5.5,11.6-8.1,17.8c-2.6,6.3-3.7,10.5-5.6,15.4c1-4.4,1.8-7.2,3.3-11.8
			c1.4-4.6,3-9.2,4.6-13.3c1.6-4.2,3.3-7.9,5-11.3s3.4-5.7,5-7.4c0.7-0.7,1-1.5,0.8-2.5c-0.1-1-0.7-1.9-1.7-2.9s-1.7-2.4-3.5-3.1
			c-1.8-0.6-4.8-1.1-7.6-1.1c-1.9,0-4.3,1.6-6.4,4.3c-2.1,2.6-4.3,5.1-6,9c-1.8,3.9-3.2,7.9-4.7,12.6c-1.3,3.9-3.6,9.8-4.6,13.5
			c-2,4-3.3,7.2-5.1,10.7c-1.4,2.7-2.6,5.4-4.1,8s-2.6,4.5-3.8,6.7c-1.2,2.1-1.8,3.3-2.8,4.5s-2,1-2.7,1c-2.3,0-2.1-1.5-2.2-6.4
			c-0.1-4.9,0.6-10.9,2.4-18.8c1.8-7.8,2.8-16.3,6.2-25.8c3.3-9.7,7.1-19.1,11.5-28.5c1.8-0.1,3.5-0.2,5.1-0.2s3.2,0,4.7,0
			c4.6,0,8.7,0.2,12.1,0.5c3.3,0.3,5.4,0.9,6.3,1.7c1.1,0,1.8-0.7,2.1-2.1s0.1-2.9-0.4-4.5s-1.6-3.1-3.1-4.5s-1.8-3.4-4.1-3.4
			l0.6,0.2c-1.5,0-3.7,0.1-6.6,0.2s-6.1,0.3-9.7,0.6c2.3-4.8,3.1-8.1,5.7-12.2c2.5-4.2,5.2-8,7.9-11.7c0.7-0.7,1-1.5,0.8-2.5
			c-0.1-1-0.7-1.9-1.7-2.9s-2.5-1.7-4.3-2.4c-1.8-0.6-4.1-0.9-6.9-0.9c-1.2,0-2.7,0.9-4.5,2.7s-3.7,4.2-5.7,7.3
			c-2.1,3.1-4.2,6.7-6.4,11c-2.2,4.2-5,7.9-7.4,12.8l-3.2,0.2c-5.1,0-9.6-0.3-13.5-0.8s-6.5-1.4-7.9-2.8c-1.2,0-2.5,1.7-2.9,3.2
			c-0.3,1.5,0.1,3,0.6,4.8s1.4,3.4,2.8,4.9c1.4,1.5,3.1,2.3,5.3,2.3c1.2,0,3.1-0.1,5.7-0.2c2.6-0.1,4.8,0.3,8.3,0
			c-2.6,6-5,11.8-7.3,18.2s-4.6,13.1-6.4,19c-1.8,5.9-3.1,10.5-4.1,15.5c-1,5.1-1.3,10-1.3,13.5c0,2.5,1.3,4.9,2.1,7.6
			s2,5.1,3.6,7.4c1.6,2.3,3.5,4.1,5.7,5.5c2.3,1.4,4.7,2.2,7.5,2.2c1.6,0,3.3-0.7,5-2.3c1.7-1.5,3.5-3.5,5.3-5.9
			c1.8-2.5,3.6-5.2,5.3-8.4c0.8-1.5,1.6-3,2.4-4.5c0.1,2,0.5,4.1,1.2,6.3c0.8,2.7,2,5.1,3.6,7.4c1.6,2.3,3.5,4.1,5.7,5.5
			c2.3,1.4,4.7,2.2,7.5,2.2h0.8c4.1-12.7,8.1-24,12-34.2c1.6-4.4,3.3-8.7,5.1-12.9c1.8-4.2,3.5-8,5.2-11.6c1.7-3.5,3.3-6.4,4.8-8.8
			s2.9-3.8,4.1-4.3c-1.8,3-3.3,6.1-4.5,9.3c-1.2,2.6-2.3,5.5-3.3,8.7c-1,3.2-1.4,6.1-1.4,8.9c0.1,2.7,1.1,5.3,3.8,6.8
			c2.5,1.3,7.2,3,9.9-0.6c0.4-0.5,1-1.4,1.7-2.6c4-6.6,11.9-21.9,12.1-27.4C334.5,114.6,334,113.2,333,111.9z M241.4,177.6
			c-9.1-7.5-8.9-17.9-4.9-28.3c0.2-0.4,0.7-0.2,0.6,0.2c-0.7,4.3-0.9,8.8-0.5,13.1c0.5,5.7,3.3,8.9,6.8,13.1
			C244.6,177,242.8,178.8,241.4,177.6z M281.5,124.3c-1.5-6.6,3.9-13.3,9.3-16.3c0.4-0.2,1,0.4,0.6,0.7c-2.3,2-3.9,4.4-5.2,7.2
			c-1.3,2.8-1.4,5.5-2.2,8.4C283.6,125.4,281.8,125.5,281.5,124.3z"/>
	</g>
	<g>
		<path class="st3" d="M162.6,132.1L162.6,132.1C162.6,131.9,162.7,131.4,162.6,132.1z"/>
	</g>
	<g>
		<path class="st3" d="M162.6,132.1L162.6,132.1C162.6,132.2,162.6,132.1,162.6,132.1z"/>
	</g>
	<g>
		<path class="st3" d="M214.1,110.7c-7.4-6.8-16.7-8.9-25.3-7.5c-2.4,0.4-4.8,1.1-7,2c-4.3,1.8-8.2,4.5-11.4,8.1
			c-4.4,4.9-7.4,11.3-7.7,18.8c0,0.1,0,0.1,0,0.1c-0.4,14.8,5.5,29.6,15.6,39.9c4.6,4.6,10,8.4,16.1,10.8c2.2,0.9,4.5,1.6,6.9,2.1
			c2,0.4,4.1,0.7,6.2,0.9c-5.2-4.9-8.6-13-9.1-22.2c10-1.7,17.5-7.9,21.6-15.9c2.2-4.3,3.5-9.1,3.6-14
			C223.9,125.4,220.9,117,214.1,110.7z M174.3,156.2c-0.1,0-0.2-0.1-0.2-0.1c-6.3-6.9-8.2-21.8-5.1-30.3c0.3-0.8,0.9-1,1.4-0.9
			c0.7,0.1,1.3,0.7,1.2,1.7c-0.4,2.8-0.5,5.4-0.5,8c0,4.7,0.7,9.1,1.8,13.7c0.6,2.4,1.3,4.9,2.1,7.4
			C175.1,156,174.7,156.3,174.3,156.2z"/>
	</g>
	<g>
		<path class="st2" d="M183.7,45.7c-1.2-3.2-2.7-6-4.5-8.6c-1.8-2.6-3.9-4.6-6.1-6.2c-2.2-1.6-4.4-2.4-6.5-2.5h-0.1
			c-17.5,1.2-30.9,0.2-46.8-3C104,22.2,89.4,16.3,75.8,7.6c-0.5-0.3-1.1-0.1-1.3,0.5C73,14.7,70.3,39,73.4,47.5
			c1.8,3.8,6.4,7.2,12.6,10.3c6.3,3.1,19.1,7.8,46.1,6.1c7.2-0.4,14.9-1.1,18.3-1.4c0.7-0.1,1.2,0.7,0.8,1.3c-1,1.4-2.8,3.6-5.6,6.4
			c-21.3,21.6-33.8,30.3-73.3,55.9C51,139.9,50.4,156.8,50.7,161c0.4,7.2,2.9,12.3,6.3,16.9c2,2.6,6.9,6.6,9.3,8.3
			c0.3,0.2,0.7,0.2,0.9,0c9.1-6.1,17.5-12,28.1-11c7.1,0.7,13.7,4.1,20.1,7.6s12.8,7.4,19.7,9c6.5,1.5,13.8,0.8,19.3-3.4l-0.3,0.2
			c0.7-0.5,1.4-1.1,2.1-1.7c2.2-1.9,4.1-4,5.5-6.3c1-1.5,1.8-3,2.3-4.3s0.9-2.5,1.1-3.6c0.3-2.1-0.2-3.3-1.5-3.6
			c-0.3-0.1-0.7,0.1-0.9,0.4c-0.4,0.5-1.1,1.1-2.2,1.7c-1.9,1-4.6,1.9-7.8,1.7c-2-0.1-4.7-1.2-8.3-3.5s-7.4-5-11.5-7.8
			c-4.1-2.9-8.2-5.5-12.5-7.8c-4.2-2.3-8.1-3.2-11.6-3.5c-8-0.7-14,1.3-18,3.8c-2.8,1.8-5.2,3.3-7.5,5.3c-0.7,0.6-0.2-0.1,0.4-0.9
			c3-4.4,9.6-11.7,24.9-25.2c5.6-4.9,26.6-22.7,40.7-36c7-6.6,12.6-12.9,18.1-18.5c5.5-5.7,10.7-9.7,14.1-13.9
			c3.4-4.1,4.5-7.8,4.5-9.4C186.3,52.3,184.8,48.9,183.7,45.7z M104.5,54.2c-7,1.2-15-2.7-18.4-9c-0.5-0.9,0.4-2.2,1.4-1.6
			c2.6,1.6,4.8,3.7,7.6,5c2.8,1.3,6.1,1.7,9.2,1.9C106.7,50.6,106.9,53.8,104.5,54.2z M65.4,177c-4.3-2.1-7.3-6.7-8-11.5
			c-0.8-5.2,1.3-8.8,4.7-12.4c0.8-0.9,2,0.4,1.3,1.3c-5.6,6.7-0.2,14.5,4.9,19C70.3,175.2,67.6,178.1,65.4,177z"/>
	</g>
	<g>
		<g>
			<path class="st4" d="M236.6,162.6c-0.4-4.3-0.2-8.8,0.5-13.1c0.1-0.4-0.5-0.6-0.6-0.2c-4,10.4-4.2,20.7,4.9,28.3
				c1.4,1.2,3.1-0.6,2-2C239.9,171.4,237.1,168.3,236.6,162.6z"/>
		</g>
		<g>
			<path class="st4" d="M353.3,106.5c0.4-0.4-0.1-1-0.6-0.7c-5.4,3-10.8,9.7-9.3,16.3c0.3,1.3,2.1,1.2,2.5,0
				c0.8-2.9,0.9-5.6,2.2-8.4C349.4,111,351,108.6,353.3,106.5z"/>
		</g>
		<g>
			<path class="st4" d="M291.4,108.6c0.4-0.4-0.1-1-0.6-0.7c-5.4,3-10.8,9.7-9.3,16.3c0.3,1.3,2.1,1.2,2.5,0
				c0.8-2.9,0.9-5.6,2.2-8.4C287.5,113,289.1,110.6,291.4,108.6z"/>
		</g>
		<g>
			<path class="st4" d="M389.3,105.9c-0.4,0.2-0.9,0.5-1.3,0.8c-4.9,3.3-9.4,9.4-8,15.5c0.3,1.3,2.1,1.2,2.5,0
				c0.8-2.9,0.9-5.6,2.2-8.4c0.9-2,2-3.7,3.4-5.3c0.5-0.6,1.1-1.2,1.8-1.8C390.3,106.3,389.8,105.7,389.3,105.9z"/>
		</g>
		<g>
			<path class="st4" d="M419.7,175.7c1.5,0.9,2.8-1.3,1.4-2.3c-5.9-4.2-9.2-11.6-7.7-18.8c0.1-0.6-0.7-0.9-1-0.3
				C409.2,162.4,412.1,171.4,419.7,175.7z"/>
		</g>
		<g>
			<path class="st4" d="M458,155.1l-4.9-5.4c-1.3-1.4-2.9-2.4-4.7-2.8c1.9-1.5,3.5-3.4,5-5.4c1.8-2.5,3.2-5.2,4.3-8.2
				c1.2-3.2,1.8-6.5,1.8-9.8c0-3.9-1.1-7.6-3.4-11c-1.9-2.9-4.4-5.4-7.5-7.3c-2.7-1.8-5.7-3.2-9-4.3c-3.5-1.1-7.1-1.7-10.8-1.7
				c-8.4,0-13.9,7.4-15.7,9.9c-1.8,2.5-3.6,5.3-5.3,8.5c0.3-1.4,0.4-2.9,0.2-4.4c-0.5-3.1-2-6-4.6-8.4c-2-1.9-4.6-3.4-7.7-4.4
				c-0.7-0.2-1.4-0.4-2.1-0.6c-3.4-25.1-15.2-48.6-34.4-66.3C327.2,4,281.8-3.8,240.7,13.2C221.2,21.3,205,33.9,193,49.5
				c-0.2-0.7-0.3-1.3-0.5-2c-0.1-0.4-0.2-0.8-0.3-1.1c-0.2-0.6-0.4-1.1-0.7-1.6c-4.2-9.9-11-20-21.8-23c-5-1.4-10.2-0.5-15.3-0.4
				c-5.7,0.1-11.4,0-17.1-0.5c-10.5-0.9-20.9-2.9-30.9-6.2c-5-1.6-9.8-3.5-14.5-5.8c-5.3-2.6-11-7.6-16.8-8.5
				c-12.4-2.1-14,10-15.1,18.9c-0.9,7.5-1.6,15.2-1.2,22.9C59,51.6,61.3,59,69,65.1c5.5,4.3,12,7.5,18.6,9.6
				c11,3.5,22.6,4.4,34.2,4.1c-5,4.5-10.3,8.9-15.1,12.5c-7.1,5.3-14.5,10.3-21.9,15.3c-10.2,6.8-21.5,12.8-30.6,21.1
				c-11.8,10.8-18.9,26.4-16.3,42.4c1.6,10.1,7.4,18.6,15.2,25c4.8,3.9,9.7,7.2,16.1,4.6c5.6-2.3,9.9-6.9,15.7-9
				c11.7-4.4,23.2,6,33.2,10.7c12.6,5.9,27.5,8.4,39.7-0.1l-0.1-0.1c0.7-0.4,1.4-0.9,2.1-1.4c4.4-3.5,9.4-9.1,12.2-15.2
				c4.3,3.8,9,6.9,14.1,9.2C193,210,202,225.3,213,239.1c30.3,37.9,72,60.4,117.5,63.2c0.2,0,0.4,0,0.6,0c3.5,0,6.6-2,8-5.3
				c1.5-3.4,0.7-7.3-2-9.9c-14.7-14-24.7-36.7-27.4-61.7c22.3-5.5,41.9-17.7,56.7-34.7c1.5,1.4,3.1,2.7,4.9,3.8
				c3.6,2.2,7.6,3.3,12,3.3c3.9,0,7.7-1.5,11.2-4.5c2.3-2,4.6-4.5,6.9-7.5c0.3-0.4,0.6-0.7,0.8-1.1c0.5,0.5,1,1.1,1.5,1.6
				c3.2,3.3,7.2,6,11.9,8.2c4.9,2.3,10.8,3.4,17.5,3.4c3.8,0,7.3-1.9,10.5-5.6c1.7-1.9,3.4-4.4,5.4-7.4c1.7-2.8,3.6-6,5.4-9.5
				c1.8-3.4,3.5-6.9,5.2-10.3C461.1,162,460.5,157.9,458,155.1z M404.3,123.6c0.1-0.1,0.2-0.2,0.3-0.2c0.2-0.2,0.5-0.5,0.7-0.7
				c-0.4,1-0.9,1.9-1.3,2.9c-1.2,2.7-2.3,5.6-3.3,8.6c-1.9,3.9-3.7,7.6-5.4,11.1c0.4-1.5,0.9-3.1,1.3-4.6c1.3-4.2,2.8-8.1,4.4-11.5
				C402.6,125.4,403.8,124,404.3,123.6z M355.5,37.1c18.8,17.3,29,39.2,31.8,61.7c-0.5,0-1,0-1.5,0c-2.7,0-6.1,0.7-9.6,3.4
				c-1.8,1.4-3.7,3.3-5.4,6c-0.1,0.2-0.2,0.4-0.4,0.6c-0.8-1.5-1.9-3-3.3-4.3c-2-1.9-4.6-3.4-7.7-4.4c-2.8-0.9-6-1.4-9.8-1.4
				c-3.2,0-8.1,1.1-12.7,6.4c-0.5,0.6-1.1,1.3-1.6,2c-1.8-1.8-4-3.3-6.4-4.7c-2.7-1.5-5.6-2.6-8.7-3.4c-3-0.7-5.8-1.1-8.5-1.1
				c-2.5,0-4.8,0.7-6.8,1.9c0-0.2,0.1-0.4,0.1-0.5c0.6-3,0.4-6.1-0.7-9.3s-3-6-5.7-8.5c-3.1-2.8-6.9-4.3-11.3-4.5
				c1.9-3.1,3.9-6,6-8.7c2.4-2.7,3.4-6.2,2.9-9.8c-0.5-3.1-2-6-4.6-8.4c-2-1.9-4.6-3.4-7.7-4.4c-2.8-0.9-6.1-1.4-9.8-1.4
				c-3.8,0-7.5,1.8-11.1,5.4c-2.2,2.2-4.5,5.1-6.9,8.7c-2.2,3.3-4.5,7.3-6.9,11.7c-1.4,2.7-2.9,5.6-4.4,8.6
				c-3.9-0.1-7.3-0.3-10.3-0.6c-1.7-0.2-2.6-0.5-3-0.6c-1.7-1.4-3.8-2.2-6.1-2.2c-5.6,0-10.1,3.7-11.5,9.5c-0.7,3-0.6,6.2,0.3,9.4
				c0.9,3.2,2.5,6.2,4.9,8.8c3.2,3.5,7.4,5.3,12.3,5.3c0.2,0,0.4,0,0.6,0c-0.7,1.7-1.3,3.5-1.9,5.3c-0.9,2.5-1.7,5-2.5,7.4
				c-2.1-5.1-5.4-9.8-9.6-13.7c-7.3-6.7-16.7-10.4-26.5-10.4c-0.6,0-1.1,0-1.7,0c-2.5,0.1-4.9,0.4-7.3,1
				C194.9,19,294.4-19.4,355.5,37.1z M311.6,117c-1.5,2.3-3.1,5.2-4.8,8.7c-1.7,3.5-3.5,7.3-5.2,11.5c-1.8,4.2-3.5,8.4-5.1,12.8
				c-3.8,10.1-7.8,21.5-11.9,34h-0.8c-2.7,0-5.2-0.7-7.5-2.2c-2.3-1.4-4.2-3.3-5.7-5.5c-1.6-2.3-2.8-4.7-3.6-7.4
				c-0.7-2.2-1.1-4.3-1.2-6.3c-0.8,1.5-1.6,3-2.4,4.5c-1.7,3.1-3.5,5.8-5.3,8.3s-3.6,4.4-5.3,5.9s-3.4,2.3-5,2.3
				c-2.7,0-5.2-0.7-7.5-2.2c-2.3-1.4-4.2-3.3-5.7-5.5c-1.6-2.3-2.8-4.7-3.6-7.4s-1.2-5.2-1.2-7.7c0-3.6,0.5-7.9,1.5-12.9
				c1-5.1,2.4-10.5,4.2-16.4c1.8-5.9,3.8-12,6.1-18.4s4.7-12.5,7.3-18.6c-3.4,0.3-6.4,0.5-9,0.6s-4.5,0.2-5.7,0.2
				c-2.2,0-4-0.8-5.3-2.3c-1.4-1.5-2.3-3.1-2.8-4.9s-0.5-3.4-0.2-4.9s1.1-2.3,2.4-2.3c1.4,1.4,4,2.3,7.9,2.8s8.4,0.7,13.4,0.7h3.9
				c2.3-4.9,4.6-9.5,6.8-13.6c2.2-4.2,4.3-7.8,6.4-10.9c2.1-3.1,4-5.5,5.7-7.3c1.8-1.8,3.3-2.7,4.5-2.7c2.7,0,5,0.3,6.9,0.9
				c1.8,0.6,3.3,1.4,4.3,2.4s1.6,1.9,1.7,2.9s-0.1,1.8-0.8,2.5c-2.7,3.6-5.4,7.4-7.9,11.6s-5,8.6-7.3,13.4c3.6-0.3,6.8-0.5,9.6-0.6
				c2.9-0.1,5.1-0.2,6.6-0.2l-0.6-0.2c2.3,0,4.2,0.7,5.7,2.1s2.5,2.9,3.1,4.5c0.5,1.6,0.7,3.1,0.4,4.5c-0.3,1.4-1,2.1-2.1,2.1
				c-0.8-0.8-2.9-1.4-6.3-1.7c-3.4-0.3-7.4-0.5-12-0.5c-1.5,0-3.1,0-4.7,0s-3.4,0.1-5.1,0.2c-4.2,9.3-8,18.7-11.4,28.3
				c-3.4,9.6-5.9,18.3-7.7,26c-1.8,7.8-2.6,14.2-2.6,19.1c0.1,4.9,1.3,7.4,3.6,7.4c0.7,0,1.5-0.6,2.6-1.8s2.2-2.9,3.4-4.9
				c1.2-2.1,2.6-4.4,4.1-7s2.9-5.3,4.3-8c1.8-3.4,3.7-7.2,5.6-11.2c1-3.6,2.2-7.4,3.5-11.3c1.6-4.7,3.2-9,5-12.9s3.7-7.1,5.7-9.7
				c2.1-2.6,4-3.9,5.9-3.9c2.7,0,5,0.3,6.9,0.9c1.8,0.6,3.3,1.4,4.3,2.4s1.6,1.9,1.7,2.9s-0.1,1.8-0.8,2.5c-1.6,1.6-3.3,4.1-5,7.4
				s-3.4,7-5,11.2c-1.6,4.2-3.2,8.6-4.6,13.2c-1.4,4.7-2.6,9.2-3.6,13.5c1.9-4.9,4.2-10.5,6.8-16.8c2.6-6.3,5.3-12.2,8.1-17.7
				c2.8-5.5,5.5-10.2,8.2-13.9c2.7-3.8,5-5.6,6.9-5.6s4,0.3,6.3,0.8s4.4,1.4,6.4,2.5s3.7,2.4,5,3.8c0.2,0.2,0.4,0.5,0.6,0.7
				c1,1.3,1.4,2.7,1.4,4.3c-0.2,5.4-8.1,20.6-12,27.2c-0.7,1.2-1.3,2.1-1.7,2.6c-2.6,3.6-7.3,1.9-9.8,0.6c-2.7-1.5-3.7-4.1-3.8-6.8
				c0-2.7,0.5-5.7,1.4-8.8c1-3.1,2.1-6,3.3-8.6c1.2-3.1,2.7-6.2,4.5-9.2C314.5,113.2,313.1,114.6,311.6,117z M273.9,106.6
				c-2.2,3-4.3,6.4-6.2,10.5c-0.7,1.5-1.3,3-2,4.6c1.9-5.1,4-10.1,6.2-15.1H273.9z M165.3,172.6c-0.2,1.1-0.5,2.3-1.1,3.6
				c-0.6,1.4-1.4,2.8-2.3,4.3c-1.5,2.2-3.3,4.3-5.5,6.3c-0.7,0.6-1.3,1.1-2.1,1.7l0.3-0.2c-5.4,4.2-12.7,4.9-19.3,3.4
				c-7-1.6-13.4-5.4-19.7-9c-6.3-3.6-13-6.9-20.1-7.6c-10.6-1-19,4.9-28.1,11c-0.3,0.2-0.7,0.2-0.9,0c-2.4-1.7-7.3-5.6-9.3-8.3
				c-3.5-4.6-6-9.7-6.3-16.9c-0.2-4.1,0.3-21,21.6-34.8c39.5-25.6,52-34.3,73.3-55.9c2.8-2.8,4.6-5,5.6-6.4c0.4-0.6,0-1.4-0.8-1.3
				c-3.4,0.3-11,1-18.3,1.4c-27,1.6-39.8-3-46.1-6.1c-6.3-3.1-10.8-6.5-12.6-10.3c-3.1-8.5-0.4-32.9,1.1-39.4
				c0.1-0.6,0.8-0.8,1.3-0.5c13.6,8.7,28.2,14.6,43.8,17.8c16,3.2,29.3,4.2,46.8,3h0.1c2.1,0.1,4.2,0.9,6.5,2.5
				c2.3,1.6,4.3,3.7,6.1,6.2c1.8,2.6,3.3,5.4,4.5,8.6c1.2,3.2,1.7,6.3,1.6,9.6c-0.1,1.6-1.8,4.5-5.2,8.6s-7.9,9-13.4,14.7
				c-5.5,5.6-11.7,11.9-18.7,18.5c-14.1,13.3-34.7,30.3-40.3,35.2c-15.2,13.5-22.2,21.6-25.3,26c-0.5,0.8,0.5,1.7,1.2,1.1
				c2.3-1.9,4.7-3.5,7.5-5.3c4.1-2.6,10-4.6,18-3.8c3.5,0.3,7.3,1.2,11.6,3.5c4.2,2.3,8.4,5,12.5,7.8c4.1,2.9,7.9,5.5,11.5,7.8
				s6.3,3.4,8.3,3.5c3.2,0.1,6-0.7,7.8-1.7c1.1-0.6,1.8-1.2,2.2-1.7c0.2-0.3,0.5-0.4,0.9-0.4C165.1,169.3,165.6,170.5,165.3,172.6z
				 M156.3,162.7c0.2,0.6,0.5,1.1,0.8,1.7c-0.8,1.1-2.4,2.2-6.3,0.6c-2.1-0.9-4.2-2.6-6-3.8c-10-6.7-19.8-14.9-31.6-17.6
				c8.7-7.7,17.7-15,26.4-22.7c12-10.5,23.4-21.5,34.5-33c-1.3,4.7-2.2,9.5-2.8,14.5c-2.4,1.4-4.7,3-6.8,4.9
				c-8.1,7.1-12.8,16.9-13.3,27.6c0,0.1,0,0.1,0,0.2l0,0c0,0.1,0,0.2,0,0.2v0.1C150.7,144.7,152.6,154.1,156.3,162.7z M178.3,172
				c-10.2-10.3-16-25.1-15.6-39.9c0-0.8,0-0.3,0-0.1c0.3-7.5,3.2-13.9,7.7-18.8c3.2-3.5,7.1-6.3,11.4-8.1c2.3-0.9,4.6-1.6,7-2
				c8.6-1.5,17.9,0.7,25.3,7.5c6.9,6.3,9.8,14.7,9.6,22.9c-0.1,4.9-1.4,9.7-3.6,14c-4.1,7.9-11.6,14.2-21.6,15.9
				c0.5,9.2,3.9,17.3,9.1,22.2c-2.1-0.1-4.2-0.4-6.2-0.9c-2.4-0.5-4.7-1.2-6.9-2.1C188.3,180.3,182.8,176.6,178.3,172z M302.6,215.9
				c1.5,31.2,13.3,58.4,30.7,75.1c-59.5-3.7-106.9-42.3-132.1-92.8c1.1,0.1,2.2,0.3,3.4,0.3c0.2,0,0.4,0,0.6,0
				c0.8,0,1.5-0.1,2.2-0.3c2.8-0.7,5.1-2.6,6.3-5.3c1.6-3.6,0.7-7.8-2.1-10.5c-2.2-2.1-3.9-5.2-5-8.8c4.2-1.8,8-4.3,11.3-7.5
				c0.1,2.9,0.7,5.8,1.6,8.8c1.1,3.6,2.7,6.9,4.9,10c2.3,3.3,5.1,6,8.4,8.1c3.8,2.4,8,3.6,12.5,3.6c4,0,7.7-1.5,11.2-4.6
				c1.7-1.5,3.3-3.2,5-5.3c2.1,2.7,4.6,4.9,7.4,6.7c3.8,2.4,8,3.6,12.5,3.6h0.8c4,0,7.6-2.6,8.9-6.4c4-12.2,7.9-23.3,11.5-33.1
				c0.2,0.1,0.5,0.3,0.7,0.4c0.1,0,0.2,0.1,0.3,0.1c2.3,1.2,5.9,2.6,9.8,2.6c2.1,0,4.1-0.4,6-1.2c-0.1,1.9-0.2,3.7-0.2,5.4
				c0,3.4,0.2,7.7,1.3,11.5c1.1,3.6,2.7,6.9,4.9,10c2.3,3.3,5.1,6,8.4,8.1c0.5,0.3,1.1,0.6,1.6,0.9c3.1,1.6,6.5,2.5,10.1,2.7
				C333.3,206.8,319,213.1,302.6,215.9z M448.4,166.7c-1.7,3.3-3.4,6.2-5,8.8s-3.1,4.7-4.5,6.3s-2.5,2.4-3.5,2.4
				c-5.3,0-9.8-0.9-13.5-2.6c-3.7-1.7-6.7-3.8-9.1-6.3s-4.1-5-5.1-7.7s-1.5-5-1.5-6.9c0-0.6,0-1.3,0-1.9c-1.5,2.9-3,5.8-4.5,8.6
				c-1.7,3.1-3.5,5.8-5.3,8.3s-3.7,4.4-5.4,5.9c-1.8,1.5-3.5,2.3-5.1,2.3c-2.6,0-5-0.6-7.1-1.9c-1.2-0.7-2.3-1.6-3.4-2.6
				c-0.8-0.7-1.5-1.5-2.2-2.3c-1.2-1.5-2.2-3.1-3-4.9c-0.3-0.6-0.5-1.2-0.7-1.8c-0.9-2.5-1.5-4.9-1.7-7.2c-1.2,2.7-2.5,5.4-3.9,7.9
				s-2.8,4.8-4.4,6.7s-3.3,3.4-5,4.5c-1.7,1-3.4,1.5-5.2,1.6c-0.1,0-0.3,0-0.4,0c-2.7,0-5.2-0.7-7.5-2.2c-2.3-1.4-4.2-3.3-5.7-5.5
				c-1.6-2.3-2.8-4.7-3.6-7.4c-0.8-2.7-0.9-6.3-0.9-8.8c-0.1-5.7,1.1-13.2,2.2-19.1c0.9-4.5,1.8-8,2-9.1c0.7-2.6,1.1-3.8,1.6-5.7
				c1.1-3.7,2.3-7,3.7-10c0.2-0.5,0.4-1,0.6-1.4c1.6-3.3,3.3-6.1,5.1-8.2c1.8-2.1,3.7-3.2,5.6-3.2c2.7,0,5,0.3,6.9,0.9
				c1.8,0.6,3.3,1.4,4.3,2.4s1.6,1.9,1.7,2.9s-0.1,1.8-0.8,2.5c-1.9,1.8-3.8,4.5-5.5,8.2c-1.8,3.7-3.4,7.8-4.8,12.2s-2.7,9-3.7,13.7
				s-1.7,9-2.1,12.9c-0.3,3.9-0.3,7.1,0.1,9.5c0.4,2.5,1.4,3.7,2.9,3.7c1.2,0,2.6-1.1,4.1-3.2s3.1-4.9,4.7-8.2s3.3-7,4.9-11.1
				c1.6-4,3.1-7.9,4.5-11.7s2.5-7.1,3.5-10.2c1-3,1.6-5.1,2.1-6.4c0.8-2.1,1.6-4,2.4-5.8c1.2-2.7,2.5-5.1,3.9-7.1
				c2.1-3.3,4.5-4.9,6.9-5.1c0.1,0,0.2,0,0.4,0c2.3,0,4.2,0.2,5.9,0.7c0.3,0.1,0.7,0.2,1,0.3c1.8,0.6,3.3,1.4,4.3,2.4
				s1.6,1.9,1.7,2.9s-0.1,1.8-0.8,2.5c-1.9,1.8-3.8,4.6-5.5,8.4c-0.1,0.3-0.2,0.6-0.4,0.8c-1.6,3.6-3.1,7.6-4.5,11.9
				c-1.4,4.7-2.7,9.4-3.7,14.4s-1.7,9.4-2.1,13.5c-0.1,0.7-0.1,1.4-0.1,2c-0.2,3.2-0.1,5.9,0.2,8.1c0.4,2.6,1.4,3.9,2.9,3.9
				c0.7,0,1.5-0.6,2.6-1.8c1-1.2,2.2-2.9,3.4-4.9c1.2-2.1,2.6-4.4,4.1-7s2.9-5.3,4.3-8c3.1-5.9,6.5-12.7,10.1-20.2
				c1-2.9,2.1-5.7,3.3-8.5c2.5-5.9,5.3-10.8,8.2-14.9c2.9-4,5.6-6.1,8.1-6.1c2.7,0,5.4,0.4,7.9,1.2c2.5,0.8,4.8,1.9,6.8,3.2
				c2,1.3,3.6,2.9,4.8,4.7c1.2,1.8,1.8,3.8,1.8,5.8c0,2.2-0.4,4.4-1.2,6.6c-0.8,2.2-1.9,4.2-3.2,6.1c-1.3,1.8-2.8,3.4-4.5,4.5
				c-1.7,1.2-3.5,1.7-5.2,1.7c-2.1,0-3.9-0.8-5.5-2.5c1.1,0,2.4-1.1,4-3.3s3-4.6,4.2-7.2s2-5,2.3-7.2s-0.3-3.3-1.8-3.3
				c-1.8,0-3.7,1.4-5.7,4.3s-4,6.5-5.8,10.8c-1.8,4.3-3.4,9-4.7,14.1c-1.3,5.1-2.1,9.7-2.5,14.1c-0.3,4.3-0.1,7.9,0.8,10.8
				c0.9,2.9,2.6,4.3,5.2,4.3c1.6,0,3.3-0.7,5-2.1c1.7-1.4,3.5-3.1,5.3-5.2c1.8-2.1,3.7-4.6,5.4-7.4c1.1-1.7,2.9-4.9,3.9-6.6l4.9,5.4
				C451.7,160.1,450.1,163.4,448.4,166.7z M437.9,151.5l-0.6,1.1c-0.9,1.6-2.2,3.8-3,4.9c-1.5,2.4-3.1,4.5-4.6,6.2l-0.1,0.1
				c0-0.3,0-0.7,0.1-1c0.3-3.6,1-7.5,2-11.8c1.4,0.4,2.9,0.6,4.4,0.6C436.7,151.6,437.3,151.6,437.9,151.5z"/>
		</g>
		<g>
			<path class="st4" d="M175,155.6c-0.8-2.5-1.6-5-2.1-7.4c-1.1-4.6-1.7-9-1.8-13.7c0-2.6,0.2-5.2,0.5-8c0.1-0.9-0.5-1.6-1.2-1.7
				c-0.6-0.1-1.2,0.2-1.4,0.9c-3.1,8.5-1.2,23.4,5.1,30.3c0.1,0.1,0.2,0.1,0.2,0.1C174.7,156.3,175.1,156,175,155.6z"/>
		</g>
		<g>
			<path class="st4" d="M63.3,154.4c0.7-0.9-0.5-2.2-1.3-1.3c-3.3,3.7-5.5,7.3-4.7,12.4c0.7,4.7,3.7,9.3,8,11.5
				c2.2,1.1,4.9-1.8,2.8-3.6C63,168.9,57.7,161.1,63.3,154.4z"/>
		</g>
		<g>
			<path class="st4" d="M104.3,50.3c-3.1-0.2-6.4-0.6-9.2-1.9c-2.8-1.3-5-3.4-7.6-5c-1-0.6-1.9,0.7-1.4,1.6
				c3.5,6.3,11.5,10.3,18.4,9C106.9,53.7,106.7,50.5,104.3,50.3z"/>
		</g>
		<g>
			<path class="st4" d="M350.7,2.5c24,12.9,42.7,34,48.6,61.1c0.9,4.2,7.5,2.5,6.5-1.8c-6.5-27.4-27.1-52.4-54.6-60.4
				C350.5,1.2,350.1,2.2,350.7,2.5z"/>
		</g>
		<g>
			<path class="st4" d="M225.4,280.6c-4.3-3.5-8.4-7.3-12.3-11.2c-8-8.1-16-17.5-21.4-27.7c-0.5-0.9-2.1-0.2-1.7,0.8
				c5.2,11.1,10.4,21.2,18.5,30.6c4.1,4.8,8.7,9.2,13.7,13.2c3.9,3.2,8.8,8,14,8.4c2.1,0.2,2.9-2.4,2.1-3.9
				C235.7,286.5,229.3,283.8,225.4,280.6z"/>
		</g>
	</g>
</g>
<g>
	<g>
		<path class="st4" d="M17.4,228.3H8.6l-1.7,4H2.5l8.4-18.8h4.3l8.4,18.8H19L17.4,228.3z M16,225l-3-7.2l-3,7.2H16z"/>
		<path class="st4" d="M23.6,234.8H19c-1,0-1.9-0.6-2.3-1.6l-1-2.5h-5.3l-1,2.5c-0.4,0.9-1.3,1.6-2.3,1.6H2.5
			c-0.9,0-1.7-0.4-2.1-1.2c-0.5-0.7-0.5-1.6-0.2-2.4l8.4-18.8c0.4-0.9,1.3-1.5,2.3-1.5h4.3c1,0,1.9,0.6,2.3,1.5l8.4,18.8
			c0.4,0.8,0.3,1.7-0.2,2.4S24.4,234.8,23.6,234.8z"/>
	</g>
	<g>
		<path class="st4" d="M40,217.9v12c0,5.4-2.9,7.8-8.1,7.8c-2.7,0-5.4-0.7-7.1-2l1.7-3c1.2,1,3.2,1.6,5.1,1.6c2.9,0,4.2-1.3,4.2-3.9
			v-0.6c-1.1,1.2-2.7,1.8-4.6,1.8c-4,0-7.2-2.8-7.2-7s3.2-7,7.2-7c2,0,3.7,0.7,4.8,2.1v-1.8L40,217.9L40,217.9z M35.9,224.6
			c0-2.1-1.6-3.5-3.8-3.5s-3.8,1.4-3.8,3.5s1.6,3.5,3.8,3.5S35.9,226.7,35.9,224.6z"/>
		<path class="st4" d="M31.9,240.2c-3.4,0-6.6-0.9-8.6-2.5c-1-0.8-1.3-2.1-0.7-3.2l1.7-3v-0.1c-1.7-1.7-2.8-4.1-2.8-6.8
			c0-5.4,4.2-9.5,9.7-9.5c1.3,0,2.4,0.2,3.4,0.6c0.4-0.2,0.8-0.4,1.3-0.4h4c1.4,0,2.5,1.1,2.5,2.5v12
			C42.5,236.4,38.6,240.2,31.9,240.2z M32.1,223.6c-0.6,0-1.3,0.2-1.3,1s0.7,1,1.3,1c0.8,0,1.2-0.3,1.2-1
			C33.3,223.9,32.9,223.6,32.1,223.6z"/>
	</g>
	<g>
		<path class="st4" d="M57.9,226.2H47c0.4,1.8,1.9,2.9,4.1,2.9c1.5,0,2.6-0.5,3.6-1.4l2.2,2.4c-1.3,1.5-3.4,2.3-6,2.3
			c-5,0-8.2-3.1-8.2-7.4c0-4.3,3.3-7.4,7.7-7.4c4.2,0,7.5,2.8,7.5,7.5C58,225.4,57.9,225.9,57.9,226.2z M46.9,223.8H54
			c-0.3-1.8-1.7-3-3.5-3C48.6,220.8,47.2,222,46.9,223.8z"/>
		<path class="st4" d="M51,235c-6.2,0-10.8-4.2-10.8-10c0-5.7,4.4-10,10.2-10s10,4.2,10,10c0,0.3,0,0.7-0.1,1v0.3
			c-0.1,1-0.7,1.8-1.5,2.1c0.8,1,0.8,2.3-0.1,3.3C57,233.9,54.3,235,51,235z"/>
	</g>
	<g>
		<path class="st4" d="M75.5,224v8.3h-4.2v-7.6c0-2.3-1.1-3.4-2.9-3.4c-2,0-3.5,1.2-3.5,3.9v7.1h-4.2v-14.4h4v1.7
			c1.1-1.2,2.8-1.9,4.8-1.9C73,217.6,75.5,219.6,75.5,224z"/>
		<path class="st4" d="M75.5,234.8h-4.2c-1.4,0-2.5-1.1-2.5-2.5v-7.6c0-0.5-0.1-0.7-0.1-0.8c-0.1,0-0.1,0-0.3,0
			c-0.5,0-0.9,0-0.9,1.4v7.1c0,1.4-1.1,2.5-2.5,2.5h-4.2c-1.4,0-2.5-1.1-2.5-2.5V218c0-1.4,1.1-2.5,2.5-2.5h4c0.5,0,0.9,0.1,1.3,0.4
			c1.1-0.4,2.2-0.6,3.4-0.6c5.2,0,8.5,3.5,8.5,8.9v8.3C78.1,233.7,76.9,234.8,75.5,234.8z"/>
	</g>
	<g>
		<path class="st4" d="M78.4,225.1c0-4.3,3.4-7.4,8-7.4c3,0,5.4,1.3,6.5,3.7l-3.2,1.7c-0.8-1.4-1.9-2-3.2-2c-2.1,0-3.8,1.5-3.8,4
			s1.7,4,3.8,4c1.3,0,2.5-0.6,3.2-2l3.2,1.8c-1,2.3-3.4,3.6-6.5,3.6C81.7,232.5,78.4,229.4,78.4,225.1z"/>
		<path class="st4" d="M86.4,235c-6.1,0-10.6-4.2-10.6-10s4.4-10,10.6-10c4.1,0,7.3,1.9,8.8,5.2c0.5,1.2,0,2.6-1.1,3.3l-2.8,1.5
			l2.9,1.6c1.2,0.6,1.6,2.1,1.1,3.3C93.7,233.1,90.5,235,86.4,235z M86.4,223.6c-0.8,0-1.2,0.5-1.2,1.5s0.4,1.5,1.2,1.5
			c0.4,0,0.7-0.1,1-0.7c0.2-0.3,0.4-0.6,0.7-0.8c-0.3-0.2-0.5-0.5-0.7-0.8C87.1,223.7,86.7,223.6,86.4,223.6z"/>
	</g>
	<g>
		<path class="st4" d="M109.2,226.2H98.3c0.4,1.8,1.9,2.9,4.1,2.9c1.5,0,2.6-0.5,3.6-1.4l2.2,2.4c-1.3,1.5-3.4,2.3-6,2.3
			c-5,0-8.2-3.1-8.2-7.4c0-4.3,3.3-7.4,7.7-7.4c4.2,0,7.5,2.8,7.5,7.5C109.2,225.4,109.2,225.9,109.2,226.2z M98.2,223.8h7.1
			c-0.3-1.8-1.7-3-3.5-3C99.9,220.8,98.5,222,98.2,223.8z"/>
		<path class="st4" d="M102.3,235c-6.2,0-10.8-4.2-10.8-10c0-5.7,4.4-10,10.2-10c5.8,0,10,4.2,10,10c0,0.3,0,0.7-0.1,1v0.3
			c-0.1,1-0.7,1.8-1.5,2.1c0.8,1,0.8,2.3-0.1,3.3C108.3,233.9,105.6,235,102.3,235z"/>
	</g>
	<g>
		<path class="st4" d="M134.3,212.4v19.9h-4v-1.7c-1,1.3-2.6,1.9-4.5,1.9c-4.1,0-7.2-2.9-7.2-7.4s3.1-7.4,7.2-7.4
			c1.8,0,3.3,0.6,4.3,1.7v-7H134.3z M130.2,225.1c0-2.5-1.6-4-3.7-4c-2.1,0-3.7,1.5-3.7,4s1.6,4,3.7,4
			C128.6,229.1,130.2,227.6,130.2,225.1z"/>
		<path class="st4" d="M125.8,235c-5.6,0-9.7-4.2-9.7-10s4.1-10,9.7-10c0.6,0,1.2,0.1,1.8,0.2v-2.9c0-1.4,1.1-2.5,2.5-2.5h4.2
			c1.4,0,2.5,1.1,2.5,2.5v19.9c0,1.4-1.1,2.5-2.5,2.5h-4c-0.5,0-0.9-0.1-1.2-0.3C128.2,234.8,127.1,235,125.8,235z M126.5,223.6
			c-0.3,0-1.2,0-1.2,1.5s0.9,1.5,1.2,1.5c0.8,0,1.1-0.5,1.1-1.5C127.7,224.1,127.3,223.6,126.5,223.6z M131.7,221.3
			C131.7,221.4,131.8,221.4,131.7,221.3L131.7,221.3C131.8,221.3,131.7,221.3,131.7,221.3z"/>
	</g>
	<g>
		<path class="st4" d="M152.2,226.2h-10.9c0.4,1.8,1.9,2.9,4.1,2.9c1.5,0,2.6-0.5,3.6-1.4l2.2,2.4c-1.3,1.5-3.4,2.3-6,2.3
			c-5,0-8.2-3.1-8.2-7.4c0-4.3,3.3-7.4,7.7-7.4c4.2,0,7.5,2.8,7.5,7.5C152.3,225.4,152.2,225.9,152.2,226.2z M141.2,223.8h7.1
			c-0.3-1.8-1.7-3-3.5-3C142.9,220.8,141.5,222,141.2,223.8z"/>
		<path class="st4" d="M145.3,235c-6.2,0-10.8-4.2-10.8-10c0-5.7,4.4-10,10.2-10s10,4.2,10,10c0,0.3,0,0.7-0.1,1v0.3
			c-0.1,1-0.7,1.8-1.5,2.1c0.8,1,0.8,2.3-0.1,3.3C151.3,233.9,148.6,235,145.3,235z"/>
	</g>
	<g>
		<path class="st4" d="M161.6,225.1c0-4.3,3.4-7.4,8-7.4c3,0,5.4,1.3,6.5,3.7l-3.2,1.7c-0.8-1.4-1.9-2-3.2-2c-2.1,0-3.8,1.5-3.8,4
			s1.7,4,3.8,4c1.3,0,2.5-0.6,3.2-2l3.2,1.8c-1,2.3-3.4,3.6-6.5,3.6C164.9,232.5,161.6,229.4,161.6,225.1z"/>
		<path class="st4" d="M169.6,235c-6.1,0-10.6-4.2-10.6-10s4.4-10,10.6-10c4.1,0,7.3,1.9,8.8,5.2c0.5,1.2,0,2.6-1.1,3.3l-2.8,1.5
			l2.9,1.6c1.2,0.6,1.6,2.1,1.1,3.3C176.9,233.1,173.7,235,169.6,235z M169.6,223.6c-0.8,0-1.2,0.5-1.2,1.5s0.4,1.5,1.2,1.5
			c0.4,0,0.7-0.1,1-0.7c0.2-0.3,0.4-0.6,0.7-0.8c-0.3-0.2-0.5-0.5-0.7-0.8C170.3,223.7,169.9,223.6,169.6,223.6z"/>
	</g>
	<g>
		<path class="st4" d="M177.2,225.1c0-4.3,3.4-7.4,7.9-7.4c4.6,0,7.9,3.1,7.9,7.4c0,4.3-3.3,7.4-7.9,7.4
			C180.6,232.5,177.2,229.4,177.2,225.1z M188.9,225.1c0-2.5-1.6-4-3.7-4c-2.1,0-3.7,1.5-3.7,4s1.6,4,3.7,4
			C187.3,229.1,188.9,227.6,188.9,225.1z"/>
		<path class="st4" d="M185.2,235c-6,0-10.5-4.3-10.5-10s4.5-10,10.5-10s10.4,4.2,10.4,10C195.6,230.8,191.2,235,185.2,235z
			 M185.2,223.6c-0.3,0-1.2,0-1.2,1.5s0.9,1.5,1.2,1.5s1.1,0,1.1-1.5S185.5,223.6,185.2,223.6z"/>
	</g>
	<g>
		<path class="st4" d="M220.2,224v8.3H216v-7.6c0-2.3-1-3.4-2.7-3.4c-1.9,0-3.2,1.2-3.2,3.8v7.2H206v-7.6c0-2.3-1-3.4-2.7-3.4
			c-1.8,0-3.2,1.2-3.2,3.8v7.2h-4.2v-14.4h4v1.7c1.1-1.2,2.7-1.9,4.5-1.9c2,0,3.7,0.8,4.7,2.4c1.2-1.5,3-2.4,5.2-2.4
			C217.8,217.6,220.2,219.6,220.2,224z"/>
		<path class="st4" d="M220.2,234.8H216c-1.4,0-2.5-1.1-2.5-2.5v-7.6c0-0.5-0.1-0.7-0.1-0.9h-0.1c-0.3,0-0.7,0-0.7,1.2v7.2
			c0,1.4-1.1,2.5-2.5,2.5H206c-1.4,0-2.5-1.1-2.5-2.5v-7.6c0-0.5-0.1-0.7-0.1-0.9h-0.1c-0.3,0-0.6,0-0.6,1.2v7.2
			c0,1.4-1.1,2.5-2.5,2.5H196c-1.4,0-2.5-1.1-2.5-2.5v-14.4c0-1.4,1.1-2.5,2.5-2.5h4c0.5,0,0.9,0.1,1.3,0.3c1-0.4,2.1-0.6,3.3-0.6
			c1.9,0,3.5,0.5,4.9,1.4c1.5-0.9,3.2-1.4,5.1-1.4c5.2,0,8.4,3.4,8.4,8.9v8.3C222.8,233.7,221.6,234.8,220.2,234.8z"/>
	</g>
	<g>
		<path class="st4" d="M248.4,224v8.3h-4.2v-7.6c0-2.3-1-3.4-2.7-3.4c-1.9,0-3.2,1.2-3.2,3.8v7.2h-4.2v-7.6c0-2.3-1-3.4-2.7-3.4
			c-1.8,0-3.2,1.2-3.2,3.8v7.2H224v-14.4h4v1.7c1.1-1.2,2.7-1.9,4.5-1.9c2,0,3.7,0.8,4.7,2.4c1.2-1.5,3-2.4,5.2-2.4
			C245.9,217.6,248.4,219.6,248.4,224z"/>
		<path class="st4" d="M248.4,234.8h-4.2c-1.4,0-2.5-1.1-2.5-2.5v-7.6c0-0.5-0.1-0.7-0.1-0.9h-0.1c-0.3,0-0.7,0-0.7,1.2v7.2
			c0,1.4-1.1,2.5-2.5,2.5h-4.2c-1.4,0-2.5-1.1-2.5-2.5v-7.6c0-0.5-0.1-0.7-0.1-0.9h-0.1c-0.3,0-0.6,0-0.6,1.2v7.2
			c0,1.4-1.1,2.5-2.5,2.5H224c-1.4,0-2.5-1.1-2.5-2.5v-14.4c0-1.4,1.1-2.5,2.5-2.5h4c0.5,0,0.9,0.1,1.3,0.3c1-0.4,2.1-0.6,3.3-0.6
			c1.9,0,3.5,0.5,4.9,1.4c1.5-0.9,3.2-1.4,5.1-1.4c5.2,0,8.4,3.4,8.4,8.9v8.3C250.9,233.7,249.8,234.8,248.4,234.8z"/>
	</g>
	<g>
		<path class="st4" d="M266.6,217.9v14.4h-4v-1.7c-1.1,1.3-2.7,1.9-4.5,1.9c-3.6,0-6.2-2-6.2-6.5v-8.2h4.2v7.5
			c0,2.4,1.1,3.5,2.9,3.5c1.9,0,3.3-1.2,3.3-3.9v-7.1h4.3L266.6,217.9L266.6,217.9z"/>
		<path class="st4" d="M258.2,235c-5.4,0-8.7-3.5-8.7-9v-8.2c0-1.4,1.1-2.5,2.5-2.5h4.2c1.4,0,2.5,1.1,2.5,2.5v7.5
			c0,0.5,0.1,0.8,0.1,0.9c0.1,0,0.1,0,0.3,0c0.4,0,0.8,0,0.8-1.4v-7.1c0-1.4,1.1-2.5,2.5-2.5h4.2c1.4,0,2.5,1.1,2.5,2.5v14.4
			c0,1.4-1.1,2.5-2.5,2.5h-4c-0.5,0-0.9-0.1-1.3-0.4C260.4,234.8,259.3,235,258.2,235z"/>
	</g>
	<g>
		<path class="st4" d="M285.3,224v8.3h-4.2v-7.6c0-2.3-1.1-3.4-2.9-3.4c-2,0-3.5,1.2-3.5,3.9v7.1h-4.2v-14.4h4v1.7
			c1.1-1.2,2.8-1.9,4.8-1.9C282.7,217.6,285.3,219.6,285.3,224z"/>
		<path class="st4" d="M285.3,234.8h-4.2c-1.4,0-2.5-1.1-2.5-2.5v-7.6c0-0.5-0.1-0.7-0.1-0.8c-0.1,0-0.1,0-0.3,0
			c-0.5,0-0.9,0-0.9,1.4v7.1c0,1.4-1.1,2.5-2.5,2.5h-4.2c-1.4,0-2.5-1.1-2.5-2.5V218c0-1.4,1.1-2.5,2.5-2.5h4c0.5,0,0.9,0.1,1.3,0.4
			c1.1-0.4,2.2-0.6,3.4-0.6c5.2,0,8.5,3.5,8.5,8.9v8.3C287.8,233.7,286.7,234.8,285.3,234.8z"/>
	</g>
	<g>
		<path class="st4" d="M288.5,213.5c0-1.3,1-2.3,2.6-2.3s2.6,1,2.6,2.3c0,1.4-1,2.4-2.6,2.4S288.5,214.8,288.5,213.5z M289.1,217.9
			h4.2v14.4h-4.2V217.9z"/>
		<path class="st4" d="M293.2,234.8H289c-1.4,0-2.5-1.1-2.5-2.5v-14.4c0-0.5,0.2-1,0.4-1.4c-0.6-0.8-1-1.8-1-2.9
			c0-2.8,2.2-4.9,5.1-4.9s5.1,2.1,5.1,4.8c0,1.1-0.4,2.2-1,3c0.3,0.4,0.5,0.9,0.5,1.5v14.4C295.8,233.7,294.6,234.8,293.2,234.8z
			 M290.9,213.3L290.9,213.3L290.9,213.3z"/>
	</g>
	<g>
		<path class="st4" d="M296,225.1c0-4.3,3.4-7.4,8-7.4c3,0,5.4,1.3,6.5,3.7l-3.2,1.7c-0.8-1.4-1.9-2-3.2-2c-2.1,0-3.8,1.5-3.8,4
			s1.7,4,3.8,4c1.3,0,2.5-0.6,3.2-2l3.2,1.8c-1,2.3-3.4,3.6-6.5,3.6C299.4,232.5,296,229.4,296,225.1z"/>
		<path class="st4" d="M304.1,235c-6.1,0-10.6-4.2-10.6-10s4.4-10,10.6-10c4.1,0,7.3,1.9,8.8,5.2c0.5,1.2,0,2.6-1.1,3.3L309,225
			l2.9,1.6c1.2,0.6,1.6,2.1,1.1,3.3C311.4,233.1,308.1,235,304.1,235z M304.1,223.6c-0.8,0-1.2,0.5-1.2,1.5s0.4,1.5,1.2,1.5
			c0.4,0,0.7-0.1,1-0.7c0.2-0.3,0.4-0.6,0.7-0.8c-0.3-0.2-0.5-0.5-0.7-0.8C304.7,223.7,304.4,223.6,304.1,223.6z"/>
	</g>
	<g>
		<path class="st4" d="M325.7,224v8.2h-3.9v-1.8c-0.8,1.3-2.3,2-4.4,2c-3.4,0-5.4-1.9-5.4-4.4s1.8-4.3,6.2-4.3h3.3
			c0-1.8-1.1-2.8-3.3-2.8c-1.5,0-3.1,0.5-4.2,1.3l-1.5-2.9c1.6-1.1,3.9-1.7,6.2-1.7C323.2,217.6,325.7,219.7,325.7,224z
			 M321.5,227.7v-1.5h-2.9c-2,0-2.6,0.7-2.6,1.7s0.9,1.7,2.4,1.7C319.9,229.7,321.1,229,321.5,227.7z"/>
		<path class="st4" d="M317.4,235c-4.7,0-7.9-2.8-7.9-6.9c0-1,0.2-3.3,2.2-4.9l-1.4-2.7c-0.6-1.1-0.2-2.5,0.8-3.2
			c2-1.4,4.8-2.2,7.7-2.2c5.9,0,9.5,3.3,9.5,8.9v8.2c0,1.4-1.1,2.5-2.5,2.5h-3.9c-0.4,0-0.8-0.1-1.2-0.3
			C319.7,234.8,318.7,235,317.4,235z M318,228.8L318,228.8L318,228.8z"/>
	</g>
	<g>
		<path class="st4" d="M338.8,231.6c-0.9,0.6-2.1,0.9-3.4,0.9c-3.4,0-5.4-1.7-5.4-5.2v-5.9h-2.2v-3.2h2.2v-3.5h4.2v3.5h3.6v3.2h-3.6
			v5.9c0,1.2,0.7,1.9,1.8,1.9c0.6,0,1.2-0.2,1.7-0.5L338.8,231.6z"/>
		<path class="st4" d="M335.4,235c-4.9,0-7.9-3-7.9-7.7v-3.4c-1.3-0.2-2.2-1.2-2.2-2.5v-3.2c0-1.3,1-2.4,2.2-2.5v-1
			c0-1.4,1.1-2.5,2.5-2.5h4.2c1.4,0,2.5,1.1,2.5,2.5v1h1.1c1.4,0,2.5,1.1,2.5,2.5v3.2c0,1.4-1.1,2.5-2.5,2.5h-1.1v2.4
			c0.5-0.2,1.1-0.2,1.7-0.1c0.8,0.2,1.4,0.8,1.7,1.5l1.1,2.9c0.4,1.1,0,2.3-0.9,3C339,234.5,337.3,235,335.4,235z M332,219.8
			c0,0.1,0.1,0.1,0.1,0.2c0-0.1,0.1-0.1,0.1-0.2c0-0.1-0.1-0.1-0.1-0.2C332.1,219.7,332,219.7,332,219.8z"/>
	</g>
	<g>
		<path class="st4" d="M340.7,213.5c0-1.3,1-2.3,2.6-2.3s2.6,1,2.6,2.3c0,1.4-1,2.4-2.6,2.4S340.7,214.8,340.7,213.5z M341.2,217.9
			h4.2v14.4h-4.2V217.9z"/>
		<path class="st4" d="M345.3,234.8h-4.2c-1.4,0-2.5-1.1-2.5-2.5v-14.4c0-0.5,0.2-1,0.4-1.4c-0.6-0.8-1-1.8-1-2.9
			c0-2.8,2.2-4.9,5.1-4.9s5.1,2.1,5.1,4.8c0,1.1-0.4,2.2-1,3c0.3,0.4,0.5,0.9,0.5,1.5v14.4C347.9,233.7,346.7,234.8,345.3,234.8z
			 M343,213.3L343,213.3L343,213.3z"/>
	</g>
	<g>
		<path class="st4" d="M348.2,225.1c0-4.3,3.4-7.4,7.9-7.4c4.6,0,7.9,3.1,7.9,7.4c0,4.3-3.3,7.4-7.9,7.4S348.2,229.4,348.2,225.1z
			 M359.8,225.1c0-2.5-1.6-4-3.7-4s-3.7,1.5-3.7,4s1.6,4,3.7,4C358.2,229.1,359.8,227.6,359.8,225.1z"/>
		<path class="st4" d="M356.1,235c-6,0-10.5-4.3-10.5-10s4.5-10,10.5-10s10.4,4.2,10.4,10S362.1,235,356.1,235z M356.1,223.6
			c-0.3,0-1.2,0-1.2,1.5s0.9,1.5,1.2,1.5c0.3,0,1.1,0,1.1-1.5S356.4,223.6,356.1,223.6z"/>
	</g>
	<g>
		<path class="st4" d="M381.5,224v8.3h-4.2v-7.6c0-2.3-1.1-3.4-2.9-3.4c-2,0-3.5,1.2-3.5,3.9v7.1h-4.2v-14.4h4v1.7
			c1.1-1.2,2.8-1.9,4.8-1.9C379,217.6,381.5,219.6,381.5,224z"/>
		<path class="st4" d="M381.5,234.8h-4.2c-1.4,0-2.5-1.1-2.5-2.5v-7.6c0-0.5-0.1-0.7-0.1-0.8c-0.1,0-0.1,0-0.3,0
			c-0.5,0-0.9,0-0.9,1.4v7.1c0,1.4-1.1,2.5-2.5,2.5h-4.2c-1.4,0-2.5-1.1-2.5-2.5V218c0-1.4,1.1-2.5,2.5-2.5h4c0.5,0,0.9,0.1,1.3,0.4
			c1.1-0.4,2.2-0.6,3.4-0.6c5.2,0,8.5,3.5,8.5,8.9v8.3C384.1,233.7,382.9,234.8,381.5,234.8z"/>
	</g>
	<g>
		<path class="st4" d="M407.8,217.9v12c0,5.4-2.9,7.8-8.1,7.8c-2.7,0-5.4-0.7-7.1-2l1.7-3c1.2,1,3.2,1.6,5.1,1.6
			c2.9,0,4.2-1.3,4.2-3.9v-0.6c-1.1,1.2-2.7,1.8-4.6,1.8c-4,0-7.2-2.8-7.2-7s3.2-7,7.2-7c2,0,3.7,0.7,4.8,2.1v-1.8L407.8,217.9
			L407.8,217.9z M403.6,224.6c0-2.1-1.6-3.5-3.8-3.5c-2.2,0-3.8,1.4-3.8,3.5s1.6,3.5,3.8,3.5C402.1,228.1,403.6,226.7,403.6,224.6z"
			/>
		<path class="st4" d="M399.7,240.2c-3.4,0-6.6-0.9-8.6-2.5c-1-0.8-1.3-2.1-0.7-3.2l1.7-3v-0.1c-1.7-1.7-2.8-4.1-2.8-6.8
			c0-5.4,4.2-9.5,9.7-9.5c1.3,0,2.4,0.2,3.4,0.6c0.4-0.2,0.8-0.4,1.3-0.4h4c1.4,0,2.5,1.1,2.5,2.5v12
			C410.3,236.4,406.4,240.2,399.7,240.2z M399.9,223.6c-0.6,0-1.3,0.2-1.3,1s0.7,1,1.3,1c0.8,0,1.2-0.3,1.2-1
			C401.1,223.9,400.7,223.6,399.9,223.6z"/>
	</g>
	<g>
		<path class="st4" d="M411.7,212.4h4.2v19.9h-4.2V212.4z"/>
		<path class="st4" d="M415.8,234.8h-4.2c-1.4,0-2.5-1.1-2.5-2.5v-19.9c0-1.4,1.1-2.5,2.5-2.5h4.2c1.4,0,2.5,1.1,2.5,2.5v19.9
			C418.4,233.7,417.2,234.8,415.8,234.8z"/>
	</g>
	<g>
		<path class="st4" d="M418.7,225.1c0-4.3,3.4-7.4,7.9-7.4c4.6,0,7.9,3.1,7.9,7.4c0,4.3-3.3,7.4-7.9,7.4S418.7,229.4,418.7,225.1z
			 M430.3,225.1c0-2.5-1.6-4-3.7-4s-3.7,1.5-3.7,4s1.6,4,3.7,4C428.7,229.1,430.3,227.6,430.3,225.1z"/>
		<path class="st4" d="M426.6,235c-6,0-10.5-4.3-10.5-10s4.5-10,10.5-10s10.4,4.2,10.4,10S432.6,235,426.6,235z M426.6,223.6
			c-0.3,0-1.2,0-1.2,1.5s0.9,1.5,1.2,1.5c0.3,0,1.1,0,1.1-1.5S426.9,223.6,426.6,223.6z"/>
	</g>
	<g>
		<path class="st4" d="M453,225.1c0,4.5-3.1,7.4-7.2,7.4c-1.9,0-3.5-0.6-4.5-1.9v1.7h-4v-19.9h4.2v7c1.1-1.2,2.5-1.7,4.3-1.7
			C449.9,217.6,453,220.5,453,225.1z M448.8,225.1c0-2.5-1.6-4-3.7-4s-3.7,1.5-3.7,4s1.6,4,3.7,4
			C447.2,229.1,448.8,227.6,448.8,225.1z"/>
		<path class="st4" d="M445.8,235c-1.2,0-2.3-0.2-3.3-0.5c-0.4,0.2-0.8,0.3-1.3,0.3h-4c-1.4,0-2.5-1.1-2.5-2.5v-19.9
			c0-1.4,1.1-2.5,2.5-2.5h4.2c1.4,0,2.5,1.1,2.5,2.5v2.9c0.6-0.1,1.2-0.2,1.8-0.2c5.6,0,9.7,4.2,9.7,10
			C455.5,230.8,451.4,235,445.8,235z M445.1,223.6c-0.3,0-1.1,0-1.1,1.5s0.9,1.5,1.1,1.5s1.1,0,1.1-1.5S445.4,223.6,445.1,223.6z
			 M439.8,221.3v0.2C439.8,221.4,439.9,221.4,439.8,221.3C439.9,221.3,439.8,221.3,439.8,221.3z"/>
	</g>
	<g>
		<path class="st4" d="M468.3,224v8.2h-3.9v-1.8c-0.8,1.3-2.3,2-4.4,2c-3.4,0-5.4-1.9-5.4-4.4s1.8-4.3,6.2-4.3h3.3
			c0-1.8-1.1-2.8-3.3-2.8c-1.5,0-3.1,0.5-4.2,1.3l-1.5-2.9c1.6-1.1,3.9-1.7,6.2-1.7C465.8,217.6,468.3,219.7,468.3,224z
			 M464.1,227.7v-1.5h-2.9c-2,0-2.6,0.7-2.6,1.7s0.9,1.7,2.4,1.7C462.4,229.7,463.6,229,464.1,227.7z"/>
		<path class="st4" d="M460,235c-4.7,0-7.9-2.8-7.9-6.9c0-1,0.2-3.3,2.2-4.9l-1.4-2.7c-0.6-1.1-0.2-2.5,0.8-3.2
			c2-1.4,4.8-2.2,7.7-2.2c5.9,0,9.5,3.3,9.5,8.9v8.2c0,1.4-1.1,2.5-2.5,2.5h-3.9c-0.4,0-0.8-0.1-1.2-0.3
			C462.3,234.8,461.3,235,460,235z M460.6,228.8L460.6,228.8L460.6,228.8z"/>
	</g>
	<g>
		<path class="st4" d="M472.1,212.4h4.2v19.9h-4.2V212.4z"/>
		<path class="st4" d="M476.3,234.8h-4.2c-1.4,0-2.5-1.1-2.5-2.5v-19.9c0-1.4,1.1-2.5,2.5-2.5h4.2c1.4,0,2.5,1.1,2.5,2.5v19.9
			C478.8,233.7,477.7,234.8,476.3,234.8z"/>
	</g>
	<g>
		<path class="st4" d="M494.2,226.2h-10.9c0.4,1.8,1.9,2.9,4.1,2.9c1.5,0,2.6-0.5,3.6-1.4l2.2,2.4c-1.3,1.5-3.4,2.3-6,2.3
			c-5,0-8.2-3.1-8.2-7.4c0-4.3,3.3-7.4,7.7-7.4c4.2,0,7.5,2.8,7.5,7.5C494.3,225.4,494.2,225.9,494.2,226.2z M483.2,223.8h7.1
			c-0.3-1.8-1.7-3-3.5-3C484.9,220.8,483.5,222,483.2,223.8z"/>
		<path class="st4" d="M487.3,235c-6.2,0-10.8-4.2-10.8-10c0-5.7,4.4-10,10.2-10c5.8,0,10,4.2,10,10c0,0.3,0,0.7-0.1,1v0.3
			c-0.1,1-0.7,1.8-1.5,2.1c0.8,1,0.8,2.3-0.1,3.3C493.3,233.9,490.6,235,487.3,235z"/>
	</g>
</g>
<g>
	<g>
		<path class="st5" d="M17.4,228.3H8.6l-1.7,4H2.5l8.4-18.8h4.3l8.4,18.8H19L17.4,228.3z M16,225l-3-7.2l-3,7.2H16z"/>
	</g>
	<g>
		<path class="st5" d="M40,217.9v12c0,5.4-2.9,7.8-8.1,7.8c-2.7,0-5.4-0.7-7.1-2l1.7-3c1.2,1,3.2,1.6,5.1,1.6c2.9,0,4.2-1.3,4.2-3.9
			v-0.6c-1.1,1.2-2.7,1.8-4.6,1.8c-4,0-7.2-2.8-7.2-7s3.2-7,7.2-7c2,0,3.7,0.7,4.8,2.1v-1.8L40,217.9L40,217.9z M35.9,224.6
			c0-2.1-1.6-3.5-3.8-3.5s-3.8,1.4-3.8,3.5s1.6,3.5,3.8,3.5S35.9,226.7,35.9,224.6z"/>
	</g>
	<g>
		<path class="st5" d="M57.9,226.2H47c0.4,1.8,1.9,2.9,4.1,2.9c1.5,0,2.6-0.5,3.6-1.4l2.2,2.4c-1.3,1.5-3.4,2.3-6,2.3
			c-5,0-8.2-3.1-8.2-7.4c0-4.3,3.3-7.4,7.7-7.4c4.2,0,7.5,2.8,7.5,7.5C58,225.4,57.9,225.9,57.9,226.2z M46.9,223.8H54
			c-0.3-1.8-1.7-3-3.5-3C48.6,220.8,47.2,222,46.9,223.8z"/>
	</g>
	<g>
		<path class="st5" d="M75.5,224v8.3h-4.2v-7.6c0-2.3-1.1-3.4-2.9-3.4c-2,0-3.5,1.2-3.5,3.9v7.1h-4.2v-14.4h4v1.7
			c1.1-1.2,2.8-1.9,4.8-1.9C73,217.6,75.5,219.6,75.5,224z"/>
	</g>
	<g>
		<path class="st5" d="M78.4,225.1c0-4.3,3.4-7.4,8-7.4c3,0,5.4,1.3,6.5,3.7l-3.2,1.7c-0.8-1.4-1.9-2-3.2-2c-2.1,0-3.8,1.5-3.8,4
			s1.7,4,3.8,4c1.3,0,2.5-0.6,3.2-2l3.2,1.8c-1,2.3-3.4,3.6-6.5,3.6C81.7,232.5,78.4,229.4,78.4,225.1z"/>
	</g>
	<g>
		<path class="st5" d="M109.2,226.2H98.3c0.4,1.8,1.9,2.9,4.1,2.9c1.5,0,2.6-0.5,3.6-1.4l2.2,2.4c-1.3,1.5-3.4,2.3-6,2.3
			c-5,0-8.2-3.1-8.2-7.4c0-4.3,3.3-7.4,7.7-7.4c4.2,0,7.5,2.8,7.5,7.5C109.2,225.4,109.2,225.9,109.2,226.2z M98.2,223.8h7.1
			c-0.3-1.8-1.7-3-3.5-3C99.9,220.8,98.5,222,98.2,223.8z"/>
	</g>
	<g>
		<path class="st5" d="M134.3,212.4v19.9h-4v-1.7c-1,1.3-2.6,1.9-4.5,1.9c-4.1,0-7.2-2.9-7.2-7.4s3.1-7.4,7.2-7.4
			c1.8,0,3.3,0.6,4.3,1.7v-7H134.3z M130.2,225.1c0-2.5-1.6-4-3.7-4c-2.1,0-3.7,1.5-3.7,4s1.6,4,3.7,4
			C128.6,229.1,130.2,227.6,130.2,225.1z"/>
	</g>
	<g>
		<path class="st5" d="M152.2,226.2h-10.9c0.4,1.8,1.9,2.9,4.1,2.9c1.5,0,2.6-0.5,3.6-1.4l2.2,2.4c-1.3,1.5-3.4,2.3-6,2.3
			c-5,0-8.2-3.1-8.2-7.4c0-4.3,3.3-7.4,7.7-7.4c4.2,0,7.5,2.8,7.5,7.5C152.3,225.4,152.2,225.9,152.2,226.2z M141.2,223.8h7.1
			c-0.3-1.8-1.7-3-3.5-3C142.9,220.8,141.5,222,141.2,223.8z"/>
	</g>
	<g>
		<path class="st5" d="M161.6,225.1c0-4.3,3.4-7.4,8-7.4c3,0,5.4,1.3,6.5,3.7l-3.2,1.7c-0.8-1.4-1.9-2-3.2-2c-2.1,0-3.8,1.5-3.8,4
			s1.7,4,3.8,4c1.3,0,2.5-0.6,3.2-2l3.2,1.8c-1,2.3-3.4,3.6-6.5,3.6C164.9,232.5,161.6,229.4,161.6,225.1z"/>
	</g>
	<g>
		<path class="st5" d="M177.2,225.1c0-4.3,3.4-7.4,7.9-7.4c4.6,0,7.9,3.1,7.9,7.4c0,4.3-3.3,7.4-7.9,7.4
			C180.6,232.5,177.2,229.4,177.2,225.1z M188.9,225.1c0-2.5-1.6-4-3.7-4c-2.1,0-3.7,1.5-3.7,4s1.6,4,3.7,4
			C187.3,229.1,188.9,227.6,188.9,225.1z"/>
	</g>
	<g>
		<path class="st5" d="M220.2,224v8.3H216v-7.6c0-2.3-1-3.4-2.7-3.4c-1.9,0-3.2,1.2-3.2,3.8v7.2H206v-7.6c0-2.3-1-3.4-2.7-3.4
			c-1.8,0-3.2,1.2-3.2,3.8v7.2h-4.2v-14.4h4v1.7c1.1-1.2,2.7-1.9,4.5-1.9c2,0,3.7,0.8,4.7,2.4c1.2-1.5,3-2.4,5.2-2.4
			C217.8,217.6,220.2,219.6,220.2,224z"/>
	</g>
	<g>
		<path class="st5" d="M248.4,224v8.3h-4.2v-7.6c0-2.3-1-3.4-2.7-3.4c-1.9,0-3.2,1.2-3.2,3.8v7.2h-4.2v-7.6c0-2.3-1-3.4-2.7-3.4
			c-1.8,0-3.2,1.2-3.2,3.8v7.2H224v-14.4h4v1.7c1.1-1.2,2.7-1.9,4.5-1.9c2,0,3.7,0.8,4.7,2.4c1.2-1.5,3-2.4,5.2-2.4
			C245.9,217.6,248.4,219.6,248.4,224z"/>
	</g>
	<g>
		<path class="st5" d="M266.6,217.9v14.4h-4v-1.7c-1.1,1.3-2.7,1.9-4.5,1.9c-3.6,0-6.2-2-6.2-6.5v-8.2h4.2v7.5
			c0,2.4,1.1,3.5,2.9,3.5c1.9,0,3.3-1.2,3.3-3.9v-7.1h4.3L266.6,217.9L266.6,217.9z"/>
	</g>
	<g>
		<path class="st5" d="M285.3,224v8.3h-4.2v-7.6c0-2.3-1.1-3.4-2.9-3.4c-2,0-3.5,1.2-3.5,3.9v7.1h-4.2v-14.4h4v1.7
			c1.1-1.2,2.8-1.9,4.8-1.9C282.7,217.6,285.3,219.6,285.3,224z"/>
	</g>
	<g>
		<path class="st5" d="M288.5,213.5c0-1.3,1-2.3,2.6-2.3s2.6,1,2.6,2.3c0,1.4-1,2.4-2.6,2.4S288.5,214.8,288.5,213.5z M289.1,217.9
			h4.2v14.4h-4.2V217.9z"/>
	</g>
	<g>
		<path class="st5" d="M296,225.1c0-4.3,3.4-7.4,8-7.4c3,0,5.4,1.3,6.5,3.7l-3.2,1.7c-0.8-1.4-1.9-2-3.2-2c-2.1,0-3.8,1.5-3.8,4
			s1.7,4,3.8,4c1.3,0,2.5-0.6,3.2-2l3.2,1.8c-1,2.3-3.4,3.6-6.5,3.6C299.4,232.5,296,229.4,296,225.1z"/>
	</g>
	<g>
		<path class="st5" d="M325.7,224v8.2h-3.9v-1.8c-0.8,1.3-2.3,2-4.4,2c-3.4,0-5.4-1.9-5.4-4.4s1.8-4.3,6.2-4.3h3.3
			c0-1.8-1.1-2.8-3.3-2.8c-1.5,0-3.1,0.5-4.2,1.3l-1.5-2.9c1.6-1.1,3.9-1.7,6.2-1.7C323.2,217.6,325.7,219.7,325.7,224z
			 M321.5,227.7v-1.5h-2.9c-2,0-2.6,0.7-2.6,1.7s0.9,1.7,2.4,1.7C319.9,229.7,321.1,229,321.5,227.7z"/>
	</g>
	<g>
		<path class="st5" d="M338.8,231.6c-0.9,0.6-2.1,0.9-3.4,0.9c-3.4,0-5.4-1.7-5.4-5.2v-5.9h-2.2v-3.2h2.2v-3.5h4.2v3.5h3.6v3.2h-3.6
			v5.9c0,1.2,0.7,1.9,1.8,1.9c0.6,0,1.2-0.2,1.7-0.5L338.8,231.6z"/>
	</g>
	<g>
		<path class="st5" d="M340.7,213.5c0-1.3,1-2.3,2.6-2.3s2.6,1,2.6,2.3c0,1.4-1,2.4-2.6,2.4S340.7,214.8,340.7,213.5z M341.2,217.9
			h4.2v14.4h-4.2V217.9z"/>
	</g>
	<g>
		<path class="st5" d="M348.2,225.1c0-4.3,3.4-7.4,7.9-7.4c4.6,0,7.9,3.1,7.9,7.4c0,4.3-3.3,7.4-7.9,7.4S348.2,229.4,348.2,225.1z
			 M359.8,225.1c0-2.5-1.6-4-3.7-4s-3.7,1.5-3.7,4s1.6,4,3.7,4C358.2,229.1,359.8,227.6,359.8,225.1z"/>
	</g>
	<g>
		<path class="st5" d="M381.5,224v8.3h-4.2v-7.6c0-2.3-1.1-3.4-2.9-3.4c-2,0-3.5,1.2-3.5,3.9v7.1h-4.2v-14.4h4v1.7
			c1.1-1.2,2.8-1.9,4.8-1.9C379,217.6,381.5,219.6,381.5,224z"/>
	</g>
	<g>
		<path class="st5" d="M407.8,217.9v12c0,5.4-2.9,7.8-8.1,7.8c-2.7,0-5.4-0.7-7.1-2l1.7-3c1.2,1,3.2,1.6,5.1,1.6
			c2.9,0,4.2-1.3,4.2-3.9v-0.6c-1.1,1.2-2.7,1.8-4.6,1.8c-4,0-7.2-2.8-7.2-7s3.2-7,7.2-7c2,0,3.7,0.7,4.8,2.1v-1.8L407.8,217.9
			L407.8,217.9z M403.6,224.6c0-2.1-1.6-3.5-3.8-3.5c-2.2,0-3.8,1.4-3.8,3.5s1.6,3.5,3.8,3.5C402.1,228.1,403.6,226.7,403.6,224.6z"
			/>
	</g>
	<g>
		<path class="st5" d="M411.7,212.4h4.2v19.9h-4.2V212.4z"/>
	</g>
	<g>
		<path class="st5" d="M418.7,225.1c0-4.3,3.4-7.4,7.9-7.4c4.6,0,7.9,3.1,7.9,7.4c0,4.3-3.3,7.4-7.9,7.4S418.7,229.4,418.7,225.1z
			 M430.3,225.1c0-2.5-1.6-4-3.7-4s-3.7,1.5-3.7,4s1.6,4,3.7,4C428.7,229.1,430.3,227.6,430.3,225.1z"/>
	</g>
	<g>
		<path class="st5" d="M453,225.1c0,4.5-3.1,7.4-7.2,7.4c-1.9,0-3.5-0.6-4.5-1.9v1.7h-4v-19.9h4.2v7c1.1-1.2,2.5-1.7,4.3-1.7
			C449.9,217.6,453,220.5,453,225.1z M448.8,225.1c0-2.5-1.6-4-3.7-4s-3.7,1.5-3.7,4s1.6,4,3.7,4
			C447.2,229.1,448.8,227.6,448.8,225.1z"/>
	</g>
	<g>
		<path class="st5" d="M468.3,224v8.2h-3.9v-1.8c-0.8,1.3-2.3,2-4.4,2c-3.4,0-5.4-1.9-5.4-4.4s1.8-4.3,6.2-4.3h3.3
			c0-1.8-1.1-2.8-3.3-2.8c-1.5,0-3.1,0.5-4.2,1.3l-1.5-2.9c1.6-1.1,3.9-1.7,6.2-1.7C465.8,217.6,468.3,219.7,468.3,224z
			 M464.1,227.7v-1.5h-2.9c-2,0-2.6,0.7-2.6,1.7s0.9,1.7,2.4,1.7C462.4,229.7,463.6,229,464.1,227.7z"/>
	</g>
	<g>
		<path class="st5" d="M472.1,212.4h4.2v19.9h-4.2V212.4z"/>
	</g>
	<g>
		<path class="st5" d="M494.2,226.2h-10.9c0.4,1.8,1.9,2.9,4.1,2.9c1.5,0,2.6-0.5,3.6-1.4l2.2,2.4c-1.3,1.5-3.4,2.3-6,2.3
			c-5,0-8.2-3.1-8.2-7.4c0-4.3,3.3-7.4,7.7-7.4c4.2,0,7.5,2.8,7.5,7.5C494.3,225.4,494.2,225.9,494.2,226.2z M483.2,223.8h7.1
			c-0.3-1.8-1.7-3-3.5-3C484.9,220.8,483.5,222,483.2,223.8z"/>
	</g>
</g>
</svg>
