<svg id="Groupe_2957" data-name="Groupe 2957" xmlns="http://www.w3.org/2000/svg" width="44.796" height="52.601" viewBox="0 0 44.796 52.601">
  <path id="Tracé_4367" data-name="Tracé 4367" d="M88.713,18.874A19.058,19.058,0,0,0,50.973,15.3,15.618,15.618,0,0,1,47.7,22.1l-2.837,3.452a4.144,4.144,0,0,0,3.2,6.775h1.556v7.5a5.662,5.662,0,0,0,5.656,5.656H62.4v5.776a1.333,1.333,0,0,0,2.666,0V44.16a1.333,1.333,0,0,0-1.333-1.333H55.28a2.993,2.993,0,0,1-2.99-2.99V31a1.333,1.333,0,0,0-1.333-1.333H48.068a1.478,1.478,0,0,1-1.142-2.417L49.764,23.8a18.292,18.292,0,0,0,3.824-7.978A16.392,16.392,0,1,1,83.6,27.68a12.514,12.514,0,0,0-1.883,6.6v16.99a1.333,1.333,0,0,0,2.666,0V34.279a9.85,9.85,0,0,1,1.483-5.194,19.007,19.007,0,0,0,2.849-10.212" transform="translate(-43.918 0)" fill="#232853"/>
  <path id="Tracé_4368" data-name="Tracé 4368" d="M268.022,142.119A7.089,7.089,0,0,0,261,135.038h-.08a7.089,7.089,0,0,0-7.025,7.081,6.668,6.668,0,0,0,1.593,4.423,4.9,4.9,0,0,1,1.212,2.88v4.285a1.333,1.333,0,0,0,.76,1.2l.616.294a6.5,6.5,0,0,0,1.566.511v18.591a1.333,1.333,0,0,0,2.666,0v-18.6h0a6.5,6.5,0,0,0,1.535-.5l.616-.294a1.332,1.332,0,0,0,.759-1.2v-4.285a4.907,4.907,0,0,1,1.213-2.88,6.668,6.668,0,0,0,1.593-4.423m-8.658,10.744v-1.824h3.186v1.824a4.215,4.215,0,0,1-3.186,0m4.923-7.908a7.633,7.633,0,0,0-1.617,3.418h-3.425a7.643,7.643,0,0,0-1.617-3.418,4.117,4.117,0,0,1-1.069-2.836,4.4,4.4,0,1,1,8.8,0,4.117,4.117,0,0,1-1.069,2.836" transform="translate(-235.233 -123.038)" fill="#232853"/>
  <path id="Tracé_4369" data-name="Tracé 4369" d="M321.233,64.277V61.043a1.333,1.333,0,1,0-2.666,0v3.234a1.333,1.333,0,1,0,2.666,0" transform="translate(-294.16 -54.404)" fill="#232853"/>
  <path id="Tracé_4370" data-name="Tracé 4370" d="M174.846,204.765a1.333,1.333,0,0,0,1.333,1.333h3.234a1.333,1.333,0,1,0,0-2.666h-3.234a1.333,1.333,0,0,0-1.333,1.333" transform="translate(-163.211 -185.354)" fill="#232853"/>
  <path id="Tracé_4371" data-name="Tracé 4371" d="M425.9,204.765a1.333,1.333,0,0,0,1.333,1.333h3.234a1.333,1.333,0,0,0,0-2.666H427.23a1.333,1.333,0,0,0-1.333,1.333" transform="translate(-391.952 -185.354)" fill="#232853"/>
  <path id="Tracé_4372" data-name="Tracé 4372" d="M218.274,284.277a1.329,1.329,0,0,0,.943-.39L221.5,281.6a1.333,1.333,0,0,0-1.885-1.885L217.332,282a1.333,1.333,0,0,0,.943,2.275" transform="translate(-201.566 -254.502)" fill="#232853"/>
  <path id="Tracé_4373" data-name="Tracé 4373" d="M397.138,102.2l-2.287,2.287a1.333,1.333,0,0,0,1.885,1.885l2.287-2.287a1.333,1.333,0,0,0-1.885-1.885" transform="translate(-363.309 -92.759)" fill="#232853"/>
  <path id="Tracé_4374" data-name="Tracé 4374" d="M220.56,106.758a1.333,1.333,0,0,0,.943-2.275l-2.287-2.287a1.333,1.333,0,1,0-1.885,1.885l2.287,2.287a1.328,1.328,0,0,0,.943.39" transform="translate(-201.565 -92.758)" fill="#232853"/>
  <path id="Tracé_4375" data-name="Tracé 4375" d="M396.734,279.713a1.333,1.333,0,0,0-1.885,1.885l2.287,2.287A1.333,1.333,0,0,0,399.021,282Z" transform="translate(-363.308 -254.5)" fill="#232853"/>
</svg>
