<svg id="Groupe_3334" data-name="Groupe 3334" xmlns="http://www.w3.org/2000/svg" xmlns:xlink="http://www.w3.org/1999/xlink" width="130" height="85" viewBox="0 0 92.982 65.509">
  <defs>
    <clipPath id="clip-path">
      <rect id="Rectangle_666" data-name="Rectangle 666" width="92.982" height="65.509" fill="none"/>
    </clipPath>
  </defs>
  <g id="Groupe_3333" data-name="Groupe 3333" clip-path="url(#clip-path)">
    <path id="Tracé_5724" data-name="Tracé 5724" d="M245.911,263.5q1.843-.061,3.687,0a2.986,2.986,0,0,1,2.356,1.375,3.291,3.291,0,0,1,.346,2.284,2.821,2.821,0,0,1-1.306,1.826c-1.112.688-2.452.371-3.682.449-.115,1.294-.009,2.6-.048,3.9a7.821,7.821,0,0,1-1.363,0c0-3.277-.018-6.554.009-9.831m1.413,1.368a20.943,20.943,0,0,0-.021,3.194,20.105,20.105,0,0,0,2.567-.037,1.7,1.7,0,0,0,.518-2.834c-.907-.582-2.052-.247-3.063-.323m19.143,1.278a9.325,9.325,0,0,1,.081-1.831c.442-.011.884-.007,1.327.021.039.6,0,1.2.041,1.794.46.246,1.064.058,1.582.134a12.6,12.6,0,0,1,.007,1.264c-.535.025-1.071.035-1.6.108-.007,1.274-.014,2.551,0,3.827a.746.746,0,0,0,.495.8,9.2,9.2,0,0,0,1.186-.051,3.592,3.592,0,0,1-.11,1.287,5.7,5.7,0,0,1-1.923-.055,1.83,1.83,0,0,1-1.036-1.372c-.14-1.471.041-2.952-.092-4.423-.407-.065-.813-.124-1.218-.182,0-.4.005-.79.03-1.182a5.1,5.1,0,0,0,1.227-.143m-12.979,1.391a3.4,3.4,0,0,1,5.686,0,5.268,5.268,0,0,1,.254,2.172c-.023,1.213.03,2.427-.025,3.639a7.44,7.44,0,0,1-1.069-.011c-.115-.166-.226-.331-.341-.493a3.28,3.28,0,0,1-2.747.723,2.417,2.417,0,0,1-1.9-3.221,2.849,2.849,0,0,1,2.6-1.6,15.749,15.749,0,0,1,2.186.242,1.66,1.66,0,0,0-1.644-1.632,2.364,2.364,0,0,0-2.034.909,4.091,4.091,0,0,1-.969-.727m1.147,3.76a1.347,1.347,0,0,0,1.494,1.073,2.1,2.1,0,0,0,1.935-1.955,2.743,2.743,0,0,0-2.095-.472,1.34,1.34,0,0,0-1.335,1.354m17.427-4.477a3.464,3.464,0,0,1,2.1-.794,2.493,2.493,0,0,1,2.609,2.43c.018,1.621.007,3.244.007,4.866a6.93,6.93,0,0,1-1.366.011c-.058-1.61.085-3.229-.074-4.834-.079-1.032-1.352-1.352-2.179-1.034a2.043,2.043,0,0,0-1.142,1.879c-.03,1.326.016,2.653-.007,3.981a7.245,7.245,0,0,1-1.411.005q-.042-3.529,0-7.056a5.08,5.08,0,0,1,1.29.021c.042.131.129.394.173.525m7.194-.136a3.474,3.474,0,0,1,4.58.421,3.918,3.918,0,0,1,.852,3.017c-1.8.057-3.594-.009-5.389.026a2.093,2.093,0,0,0,2.445,2.16c.74-.016,1.181-.663,1.677-1.112.428-.051.785.272,1.156.436a3.512,3.512,0,0,1-4.762,1.644c-2.482-1.124-2.674-5.015-.559-6.593m.03,2.261q1.952.077,3.9,0a1.811,1.811,0,0,0-1.96-1.591,2.114,2.114,0,0,0-1.944,1.589m9.1-2.821a3.133,3.133,0,0,1,1.555.009,12.867,12.867,0,0,1,.043,1.434,5.15,5.15,0,0,0-1.563-.034,1.9,1.9,0,0,0-1.211,1.814c-.03,1.32.016,2.643-.007,3.965a5.79,5.79,0,0,1-1.4.018q-.043-3.526,0-7.053a9.884,9.884,0,0,1,1.1-.03c.117.178.24.354.369.527a12.1,12.1,0,0,1,1.114-.649m-26.418.847a3.493,3.493,0,0,1,1.6-.735,8.073,8.073,0,0,1,.97.016c.025.431.027.866.014,1.3-.62.1-1.349-.051-1.854.407a1.85,1.85,0,0,0-.663,1.228c-.053,1.434.03,2.869-.03,4.3a9.72,9.72,0,0,1-1.344.016c-.037-2.358-.03-4.719,0-7.077a4.857,4.857,0,0,1,1.167.03c.037.129.109.385.147.513" transform="translate(-197.025 -211.109)" fill="#606469"/>
    <path id="Tracé_5725" data-name="Tracé 5725" d="M245.911,263.5q1.843-.061,3.687,0a2.986,2.986,0,0,1,2.356,1.375,3.291,3.291,0,0,1,.346,2.284,2.821,2.821,0,0,1-1.306,1.826c-1.112.688-2.452.371-3.682.449-.115,1.294-.009,2.6-.048,3.9a7.821,7.821,0,0,1-1.363,0c0-3.277-.018-6.554.009-9.831m1.413,1.368a20.943,20.943,0,0,0-.021,3.194,20.105,20.105,0,0,0,2.567-.037,1.7,1.7,0,0,0,.518-2.834c-.907-.582-2.052-.247-3.063-.323m19.143,1.278a9.325,9.325,0,0,1,.081-1.831c.442-.011.884-.007,1.327.021.039.6,0,1.2.041,1.794.46.246,1.064.058,1.582.134a12.6,12.6,0,0,1,.007,1.264c-.535.025-1.071.035-1.6.108-.007,1.274-.014,2.551,0,3.827a.746.746,0,0,0,.495.8,9.2,9.2,0,0,0,1.186-.051,3.592,3.592,0,0,1-.11,1.287,5.7,5.7,0,0,1-1.923-.055,1.83,1.83,0,0,1-1.036-1.372c-.14-1.471.041-2.952-.092-4.423-.407-.065-.813-.124-1.218-.182,0-.4.005-.79.03-1.182a5.1,5.1,0,0,0,1.227-.143m-12.979,1.391a3.4,3.4,0,0,1,5.686,0,5.268,5.268,0,0,1,.254,2.172c-.023,1.213.03,2.427-.025,3.639a7.44,7.44,0,0,1-1.069-.011c-.115-.166-.226-.331-.341-.493a3.28,3.28,0,0,1-2.747.723,2.417,2.417,0,0,1-1.9-3.221,2.849,2.849,0,0,1,2.6-1.6,15.749,15.749,0,0,1,2.186.242,1.66,1.66,0,0,0-1.644-1.632,2.364,2.364,0,0,0-2.034.909,4.091,4.091,0,0,1-.969-.727m1.147,3.76a1.347,1.347,0,0,0,1.494,1.073,2.1,2.1,0,0,0,1.935-1.955,2.743,2.743,0,0,0-2.095-.472,1.34,1.34,0,0,0-1.335,1.354m17.427-4.477a3.464,3.464,0,0,1,2.1-.794,2.493,2.493,0,0,1,2.609,2.43c.018,1.621.007,3.244.007,4.866a6.93,6.93,0,0,1-1.366.011c-.058-1.61.085-3.229-.074-4.834-.079-1.032-1.352-1.352-2.179-1.034a2.043,2.043,0,0,0-1.142,1.879c-.03,1.326.016,2.653-.007,3.981a7.245,7.245,0,0,1-1.411.005q-.042-3.529,0-7.056a5.08,5.08,0,0,1,1.29.021c.042.131.129.394.173.525m7.194-.136a3.474,3.474,0,0,1,4.58.421,3.918,3.918,0,0,1,.852,3.017c-1.8.057-3.594-.009-5.389.026a2.093,2.093,0,0,0,2.445,2.16c.74-.016,1.181-.663,1.677-1.112.428-.051.785.272,1.156.436a3.512,3.512,0,0,1-4.762,1.644c-2.482-1.124-2.674-5.015-.559-6.593m.03,2.261q1.952.077,3.9,0a1.811,1.811,0,0,0-1.96-1.591,2.114,2.114,0,0,0-1.944,1.589m9.1-2.821a3.133,3.133,0,0,1,1.555.009,12.867,12.867,0,0,1,.043,1.434,5.15,5.15,0,0,0-1.563-.034,1.9,1.9,0,0,0-1.211,1.814c-.03,1.32.016,2.643-.007,3.965a5.79,5.79,0,0,1-1.4.018q-.043-3.526,0-7.053a9.884,9.884,0,0,1,1.1-.03c.117.178.24.354.369.527a12.1,12.1,0,0,1,1.114-.649m-26.418.847a3.493,3.493,0,0,1,1.6-.735,8.073,8.073,0,0,1,.97.016c.025.431.027.866.014,1.3-.62.1-1.349-.051-1.854.407a1.85,1.85,0,0,0-.663,1.228c-.053,1.434.03,2.869-.03,4.3a9.72,9.72,0,0,1-1.344.016c-.037-2.358-.03-4.719,0-7.077a4.857,4.857,0,0,1,1.167.03C261.852,266.59,261.925,266.846,261.962,266.974Z" transform="translate(-197.025 -211.109)" fill="none" stroke="#5f6368" stroke-miterlimit="10" stroke-width="0.25"/>
    <path id="Tracé_5726" data-name="Tracé 5726" d="M147.12,6a20.184,20.184,0,0,1,24.734-3.15A15.064,15.064,0,0,1,175.121,5.4c-.889,1.041-1.93,1.941-2.872,2.932-1,.965-1.939,2-2.973,2.934a10.961,10.961,0,0,0-5.808-2.872,12.064,12.064,0,0,0-6.744.87,12.422,12.422,0,0,0-5.541,5.027,25.424,25.424,0,0,0-1.094,2.328c-2.307-1.7-4.52-3.517-6.805-5.244A17.764,17.764,0,0,1,147.12,6" transform="translate(-114.806 0)" fill="#ea4335"/>
    <path id="Tracé_5727" data-name="Tracé 5727" d="M134.587,57.223c2.285,1.727,4.5,3.546,6.805,5.244a13.134,13.134,0,0,0-.543,5.05c.1.937.376,1.84.544,2.765-1.8,1.419-3.625,2.8-5.409,4.242a9.535,9.535,0,0,1-1.448.94,19.359,19.359,0,0,1-2.08-7.961,21.4,21.4,0,0,1,.375-5.425,18.353,18.353,0,0,1,1.755-4.856" transform="translate(-106.109 -45.85)" fill="#fbbc04"/>
    <path id="Tracé_5728" data-name="Tracé 5728" d="M235.436,84.341q8.41,0,16.82,0a13.643,13.643,0,0,1,2.149.064,21.176,21.176,0,0,1-4.159,17.655,5.751,5.751,0,0,1-1.476,1.441c-2.24-1.646-4.38-3.419-6.6-5.1a9.054,9.054,0,0,0,3.7-6.095c-3.5-.064-7,.023-10.494-.041-.1-2.07-.007-4.145-.042-6.218a6.145,6.145,0,0,1,.1-1.709" transform="translate(-188.554 -67.57)" fill="#4284f4"/>
    <path id="Tracé_5729" data-name="Tracé 5729" d="M144.482,127.171c1.784-1.441,3.611-2.823,5.409-4.242.444.822.721,1.727,1.237,2.51a12.357,12.357,0,0,0,7.24,5.46,14.466,14.466,0,0,0,6.384-.039,14.922,14.922,0,0,0,3.473-1.529c2.216,1.677,4.357,3.45,6.6,5.1a8.994,8.994,0,0,1-1.98,1.674,20.722,20.722,0,0,1-11.5,3.4,20.942,20.942,0,0,1-11.512-3.578,20.432,20.432,0,0,1-6.793-7.814,9.525,9.525,0,0,0,1.448-.94" transform="translate(-114.606 -98.497)" fill="#34a853"/>
    <path id="Tracé_5730" data-name="Tracé 5730" d="M2.607,263.429a5.453,5.453,0,0,1,5.174-.6,2.928,2.928,0,0,1,1.568,1.265,9.519,9.519,0,0,1-.907.882,5.16,5.16,0,0,0-1.577-1.015A3.813,3.813,0,0,0,2.7,265.274a4.091,4.091,0,0,0-.645,3.293,3.733,3.733,0,0,0,3.9,2.885,3.151,3.151,0,0,0,3.164-2.961c-1.151-.085-2.3.007-3.455-.046a1.8,1.8,0,0,1-.088-1.154c1.615-.163,3.254-.051,4.878-.058a4.847,4.847,0,0,1-1.144,4.118,5.207,5.207,0,0,1-6.964.26,5.237,5.237,0,0,1,.265-8.182m33.3-.707a5.94,5.94,0,0,1,1.395-.055c.062,3.259.012,6.521.025,9.782a3.587,3.587,0,0,1-1.407.062c-.035-3.263-.012-6.526-.012-9.789M14.149,265.3a3.771,3.771,0,0,1,3,.523,3.928,3.928,0,0,1,1.076,5.227,3.7,3.7,0,0,1-3.27,1.792,3.987,3.987,0,0,1-2.39-1.024,3.993,3.993,0,0,1-.97-3.984,3.579,3.579,0,0,1,2.552-2.535m.17,1.352a2.207,2.207,0,0,0-1.43,1.976,2.592,2.592,0,0,0,.822,2.395,2.24,2.24,0,0,0,3.518-1.092,2.829,2.829,0,0,0-.567-2.74,2.194,2.194,0,0,0-2.342-.539m7.8-1.331a3.8,3.8,0,0,1,2.8.329,3.925,3.925,0,0,1,1.232,5.587,3.72,3.72,0,0,1-3.062,1.61,3.769,3.769,0,0,1-2.934-1.555,4.085,4.085,0,0,1-.628-2.934,3.685,3.685,0,0,1,2.588-3.037m.32,1.312c-1.863.573-2.1,3.443-.551,4.5a2.189,2.189,0,0,0,2.623-.117,2.717,2.717,0,0,0,.254-3.8,2.268,2.268,0,0,0-2.326-.578m5.232,1.181a3.355,3.355,0,0,1,3.38-2.6,3.648,3.648,0,0,1,2.026.817c.062-.2.125-.393.187-.587a9.981,9.981,0,0,1,1.241,0c.046,2.271.005,4.546.019,6.819a3.359,3.359,0,0,1-1.414,2.932,4.424,4.424,0,0,1-2.909.449,2.906,2.906,0,0,1-2.346-1.971,1.567,1.567,0,0,1,1.163-.49,4.954,4.954,0,0,0,1.2,1.112,2.182,2.182,0,0,0,2.644-.739,2.836,2.836,0,0,0,.306-1.616,3.944,3.944,0,0,1-2.483.894,3.42,3.42,0,0,1-2.413-1.343,4.375,4.375,0,0,1-.6-3.671m2.563-1.137a2.778,2.778,0,0,0-.659,4.221,2.081,2.081,0,0,0,2.455.366,2.771,2.771,0,0,0,.06-4.47,2.242,2.242,0,0,0-1.856-.117m9.264-.468a3.173,3.173,0,0,1,2.513-1,3.3,3.3,0,0,1,2.867,1.67,4.5,4.5,0,0,1,.415,2.355c-1.771.217-3.576.007-5.359.1a2.1,2.1,0,0,0,2.561,2.132c.728-.074,1.137-.721,1.573-1.223.373.155.737.331,1.1.505a3,3,0,0,1-2.277,1.973,3.727,3.727,0,0,1-3.065-.608,4.18,4.18,0,0,1-1.435-3.047,4.322,4.322,0,0,1,1.1-2.854m1.543.495a2.049,2.049,0,0,0-1.077,1.442c1.29.014,2.583.023,3.873-.009a2.368,2.368,0,0,0-.606-1.181,2.2,2.2,0,0,0-2.19-.253" transform="translate(-0.401 -210.284)" fill="#606469"/>
    <path id="Tracé_5731" data-name="Tracé 5731" d="M2.607,263.429a5.453,5.453,0,0,1,5.174-.6,2.928,2.928,0,0,1,1.568,1.265,9.519,9.519,0,0,1-.907.882,5.16,5.16,0,0,0-1.577-1.015A3.813,3.813,0,0,0,2.7,265.274a4.091,4.091,0,0,0-.645,3.293,3.733,3.733,0,0,0,3.9,2.885,3.151,3.151,0,0,0,3.164-2.961c-1.151-.085-2.3.007-3.455-.046a1.8,1.8,0,0,1-.088-1.154c1.615-.163,3.254-.051,4.878-.058a4.847,4.847,0,0,1-1.144,4.118,5.207,5.207,0,0,1-6.964.26,5.237,5.237,0,0,1,.265-8.182m33.3-.707a5.94,5.94,0,0,1,1.395-.055c.062,3.259.012,6.521.025,9.782a3.587,3.587,0,0,1-1.407.062c-.035-3.263-.012-6.526-.012-9.789M14.149,265.3a3.771,3.771,0,0,1,3,.523,3.928,3.928,0,0,1,1.076,5.227,3.7,3.7,0,0,1-3.27,1.792,3.987,3.987,0,0,1-2.39-1.024,3.993,3.993,0,0,1-.97-3.984,3.579,3.579,0,0,1,2.552-2.535m.17,1.352a2.207,2.207,0,0,0-1.43,1.976,2.592,2.592,0,0,0,.822,2.395,2.24,2.24,0,0,0,3.518-1.092,2.829,2.829,0,0,0-.567-2.74,2.194,2.194,0,0,0-2.342-.539m7.8-1.331a3.8,3.8,0,0,1,2.8.329,3.925,3.925,0,0,1,1.232,5.587,3.72,3.72,0,0,1-3.062,1.61,3.769,3.769,0,0,1-2.934-1.555,4.085,4.085,0,0,1-.628-2.934,3.685,3.685,0,0,1,2.588-3.037m.32,1.312c-1.863.573-2.1,3.443-.551,4.5a2.189,2.189,0,0,0,2.623-.117,2.717,2.717,0,0,0,.254-3.8,2.268,2.268,0,0,0-2.326-.578m5.232,1.181a3.355,3.355,0,0,1,3.38-2.6,3.648,3.648,0,0,1,2.026.817c.062-.2.125-.393.187-.587a9.981,9.981,0,0,1,1.241,0c.046,2.271.005,4.546.019,6.819a3.359,3.359,0,0,1-1.414,2.932,4.424,4.424,0,0,1-2.909.449,2.906,2.906,0,0,1-2.346-1.971,1.567,1.567,0,0,1,1.163-.49,4.954,4.954,0,0,0,1.2,1.112,2.182,2.182,0,0,0,2.644-.739,2.836,2.836,0,0,0,.306-1.616,3.944,3.944,0,0,1-2.483.894,3.42,3.42,0,0,1-2.413-1.343,4.375,4.375,0,0,1-.6-3.671m2.563-1.137a2.778,2.778,0,0,0-.659,4.221,2.081,2.081,0,0,0,2.455.366,2.771,2.771,0,0,0,.06-4.47,2.242,2.242,0,0,0-1.856-.117m9.264-.468a3.173,3.173,0,0,1,2.513-1,3.3,3.3,0,0,1,2.867,1.67,4.5,4.5,0,0,1,.415,2.355c-1.771.217-3.576.007-5.359.1a2.1,2.1,0,0,0,2.561,2.132c.728-.074,1.137-.721,1.573-1.223.373.155.737.331,1.1.505a3,3,0,0,1-2.277,1.973,3.727,3.727,0,0,1-3.065-.608,4.18,4.18,0,0,1-1.435-3.047,4.322,4.322,0,0,1,1.1-2.854m1.543.495a2.049,2.049,0,0,0-1.077,1.442c1.29.014,2.583.023,3.873-.009a2.368,2.368,0,0,0-.606-1.181,2.2,2.2,0,0,0-2.19-.253" transform="translate(-0.401 -210.284)" fill="none" stroke="#5f6368" stroke-miterlimit="10" stroke-width="1"/>
  </g>
</svg>
