<svg id="Groupe_3323" data-name="Groupe 3323" xmlns="http://www.w3.org/2000/svg" xmlns:xlink="http://www.w3.org/1999/xlink" width="160" height="60" viewBox="0 0 123.427 51.359">
  <defs>
    <clipPath id="clip-path">
      <rect id="Rectangle_660" data-name="Rectangle 660" width="123.427" height="51.359" fill="none"/>
    </clipPath>
  </defs>
  <g id="Groupe_3322" data-name="Groupe 3322" transform="translate(0)" clip-path="url(#clip-path)">
    <path id="Tracé_5650" data-name="Tracé 5650" d="M311.174,47.3c0-8.777-4.251-15.7-12.377-15.7-8.16,0-13.1,6.926-13.1,15.634,0,10.32,5.829,15.531,14.194,15.531a19.117,19.117,0,0,0,9.5-2.229V53.68a18.206,18.206,0,0,1-8.4,1.886c-3.326,0-6.274-1.166-6.651-5.211h16.766c0-.446.069-2.229.069-3.051m-16.937-3.257c0-3.874,2.366-5.486,4.526-5.486,2.091,0,4.32,1.611,4.32,5.486Z" transform="translate(-187.747 -20.766)" fill="#635bff" fill-rule="evenodd"/>
    <path id="Tracé_5651" data-name="Tracé 5651" d="M218.908,31.6a9.686,9.686,0,0,0-6.72,2.674l-.446-2.126H204.2V72.125l8.571-1.817.034-9.7a9.655,9.655,0,0,0,6.068,2.16c6.137,0,11.726-4.937,11.726-15.806-.034-9.943-5.691-15.36-11.691-15.36m-2.057,23.623a5.125,5.125,0,0,1-4.046-1.611l-.034-12.72a5.1,5.1,0,0,1,4.08-1.68c3.12,0,5.28,3.5,5.28,7.988,0,4.594-2.126,8.023-5.28,8.023" transform="translate(-134.189 -20.766)" fill="#635bff" fill-rule="evenodd"/>
    <path id="Tracé_5652" data-name="Tracé 5652" d="M169.8,8.811l8.606-1.851V0L169.8,1.817Z" transform="translate(-111.584 0)" fill="#635bff" fill-rule="evenodd"/>
    <rect id="Rectangle_659" data-name="Rectangle 659" width="8.606" height="30" transform="translate(58.216 11.417)" fill="#635bff"/>
    <path id="Tracé_5653" data-name="Tracé 5653" d="M127.654,35.158l-.549-2.537H119.7v30h8.571V42.289c2.023-2.64,5.451-2.16,6.514-1.783V32.621c-1.1-.411-5.108-1.166-7.131,2.537" transform="translate(-78.66 -21.204)" fill="#635bff" fill-rule="evenodd"/>
    <path id="Tracé_5654" data-name="Tracé 5654" d="M76.8,11.6l-8.366,1.783L68.4,40.845a8.615,8.615,0,0,0,8.88,8.811,13.242,13.242,0,0,0,6-1.131v-6.96c-1.1.446-6.514,2.023-6.514-3.051V26.343H83.28v-7.3H76.766Z" transform="translate(-44.949 -7.623)" fill="#635bff" fill-rule="evenodd"/>
    <path id="Tracé_5655" data-name="Tracé 5655" d="M8.674,40.891c0-1.337,1.1-1.851,2.914-1.851a19.123,19.123,0,0,1,8.5,2.194V33.177a22.61,22.61,0,0,0-8.5-1.577C4.629,31.6,0,35.234,0,41.3c0,9.463,13.028,7.954,13.028,12.034,0,1.577-1.371,2.091-3.291,2.091a21.341,21.341,0,0,1-9.36-2.743v8.16A23.767,23.767,0,0,0,9.737,62.8c7.131,0,12.034-3.531,12.034-9.668-.034-10.217-13.1-8.4-13.1-12.24" transform="translate(0 -20.766)" fill="#635bff" fill-rule="evenodd"/>
  </g>
</svg>
