<?xml version="1.0" standalone="no"?>
<!DOCTYPE svg PUBLIC "-//W3C//DTD SVG 20010904//EN"
 "http://www.w3.org/TR/2001/REC-SVG-20010904/DTD/svg10.dtd">
<svg version="1.0" xmlns="http://www.w3.org/2000/svg"
 width="800.000000pt" height="800.000000pt" viewBox="0 0 800.000000 800.000000"
 preserveAspectRatio="xMidYMid meet">
<metadata>
Created by potrace 1.11, written by Peter Selinger 2001-2013
</metadata>
<g transform="translate(0.000000,800.000000) scale(0.100000,-0.100000)"
fill="#000000" stroke="none">
<path d="M4060 7993 c-944 -70 -1785 -529 -2336 -1275 -292 -395 -484 -877
-548 -1376 l-13 -103 -90 -92 c-246 -251 -338 -543 -289 -917 64 -484 314
-908 687 -1166 40 -27 49 -42 98 -160 73 -173 222 -469 319 -630 493 -821
1145 -1439 1932 -1833 467 -233 942 -372 1462 -426 189 -19 203 -19 281 5 158
49 264 220 237 383 -14 87 -47 142 -152 254 -162 172 -261 317 -368 538 -101
209 -184 469 -225 700 -9 50 -18 100 -20 112 -4 19 6 25 108 58 815 269 1461
859 1811 1655 186 424 271 827 270 1290 -1 487 -93 894 -299 1315 -419 857
-1243 1476 -2167 1629 -243 40 -493 54 -698 39z m-1928 -2720 c119 -41 220
-107 310 -201 136 -142 206 -302 216 -489 20 -393 -221 -738 -580 -830 l-70
-18 5 -70 c13 -149 89 -343 177 -449 22 -27 39 -51 36 -53 -2 -3 -40 1 -83 7
-380 58 -722 321 -915 703 -53 106 -113 290 -132 406 -20 120 -21 335 -1 419
58 244 237 450 480 552 118 49 183 60 335 56 120 -2 145 -6 222 -33z"/>
<path d="M1247 4733 c-17 -27 -38 -130 -43 -207 -10 -135 14 -290 66 -429 23
-60 96 -177 111 -177 14 0 10 40 -12 110 -59 188 -84 401 -69 574 10 115 5
136 -31 136 -10 0 -20 -3 -22 -7z"/>
</g>
</svg>
