<svg xmlns="http://www.w3.org/2000/svg" viewBox="0 0 470.01 138.65"><title>Fichier 1</title><g id="Calque_2" data-name="Calque 2"><g id="Calque_1-2" data-name="Calque 1"><rect y="0.85" width="470.01" height="136.95" style="fill:#402020"/><path d="M128,28.7c-20.29,0-36.78,13.67-36.78,30.51S107.71,89.7,128,89.7,164.8,76,164.8,59.21,148.37,28.7,128,28.7ZM128,88c-14.09,0-25.59-12.91-25.59-28.83S113.91,30.34,128,30.34s25.63,12.94,25.63,28.87S142.19,88,128,88ZM200.39,57c-7.09-3.06-13.92-6.2-14.12-12.58a2.72,2.72,0,0,1,0-.28c0-4.27,3.65-7.63,8.27-7.68h.06a14.87,14.87,0,0,1,14.29,10.93l.09.34h2v-.43l.21-10.86-.24-.13c-3.64-1.78-10.94-2.2-14.92-2.2h0a31.75,31.75,0,0,0-13.28,2.66c-4.08,1.94-7.21,5.21-7.21,10.18v.48c.32,6.85,7.44,9.66,14.26,12.53s13.53,5.93,13.78,12.55v.35c0,5-4.15,7.3-9.65,7.33h0c-10,0-15-6.12-17-12.89l-.09-.28-2.21,0,1.89,12.78.18.11C180.76,82.3,188,83,192.73,83.12h.89c4.41,0,9.7-.56,14-2.4s7.46-5,7.46-10.24a4.1,4.1,0,0,0,0-.5C214.75,63,207.46,60,200.39,57Zm53.87,0c-7.09-3.06-13.9-6.2-14.11-12.56v-.3c0-4.27,3.63-7.63,8.25-7.68h0a14.78,14.78,0,0,1,14.24,10.93l.09.32h2v-.41L265,36.41l-.24-.13c-3.63-1.78-10.85-2.23-14.84-2.23h0a32.19,32.19,0,0,0-13.27,2.69c-4.16,1.94-7.29,5.21-7.28,10.18v.48c.3,6.85,7.5,9.66,14.32,12.53s13.54,5.93,13.76,12.55v.35c0,5-4.12,7.3-9.63,7.33h0c-10,0-15.09-6.12-17.1-12.89l-.08-.28-2.2,0,1.87,12.78.19.11c4.14,2.47,11.41,3.19,16.17,3.28h.92c4.39,0,9.68-.56,13.91-2.4s7.55-5,7.53-10.24c0-.16,0-.34,0-.5C268.62,63,261.27,60,254.26,57Zm26.39-20.43.37,0c4,.56,5.87,1.08,6.75,2.16s1,3,1.09,6.59V72.41c-.08,3.6-.19,5.54-1.09,6.6S285,80.61,281,81.15l-.37.07V83h26V81.22l-.36-.07c-4-.54-5.89-1.07-6.81-2.14s-1-3-1.12-6.6V45.3c.07-3.58.18-5.52,1.12-6.57s2.83-1.6,6.81-2.16l.36,0V34.65h-26Zm-240.54,0,.35,0c4.07.56,6,1.08,6.85,2.16s1,3,1.09,6.59V72.41C48.32,76,48.21,78,47.31,79s-2.78,1.59-6.85,2.14l-.35.07V83H68.23V81.22l-.36-.07c-4.61-.72-7-1.18-8-2.23s-1.19-2.77-1.17-6.51V59.8H64c1.58,0,3-.11,4.16-.11,3,.09,4.48.42,5,5.37l0,.41h1.8V51.28h-1.8l0,.4c-.22,2.72-.92,4-1.94,4.74s-2.56.86-4.55.85H58.69V37.22h9.36c1.39,0,2.68-.06,3.86-.06,2.41,0,4.35.22,5.63,1.37s2.16,3.39,2.33,7.62l0,.4h1.79l1.14-11.9H40.11Zm322.47,33.2c-3.32,7.35-3.95,10.71-15.87,10.78-4.84,0-7-.91-8-2.12-.67-1-.78-2.8-.76-6V59.8h5.3c1.58,0,3-.1,4.16-.1,3,.08,4.48.42,4.94,5.37l0,.4h1.8V51.29h-1.8l0,.39c-.21,2.72-.9,4-1.92,4.74s-2.57.87-4.55.85H338V37.22h9.37c1.38,0,2.68-.06,3.84-.06,2.41,0,4.27.22,5.57,1.39s2.14,3.37,2.31,7.6l0,.39h1.79L362,34.65H319.4v1.89l.34,0c4,.56,5.89,1.08,6.74,2.16s1,3,1.12,6.59V72.41c-.1,3.6-.2,5.54-1.12,6.6s-2.76,1.6-6.74,2.14l-.34.07V83h41.24l.09-.29,4.07-13.27h-2.11Z" style="fill:#fbdbe9"/><path d="M445.45,92.53a11,11,0,0,1-2.16.21c-8.82,0-15-11.38-19.2-17.63-5.63-8.39-9.66-12.93-15.75-14.87.57-.14,1.13-.29,1.67-.46a22.19,22.19,0,0,0,6.34-3.12,14.14,14.14,0,0,0,3.91-4.28,9.37,9.37,0,0,0,1.35-4.66,11.23,11.23,0,0,0-5-9.48q-5-3.68-15.1-3.67h-5.79l-7.33.15-13.46.37V36.9l.39,0c3.73.33,5.6.59,6.48,1.79s1.15,3.59,1.15,8.44V72.41c-.09,3.6-.22,5.52-1.14,6.6s-2.88,1.6-7,2.14l-.37.07V83H403.1V81.22l-.38-.07c-4.68-.65-7.1-1.07-8.1-2.08s-1.13-2.8-1.11-6.66V61c9.47,0,16.19,6.55,22.72,14.81S428,94.65,441.12,94.65a13.49,13.49,0,0,0,4.68-.88Zm-51.9-55.74,0,0h5.1a21,21,0,0,1,6.75.93,11.72,11.72,0,0,1,4.34,2.53,8.9,8.9,0,0,1,2.31,3.68,14.51,14.51,0,0,1,.68,4.49q0,5.74-3.66,8.14t-10.42,2.41h-5.12Z" style="fill:#fbdbe9"/><path d="M94.8,103c-.12-.3-1.68-3.68-1.8-3.68a14,14,0,0,0-.14,2.92v5.29c0,.38.67.57,1.16.65.78.14,1.07.14,1.07.39s-.27.23-.54.23c-.65,0-1.45-.07-2.17-.07s-1.49.07-2.17.07c-.18,0-.4,0-.4-.25s.24-.33.67-.37c.76-.08,1.23-.37,1.25-.66L92.38,99c0-.2,0-.33,0-.88s-.17-.47-1.24-.76c-.59-.16-.89-.16-.89-.38s0-.24.49-.24l1.33,0,1.53,0a.35.35,0,0,1,.33.16l3.87,8.43a.14.14,0,0,0,.14.1.15.15,0,0,0,.13-.12l3.47-7.84c.09-.23.27-.73.56-.73l1.55,0,1.6,0a.29.29,0,0,1,.24.23c0,.41-.57.33-.92.39-1.12.18-1.39.21-1.39,1.52V107c0,.75.25.93,1.5,1.16.32.05.71.15.71.37s-.28.25-.92.25c-.84,0-1.17-.07-1.63-.07-.93,0-1.87.07-2.61.07-.22,0-.49,0-.49-.33s.49-.25.72-.29c.92-.18,1-.21,1-.78v-7.08c0-.39,0-.51-.15-.51a.19.19,0,0,0-.16.12l-3.59,8.3a.28.28,0,0,1-.26.15c-.33,0-.7-1-.78-1.23Z" style="fill:#fbdbe9"/><path d="M116,104c-.16-.48-.24-.48-1.83-.51-1.34,0-1.65.07-1.73.22a29.15,29.15,0,0,0-1.39,3.87c0,.4.41.56.57.59.61.15,1,.24,1,.39s-.32.23-.45.23c-.53,0-1.16-.07-1.72-.07-.75,0-1.51.07-2.17.07-.16,0-.24,0-.24-.23s.51-.22,1-.39a.81.81,0,0,0,.59-.48l5-11.32a.21.21,0,0,1,.2-.13.23.23,0,0,1,.23.14l3.64,10.38c.37,1.08.76,1.33,1,1.41.52.15.9.1.9.39s-.16.23-.4.23c-.84,0-1.5-.07-2.26-.07s-1.41.07-2.18.07a.25.25,0,0,1-.27-.21c0-.24.39-.29,1.1-.41.11,0,.49-.18.49-.51a3.48,3.48,0,0,0-.12-.49Zm-3.15-1.81a1.21,1.21,0,0,0-.12.35,6,6,0,0,0,1.41.1c.12,0,1.37,0,1.37-.12a1.48,1.48,0,0,0-.09-.37l-1-3.09s0-.12-.12-.12a.11.11,0,0,0-.09.09Z" style="fill:#fbdbe9"/><path d="M126.89,107.47a.67.67,0,0,0,.67.66c.63.12,1.06.12,1.06.39s-.36.23-.73.23-.92-.07-1.91-.07-1.51.07-2,.07-.72,0-.72-.28.11-.24,1-.34c.34,0,.95-.13.95-.86V98.16c0-.63-.21-.73-.78-.82s-.72-.08-.72-.35.29-.28.53-.28c.6,0,.91.07,1.83.07s1.18-.07,1.76-.07c.43,0,.89,0,.89.23s-.35.3-1.28.4c-.52.06-.55.64-.55,1.15Z" style="fill:#fbdbe9"/><path d="M138.43,99.41c0,.08-.06.15-.18.15-.66,0,0-2.46-2.66-2.46-1.52,0-2.13.87-2.13,1.82,0,2.82,5.87,2.45,5.87,6.47,0,2.53-1.82,3.64-4.19,3.64a15.27,15.27,0,0,1-1.89-.29c-1.22-.26-1.43-.61-1.43-1.8,0-.53.06-1.71.45-1.71s.08.58.66,1.65a2.75,2.75,0,0,0,2.51,1.49c1.86,0,2.6-1.14,2.6-2.11,0-3-5.87-2.78-5.87-6.54,0-1.64,1.22-3.28,3.7-3.28a6.18,6.18,0,0,1,1,.09c1.51.3,1.51.52,1.51,1.26Z" style="fill:#fbdbe9"/><path d="M148.89,96.44a6.3,6.3,0,1,1-.1,12.59,6.12,6.12,0,0,1-6.39-6.3A6.27,6.27,0,0,1,148.89,96.44Zm0,12c4.3,0,4.47-5.1,4.47-6.07,0-2.53-1.44-5.35-4.56-5.35-2.11,0-4.33,1.63-4.33,5.75C144.47,107.23,147.28,108.44,148.89,108.44Z" style="fill:#fbdbe9"/><path d="M170.08,98c0-.56-.3-.55-1.57-.64-.25,0-.64,0-.64-.29s.35-.34.59-.34c.71,0,1.46.07,2.18.07s1.31-.07,1.72-.07c.22,0,.46.06.46.31s-.28.32-.67.32c-1.23,0-1.29.35-1.29,1.82v9.47c0,.38,0,.75-.33.75s-.51-.27-.75-.55l-8.31-9.64a.3.3,0,0,0-.15-.07c-.06,0-.06.1-.06.37l0,6.28c0,.49,0,.76,0,1.17,0,1.06.45,1.16.91,1.19,1,.07,1.53.05,1.53.37s-.18.25-.37.25c-.63,0-1.43-.07-2.27-.07-1.62,0-1.9.07-2.5.07-.14,0-.36,0-.36-.21s.11-.29,1.43-.41c.41,0,.57-.21.57-.53l.23-7.72c0-.45,0-.86,0-1,0-1.3-.27-1.37-.86-1.43-1.15-.09-1.39-.09-1.39-.39s.3-.35.61-.35.73.07,1.37.07.84-.07,1.07-.07a1,1,0,0,1,.79.47l7.66,9s.06.09.16.09.12-.21.12-.52Z" style="fill:#fbdbe9"/><path d="M184.81,108.68c-.56,0-1.29.07-1.76.07-.09,0-.35,0-.35-.19s.14-.33.72-.43.88-.13.88-1.27V97.67c0-.37-.82-.33-1.32-.37s-.59,0-.59-.25.53-.34.76-.34h1.78c1,0,1.88-.12,3.13-.12,4.11,0,7.43,2,7.43,6.75,0,2.93-2.7,5.34-6.06,5.34Zm1.17-2.44c0,1.36,1.24,2,2.51,2a5.27,5.27,0,0,0,5.16-5.23c0-4-3.6-5.79-6-5.79-1.6,0-1.65.35-1.65.63Z" style="fill:#fbdbe9"/><path d="M209.09,98.43c0-.92-.23-1-1-1.09-.32-.07-.67,0-.67-.37,0-.16.18-.26.41-.26.55,0,1.13.07,1.68.07s1.16-.07,1.72-.07c.28,0,.38.14.38.31,0,.32-.26.25-.65.32-.7.09-1.13.15-1.13,1.07v5.72c0,3.18-.9,4.9-5.25,4.9-3.87,0-4.38-1.68-4.38-4.6,0-2.3.08-4,.08-5.73,0-1-.08-1.34-.82-1.36s-1.08,0-1.08-.25.12-.38.44-.38c.82,0,1.45.07,2.26.07s1.26-.07,2.19-.07c.12,0,.49.07.49.29s-.23.34-.86.34c-.33,0-.74.15-.81.52-.21.88-.21,5.85-.21,7,0,2.38.87,3.56,3.43,3.56,2.72,0,3.73-1.3,3.73-4.31Z" style="fill:#fbdbe9"/><path d="M223.3,98.86c0-.29,0-.6,0-.78,0-.52-.31-.55-.9-.63s-.82-.09-.82-.33.67-.34,1-.34c1.85,0,3.69-.14,4.1-.14,2.93,0,4.15,1.52,4.15,2.81,0,1.9-1.33,2-1.33,2.25s2.21.74,2.21,3.22c0,1.77-.53,2.8-2.72,3.52a31.67,31.67,0,0,1-5.4.24c-.47,0-1,0-1.51,0s-.7,0-.7-.25.43-.24.85-.27.85-.15.85-.61Zm1.66,7.81c0,.84.24,1.34,2.11,1.34a4.81,4.81,0,0,0,1.23-.15,2.48,2.48,0,0,0,1.69-2.51c0-2.58-2.19-2.89-4.35-2.89-.39,0-.68,0-.68.14Zm0-4.92a3.9,3.9,0,0,0,1.19.13c.28,0,.69,0,1-.06a2.29,2.29,0,0,0,2.13-2.35c0-2.17-1.93-2.21-3.15-2.21-.89,0-1.19.1-1.19.59Z" style="fill:#fbdbe9"/><path d="M238.94,107.47a.66.66,0,0,0,.66.66c.62.12,1.06.12,1.06.39s-.35.23-.73.23-.91-.07-1.92-.07-1.5.07-2,.07-.72,0-.72-.28.12-.24,1-.34c.35,0,1-.13,1-.86V98.16c0-.63-.22-.73-.79-.82s-.72-.08-.72-.35.29-.28.53-.28c.6,0,.92.07,1.84.07s1.17-.07,1.76-.07c.43,0,.88,0,.88.23s-.36.3-1.27.4c-.53.06-.55.64-.55,1.15Z" style="fill:#fbdbe9"/><path d="M250.47,99.41c0,.08-.06.15-.18.15-.66,0,0-2.46-2.66-2.46-1.52,0-2.13.87-2.13,1.82,0,2.82,5.87,2.45,5.87,6.47,0,2.53-1.82,3.64-4.18,3.64a15.37,15.37,0,0,1-1.9-.29c-1.21-.26-1.43-.61-1.43-1.8,0-.53.06-1.71.45-1.71s.08.58.67,1.65a2.73,2.73,0,0,0,2.5,1.49c1.86,0,2.6-1.14,2.6-2.11,0-3-5.86-2.78-5.86-6.54,0-1.64,1.2-3.28,3.69-3.28a6.37,6.37,0,0,1,1.06.09c1.5.3,1.5.52,1.5,1.26Z" style="fill:#fbdbe9"/><path d="M261.4,96.44a12.65,12.65,0,0,1,1.91.2c1.73.28,1.74.36,1.74,2,0,.19,0,.24-.13.24-.61,0-.89-1.88-3.48-1.88s-4.9,2.33-4.9,6c0,2.69,1.65,5.43,4.74,5.43a3.38,3.38,0,0,0,2.93-1.37c.46-.56.63-.92.83-.92s.23.09.23.16a4.21,4.21,0,0,1-.37,1.82c-.12.29-1.71.9-3.48.9-3.66,0-7-2.26-7-6.16C254.47,99.68,256.68,96.44,261.4,96.44Z" style="fill:#fbdbe9"/><path d="M278.9,98.43c0-.92-.24-1-1-1.09-.32-.07-.67,0-.67-.37,0-.16.18-.26.41-.26.54,0,1.13.07,1.68.07s1.16-.07,1.72-.07c.27,0,.37.14.37.31,0,.32-.25.25-.64.32-.71.09-1.14.15-1.14,1.07v5.72c0,3.18-.89,4.9-5.23,4.9-3.88,0-4.38-1.68-4.38-4.6,0-2.3.07-4,.07-5.73,0-1-.07-1.34-.82-1.36s-1.07,0-1.07-.25.11-.38.43-.38c.82,0,1.44.07,2.27.07s1.25-.07,2.19-.07c.11,0,.48.07.48.29s-.23.34-.85.34c-.34,0-.75.15-.83.52-.19.88-.19,5.85-.19,7,0,2.38.85,3.56,3.42,3.56s3.74-1.3,3.74-4.31Z" style="fill:#fbdbe9"/><path d="M288,107.47a.66.66,0,0,0,.67.66c.62.12,1.05.12,1.05.39s-.35.23-.73.23-.91-.07-1.91-.07-1.51.07-2,.07-.72,0-.72-.28.11-.24,1-.34c.35,0,.95-.13.95-.86V98.16c0-.63-.21-.73-.78-.82s-.72-.08-.72-.35.3-.28.53-.28c.6,0,.92.07,1.84.07s1.17-.07,1.76-.07c.43,0,.87,0,.87.23s-.34.3-1.26.4c-.54.06-.55.64-.55,1.15Z" style="fill:#fbdbe9"/><path d="M301.88,97.15a5.62,5.62,0,0,0,.82,0c.68-.12.55-.88.9-.88s.3.63.3,1.45,0,1.91-.38,1.91-.33-.86-.59-1.25c-.12-.17-.88-.54-2.83-.54-.78,0-.92,0-.92,1.25v7.88c0,.92.28,1.07,1.12,1.19.52.07,1,.05,1,.37s-.29.25-.41.25c-.58,0-1.66-.07-2.52-.07s-1.74.07-2.76.07c-.1,0-.33,0-.33-.19s.63-.33,1.12-.43c.87-.18,1.07-.47,1.07-1.62V98.65c0-.8-.13-.84-1.74-.84-1.78,0-2.52,1.93-2.93,1.93a.23.23,0,0,1-.24-.25,20.47,20.47,0,0,1,.81-2.39c.19-.52.27-.86.54-.86s.06.66.73.76a23.42,23.42,0,0,0,2.89.15Z" style="fill:#fbdbe9"/><path d="M315.71,97.9c0-.41-.47-.5-1.17-.56-.21,0-.68,0-.68-.32s.26-.31.43-.31,1.68.07,2.27.07c.88,0,1.78-.07,2.66-.07,1.62,0,3.59.59,3.59,3,0,2-2.1,2.72-2.1,3a.67.67,0,0,0,.15.34l2.31,3.79a2.51,2.51,0,0,0,1.74,1.27c.52.12.92.14.92.35a.18.18,0,0,1-.2.18c-.82,0-1.16,0-1.78,0-1.58,0-1.66,0-1.76-.16l-2.87-5.07a1.53,1.53,0,0,0-1.24-.59c-.58,0-.58.16-.58.53v3.38c0,1,0,1.14,1.37,1.41.35.07.78.1.78.37s-.43.25-.51.25c-.72,0-1.47-.07-2.19-.07-.9,0-1.78.07-2.72.07-.1,0-.34,0-.31-.25s.49-.3,1-.37.93-.21.93-.9Zm1.69,4.16c0,.18.17.23,1.09.23,1.13,0,2.64-.14,2.64-2.59,0-1.94-1.48-2.4-3.07-2.4a.56.56,0,0,0-.66.6Z" style="fill:#fbdbe9"/><path d="M335.09,96.44A6.3,6.3,0,1,1,335,109a6.13,6.13,0,0,1-6.39-6.3A6.28,6.28,0,0,1,335.09,96.44Zm0,12c4.3,0,4.48-5.1,4.48-6.07,0-2.53-1.45-5.35-4.56-5.35-2.11,0-4.34,1.63-4.34,5.75C330.67,107.23,333.48,108.44,335.09,108.44Z" style="fill:#fbdbe9"/><path d="M351.34,99.41a.16.16,0,0,1-.18.15c-.67,0,0-2.46-2.67-2.46-1.52,0-2.12.87-2.12,1.82,0,2.82,5.86,2.45,5.86,6.47,0,2.53-1.81,3.64-4.18,3.64a15.37,15.37,0,0,1-1.9-.29c-1.21-.26-1.43-.61-1.43-1.8,0-.53.06-1.71.45-1.71s.08.58.67,1.65a2.73,2.73,0,0,0,2.5,1.49c1.86,0,2.6-1.14,2.6-2.11,0-3-5.87-2.78-5.87-6.54,0-1.64,1.21-3.28,3.7-3.28a6.29,6.29,0,0,1,1.06.09c1.51.3,1.51.52,1.51,1.26Z" style="fill:#fbdbe9"/><path d="M357.15,98.1c0-.51-.19-.61-.92-.76s-.85-.16-.85-.4.27-.23.56-.23c.73,0,2.33.07,2.82.07s3.34-.07,5-.07c.3,0,.3.21.3.63v1.88c0,.07-.08.11-.16.11-.25,0-.21-.21-.53-.88s-.39-1-3.72-1c-.69,0-.81.26-.81.92v3.38c0,.4.29.44,1,.44h1.7c1.45,0,1-1.68,1.49-1.68.26,0,.27.17.27.39,0,.45-.07.72-.07,1.63s.07,1.37.07,1.9c0,.18,0,.34-.21.34s-.31-.31-.41-.87c-.18-1-.36-1.17-2.76-1.17-.92,0-1.05.12-1.05.51V107c0,.88.07,1,2.34,1,1.33,0,1.78-.2,2.19-.66.94-1.08.84-1.58,1.17-1.58.18,0,.2.09.2.19a2,2,0,0,1-.08.31l-.37,2c-.05.31-.17.41-.45.41h-5.57c-2.17,0-2.37.07-2.56.07s-.47,0-.47-.23.35-.25.84-.39,1.07-.06,1.07-.88Z" style="fill:#fbdbe9"/><rect width="470.01" height="6.24" style="fill:#f49ac1"/><rect y="132.41" width="470.01" height="6.24" style="fill:#f49ac1"/></g></g></svg>