<svg id="Groupe_3341" data-name="Groupe 3341" xmlns="http://www.w3.org/2000/svg" xmlns:xlink="http://www.w3.org/1999/xlink" viewBox="0 0 123.805 26.635">
  <defs>
    <clipPath id="clip-path">
      <path id="Tracé_5735" data-name="Tracé 5735" d="M10.934,0,.588,5.7,12.2,12.51c.168,0,.168.17.168.34v9.871c0,.17,0,.17-.168.34l-.588.34h-.337l-.588-.34c-.168,0-.168-.17-.168-.34V13.956a.166.166,0,0,0-.162-.17h-.006L0,7.744V19.488a1.537,1.537,0,0,0,.337.766l10.429,6.211c.168,0,.168.17.336.17s.337,0,.337-.17l10.429-6.212a.939.939,0,0,0,.336-.766V7.744l-6.476,4.169h-.337l-.588-.34a.165.165,0,0,1-.168-.162s0-.005,0-.008v-.937c0-.17,0-.17.168-.34L21.869,5.7,11.607,0Z" fill="none"/>
    </clipPath>
    <linearGradient id="linear-gradient" y1="1" x2="0.002" y2="1" gradientUnits="objectBoundingBox">
      <stop offset="0" stop-color="#006caf"/>
      <stop offset="0.332" stop-color="#0081c5"/>
      <stop offset="0.733" stop-color="#0095da"/>
      <stop offset="1" stop-color="#009ce1"/>
    </linearGradient>
    <clipPath id="clip-path-2">
      <rect id="Rectangle_670" data-name="Rectangle 670" width="123.805" height="26.635" fill="none"/>
    </clipPath>
  </defs>
  <g id="Groupe_3338" data-name="Groupe 3338">
    <g id="Groupe_3337" data-name="Groupe 3337" clip-path="url(#clip-path)">
      <rect id="Rectangle_669" data-name="Rectangle 669" width="22.219" height="26.635" transform="translate(0 0)" fill="url(#linear-gradient)"/>
    </g>
  </g>
  <g id="Groupe_3340" data-name="Groupe 3340">
    <g id="Groupe_3339" data-name="Groupe 3339" clip-path="url(#clip-path-2)">
      <path id="Tracé_5736" data-name="Tracé 5736" d="M650.433,113.318h-2.687V100.128a12.911,12.911,0,0,1,4.2-.937c3.219,0,5.467,2.03,5.467,4.936,0,3.3-1.993,5.191-5.467,5.191v-2.128a2.544,2.544,0,0,0,1.978-.813,3.356,3.356,0,0,0,.713-2.25,2.488,2.488,0,0,0-2.691-2.723,2.145,2.145,0,0,0-1.514.34Zm-55.6-3.4a4.937,4.937,0,0,1-5.134-4.733q-.009-.229,0-.457a4.938,4.938,0,0,1,4.675-5.189q.228-.012.456,0a4.1,4.1,0,0,1,2.692.6v2.552a3.474,3.474,0,0,0-2.44-.936,2.731,2.731,0,1,0,0,5.446,7.468,7.468,0,0,0,1.473-.194h.014a5.187,5.187,0,0,1,.953-.142v2.468l-.245.075-.057.018-.08.025A7.844,7.844,0,0,1,594.836,109.914Zm86.968-.256c-2.791,0-4.205-1.346-4.205-4V95.873h2.691v3.66h3.365v2.128H680.29v4c0,.959.692,1.532,1.848,1.532a3,3,0,0,0,1.766-.34v2.468a5.351,5.351,0,0,1-2.1.339Zm-9.336,0a5.966,5.966,0,0,1-2.892-.851h.2V106.34a4.593,4.593,0,0,0,3.028,1.191,1.063,1.063,0,0,0,1.177-.934v0c0-.363-.411-.616-1.513-.936-2.151-.348-3.028-1.236-3.028-3.063a2.787,2.787,0,0,1,1.02-2.334,4.206,4.206,0,0,1,2.6-.733,4.6,4.6,0,0,1,2.691.6V102.6a4.693,4.693,0,0,0-2.691-.936c-.793,0-1.178.306-1.178.936,0,.311.194.576,1.178.936a4.755,4.755,0,0,1,2.6.958,2.655,2.655,0,0,1,.767,2.106c0,2.259-2.038,3.064-3.952,3.064Zm-9.084-.085a4.937,4.937,0,0,1-5.134-4.733q-.009-.229,0-.457a5.131,5.131,0,1,1,10.262,0,4.937,4.937,0,0,1-4.674,5.188q-.227.012-.454,0Zm0-7.914c-1.6,0-2.439.941-2.439,2.723a2.48,2.48,0,0,0,2.225,2.711c.071.007.143.011.214.012,1.6,0,2.439-.941,2.439-2.723,0-1.731-.886-2.723-2.436-2.723Zm-21.7,7.914a4.938,4.938,0,0,1-5.133-4.734q-.009-.228,0-.456a5.131,5.131,0,0,1,10.261-.141q0,.071,0,.141a4.938,4.938,0,0,1-4.674,5.188q-.228.012-.457,0m0-7.914c-1.595,0-2.438.941-2.438,2.723a2.48,2.48,0,0,0,2.225,2.711q.106.01.214.012c1.6,0,2.439-.941,2.439-2.723a2.529,2.529,0,0,0-2.325-2.717l-.114-.006Zm-21.2,7.914a4.938,4.938,0,0,1-5.134-4.733q-.009-.229,0-.457a4.939,4.939,0,0,1,4.675-5.189q.228-.012.456,0a4.939,4.939,0,0,1,5.134,4.735q.009.228,0,.456a4.938,4.938,0,0,1-4.674,5.188q-.228.012-.457,0m0-7.914c-1.6,0-2.439.941-2.439,2.723a2.48,2.48,0,0,0,2.225,2.711q.107.011.214.012c1.6,0,2.439-.941,2.439-2.723,0-1.731-.889-2.723-2.439-2.723m8.748,7.66h-2.355v-9.191a11.146,11.146,0,0,1,4.545-.937,4.59,4.59,0,0,1,3.112.852,3.932,3.932,0,0,1,1.093,3.148v6.127h-2.691v-6.127c0-.959-.692-1.532-1.848-1.532a3.437,3.437,0,0,0-1.848.339v7.319Zm-17.243,0H609.3v-6.127a3.874,3.874,0,0,1,1.188-3.148,4.594,4.594,0,0,1,3.015-.852,3.822,3.822,0,0,1,.917.15,5.1,5.1,0,0,0,1.27.195V102a3.768,3.768,0,0,0-1.848-.339c-1.35,0-1.848.415-1.848,1.532v6.127Zm-6.557,0v-6.127c0-.959-.691-1.532-1.848-1.532a3.435,3.435,0,0,0-1.848.339v7.319h-2.7V94.937h3.027v4.6a4.892,4.892,0,0,0,.938-.138h.025a7.465,7.465,0,0,1,1.473-.195,3.649,3.649,0,0,1,3.634,3.664q0,.168-.017.336v6.127Z" transform="translate(-560.098 -90.172)" fill="#3c3c3b"/>
    </g>
  </g>
</svg>
