<svg id="Groupe_3336" data-name="Groupe 3336" xmlns="http://www.w3.org/2000/svg" xmlns:xlink="http://www.w3.org/1999/xlink" width="84.351" height="65.509" viewBox="0 0 84.351 65.509">
  <defs>
    <clipPath id="clip-path">
      <rect id="Rectangle_668" data-name="Rectangle 668" width="84.351" height="65.509" fill="none"/>
    </clipPath>
  </defs>
  <g id="Groupe_3335" data-name="Groupe 3335" clip-path="url(#clip-path)">
    <path id="Tracé_5732" data-name="Tracé 5732" d="M60.884,669.008v-4.348a2.55,2.55,0,0,0-2.752-2.752,2.851,2.851,0,0,0-2.465,1.232,2.544,2.544,0,0,0-2.321-1.232,2.335,2.335,0,0,0-2.026,1.013v-.87H49.8v6.956h1.52v-3.841c0-1.233.65-1.815,1.663-1.815s1.52.65,1.52,1.815v3.841h1.52v-3.841a1.606,1.606,0,0,1,1.663-1.815c1.013,0,1.52.65,1.52,1.815v3.841Zm22.54-6.956H80.959v-2.1h-1.52v2.1H78.063v1.376h1.376v3.191c0,1.6.65,2.533,2.389,2.533a4.086,4.086,0,0,0,1.883-.506l-.439-1.308a2.431,2.431,0,0,1-1.308.363c-.726,0-1.013-.439-1.013-1.157v-3.115h2.465v-1.376Zm12.9-.152a2.06,2.06,0,0,0-1.815,1.013v-.87h-1.52V669h1.52v-3.917c0-1.156.507-1.815,1.452-1.815a4.663,4.663,0,0,1,.945.144l.439-1.452a6.025,6.025,0,0,0-1.021-.059m-19.492.726A4.986,4.986,0,0,0,74,661.9c-1.739,0-2.9.87-2.9,2.246,0,1.156.87,1.815,2.389,2.026l.726.076c.794.143,1.232.363,1.232.726,0,.506-.582.87-1.6.87a4.006,4.006,0,0,1-2.322-.726l-.726,1.157a5.094,5.094,0,0,0,2.972.87c2.026,0,3.191-.945,3.191-2.246,0-1.232-.945-1.883-2.389-2.1l-.726-.076c-.65-.076-1.157-.22-1.157-.65,0-.507.507-.794,1.308-.794a5.228,5.228,0,0,1,2.178.583Zm40.428-.726a2.06,2.06,0,0,0-1.815,1.013v-.87h-1.52V669h1.52v-3.917c0-1.156.507-1.815,1.452-1.815a4.663,4.663,0,0,1,.945.144l.439-1.435a4.629,4.629,0,0,0-1.021-.076m-19.416,3.63a3.481,3.481,0,0,0,3.7,3.622,3.64,3.64,0,0,0,2.465-.794l-.726-1.232a2.9,2.9,0,0,1-1.815.65,2.057,2.057,0,0,1-2.1-2.246,2.132,2.132,0,0,1,2.1-2.246,2.971,2.971,0,0,1,1.815.65L104,662.7a3.6,3.6,0,0,0-2.465-.794,3.477,3.477,0,0,0-3.7,3.622m14.056,0v-3.478h-1.52v.87a2.625,2.625,0,0,0-2.178-1.013,3.625,3.625,0,0,0,0,7.243,2.457,2.457,0,0,0,2.178-1.013v.87h1.52Zm-5.58,0a2.107,2.107,0,1,1,4.2,0,2.107,2.107,0,1,1-4.2,0M88.134,661.9a3.623,3.623,0,0,0,.076,7.243,4.416,4.416,0,0,0,2.828-.945l-.726-1.089a3.451,3.451,0,0,1-2.026.726,1.959,1.959,0,0,1-2.1-1.663h5.141v-.583c.068-2.237-1.241-3.689-3.191-3.689m0,1.308a1.693,1.693,0,0,1,1.739,1.663H86.252a1.832,1.832,0,0,1,1.883-1.663m37.752,2.322V659.3h-1.52v3.622a2.625,2.625,0,0,0-2.178-1.013,3.625,3.625,0,0,0,0,7.243,2.457,2.457,0,0,0,2.178-1.013v.87h1.52Zm-5.58,0a2.107,2.107,0,1,1,4.2,0,2.107,2.107,0,1,1-4.2,0m-50.87,0v-3.478h-1.52v.87a2.625,2.625,0,0,0-2.178-1.013,3.625,3.625,0,0,0,0,7.243,2.457,2.457,0,0,0,2.178-1.013v.87h1.52Zm-5.648,0a2.107,2.107,0,1,1,4.2,0,2.107,2.107,0,1,1-4.2,0" transform="translate(-45.596 -603.643)"/>
    <rect id="Rectangle_667" data-name="Rectangle 667" width="22.827" height="41.01" transform="translate(30.728 5.58)" fill="#ff5a00"/>
    <path id="Tracé_5733" data-name="Tracé 5733" d="M32.248,26.085A26.159,26.159,0,0,1,42.175,5.58a26.077,26.077,0,1,0-16.09,46.59,25.945,25.945,0,0,0,16.09-5.58,26.033,26.033,0,0,1-9.928-20.505" fill="#eb001b"/>
    <path id="Tracé_5734" data-name="Tracé 5734" d="M541.775,26.085A26.06,26.06,0,0,1,499.6,46.59a26.14,26.14,0,0,0,0-41.01,26.06,26.06,0,0,1,42.175,20.505" transform="translate(-457.425)" fill="#f79e1b"/>
  </g>
</svg>
