<svg id="Groupe_3325" data-name="Groupe 3325" xmlns="http://www.w3.org/2000/svg" xmlns:xlink="http://www.w3.org/1999/xlink" width="160" height="50" viewBox="0 0 123.427 32.723">
  <defs>
    <clipPath id="clip-path">
      <rect id="Rectangle_661" data-name="Rectangle 661" width="123.427" height="32.723" fill="none"/>
    </clipPath>
  </defs>
  <g id="Groupe_3324" data-name="Groupe 3324" clip-path="url(#clip-path)">
    <path id="Tracé_5656" data-name="Tracé 5656" d="M376.918,67.861a.516.516,0,0,0-.51.436l-2.94,18.647a.477.477,0,0,0,.4.546.486.486,0,0,0,.074.006h3.487a.516.516,0,0,0,.509-.435l.864-5.476a.515.515,0,0,1,.509-.435h3.17a7.519,7.519,0,0,0,7.423-6.365c.579-3.693-2.306-6.914-6.4-6.922Zm3.39,4.163h2.536c2.088,0,2.768,1.232,2.553,2.595s-1.271,2.371-3.291,2.371h-2.582ZM397,73.291a7.87,7.87,0,0,0-7.425,5.631s-1.694,5,2.133,7.746a6.533,6.533,0,0,0,7.543-.163l-.069.438a.477.477,0,0,0,.471.551h3.31a.516.516,0,0,0,.51-.435l2.014-12.77a.478.478,0,0,0-.471-.552H401.7a.516.516,0,0,0-.51.435l-.108.687A5.749,5.749,0,0,0,397,73.291Zm.108,4.033a3.389,3.389,0,0,1,1.04.153,2.928,2.928,0,0,1,2,3.318,3.708,3.708,0,0,1-3.717,3.18,3.4,3.4,0,0,1-1.04-.152,2.932,2.932,0,0,1-2.008-3.318,3.713,3.713,0,0,1,3.722-3.181Z" transform="translate(-337.45 -61.317)" fill="#003087"/>
    <path id="Tracé_5657" data-name="Tracé 5657" d="M871.28,67.861a.515.515,0,0,0-.509.436l-2.94,18.647a.477.477,0,0,0,.4.546.487.487,0,0,0,.074.006h3.487a.516.516,0,0,0,.51-.435l.864-5.476a.516.516,0,0,1,.509-.435h3.17a7.518,7.518,0,0,0,7.422-6.365c.58-3.693-2.305-6.914-6.395-6.922Zm3.39,4.163h2.536c2.088,0,2.768,1.232,2.553,2.595s-1.271,2.371-3.291,2.371h-2.582Zm16.687,1.268a7.87,7.87,0,0,0-7.425,5.631s-1.693,5,2.133,7.746a6.532,6.532,0,0,0,7.543-.163l-.069.438a.477.477,0,0,0,.4.546.488.488,0,0,0,.074.006h3.31a.516.516,0,0,0,.51-.435l2.014-12.77a.478.478,0,0,0-.472-.552h-3.31a.516.516,0,0,0-.509.435l-.108.687a5.749,5.749,0,0,0-4.088-1.569Zm.108,4.033a3.389,3.389,0,0,1,1.04.153,2.928,2.928,0,0,1,2,3.318,3.708,3.708,0,0,1-3.717,3.18,3.4,3.4,0,0,1-1.04-.152,2.932,2.932,0,0,1-2.009-3.318,3.713,3.713,0,0,1,3.722-3.181Z" transform="translate(-784.142 -61.317)" fill="#0070e0"/>
    <path id="Tracé_5658" data-name="Tracé 5658" d="M718.174,128.8a.388.388,0,0,0-.369.506l3.629,11.262-3.281,5.307a.387.387,0,0,0,.329.59h3.878a.645.645,0,0,0,.551-.311l10.136-16.767a.387.387,0,0,0-.331-.587h-3.878a.645.645,0,0,0-.555.317l-3.99,6.736-2.025-6.686a.517.517,0,0,0-.494-.367Z" transform="translate(-648.572 -116.382)" fill="#003087"/>
    <path id="Tracé_5659" data-name="Tracé 5659" d="M1206.5,67.861a.516.516,0,0,0-.51.436l-2.941,18.646a.477.477,0,0,0,.472.552h3.487a.516.516,0,0,0,.51-.435l2.941-18.647a.478.478,0,0,0-.4-.546.466.466,0,0,0-.073-.006Z" transform="translate(-1087.04 -61.317)" fill="#0070e0"/>
    <path id="Tracé_5660" data-name="Tracé 5660" d="M84.59,67.861a.944.944,0,0,0-.932.8l-1.548,9.817a.943.943,0,0,1,.931-.8h4.536a9.264,9.264,0,0,0,9.146-7.843,7.578,7.578,0,0,0,.089-1.018,8.609,8.609,0,0,0-4.016-.956Z" transform="translate(-74.193 -61.317)" fill="#001c64"/>
    <path id="Tracé_5661" data-name="Tracé 5661" d="M75.033,77.783a7.563,7.563,0,0,1-.089,1.018A9.264,9.264,0,0,1,65.8,86.644H61.262a.943.943,0,0,0-.932.8l-1.423,9.021-.891,5.659a.765.765,0,0,0,.756.886H63.7a.944.944,0,0,0,.931-.8l1.3-8.225a.944.944,0,0,1,.932-.8h2.9A9.263,9.263,0,0,0,78.9,85.346a7.19,7.19,0,0,0-3.867-7.562Z" transform="translate(-52.413 -70.283)" fill="#0070e0"/>
    <path id="Tracé_5662" data-name="Tracé 5662" d="M4.8,0a.943.943,0,0,0-.932.8L.01,25.292a.766.766,0,0,0,.757.886H6.5l1.422-9.021L9.466,7.34a.944.944,0,0,1,.932-.8H18.6A8.611,8.611,0,0,1,22.62,7.5C22.7,3.392,19.31,0,14.649,0Z" transform="translate(0)" fill="#003087"/>
  </g>
</svg>
