<svg id="Groupe_3327" data-name="Groupe 3327" xmlns="http://www.w3.org/2000/svg" xmlns:xlink="http://www.w3.org/1999/xlink" viewBox="0 0 77.975 65.415">
  <defs>
    <clipPath id="clip-path">
      <rect id="Rectangle_662" data-name="Rectangle 662" width="77.975" height="65.415" fill="none"/>
    </clipPath>
  </defs>
  <g id="Groupe_3326" data-name="Groupe 3326" transform="translate(0)" clip-path="url(#clip-path)">
    <path id="Tracé_5663" data-name="Tracé 5663" d="M89,349.056a1.372,1.372,0,0,1-.016-.285,2.311,2.311,0,0,1,.808-1.885,2.655,2.655,0,0,1,1.774-.681,1.832,1.832,0,0,1,1.79.966Zm6.241-1.14a2.963,2.963,0,0,0-1.077-2.328,3.987,3.987,0,0,0-2.677-.887,4.271,4.271,0,0,0-1.932.443,3.731,3.731,0,0,0-1.536,1.41,3.937,3.937,0,0,0-.618,2.2,3.784,3.784,0,0,0,1.188,2.914,4.046,4.046,0,0,0,2.867,1.109,4.456,4.456,0,0,0,3.31-1.441l-.966-1.077a2.723,2.723,0,0,1-2.17,1.03,2.531,2.531,0,0,1-2.091-.95l5.718-2.408Z" transform="translate(-73.557 -290.103)" fill="#27245d"/>
    <path id="Tracé_5664" data-name="Tracé 5664" d="M60.84,345.175a3.275,3.275,0,0,0-1.077,1.2V344.8H58.1v7.856h1.647v-3.358a3.4,3.4,0,0,1,.618-2.138,2.165,2.165,0,0,1,1.837-.792h.1l-.016-1.663a2.526,2.526,0,0,0-1.441.475" transform="translate(-48.898 -290.103)" fill="#27245d"/>
    <path id="Tracé_5665" data-name="Tracé 5665" d="M145,348.576a4.464,4.464,0,0,0-.744-.412c-.238-.1-.475-.19-.713-.269-.253-.079-.523-.158-.855-.238a3.344,3.344,0,0,1-.744-.253.574.574,0,0,1-.38-.554.719.719,0,0,1,.364-.649,1.937,1.937,0,0,1,.966-.222,3.637,3.637,0,0,1,2.075.634l.618-1.22a4.53,4.53,0,0,0-2.566-.792,3.531,3.531,0,0,0-2.2.649,2.089,2.089,0,0,0-.855,1.742c0,1.03.824,1.774,2.455,2.217.032.016.1.032.174.063,1.045.317,1.568.665,1.568,1.061a.788.788,0,0,1-.317.649,1.374,1.374,0,0,1-.887.253,4.519,4.519,0,0,1-2.661-1.029l-.792,1.283a5.2,5.2,0,0,0,1.631.871,5.6,5.6,0,0,0,1.774.317,3.166,3.166,0,0,0,2.075-.665,2.206,2.206,0,0,0,.808-1.79,1.8,1.8,0,0,0-.792-1.647" transform="translate(-117.405 -290.019)" fill="#27245d"/>
    <path id="Tracé_5666" data-name="Tracé 5666" d="M5.734,334.964a2.719,2.719,0,0,1-1.964.554H1.742v-4.134H3.516a3.74,3.74,0,0,1,2.075.443,1.673,1.673,0,0,1,.665,1.5,2.269,2.269,0,0,1-.523,1.631M6.969,330.7a5.265,5.265,0,0,0-3.421-.9H0v10.311H1.742v-3.025H3.58a5.342,5.342,0,0,0,3.374-.871,3.293,3.293,0,0,0,1.093-2.74A3.444,3.444,0,0,0,6.969,330.7" transform="translate(0 -277.563)" fill="#27245d"/>
    <path id="Tracé_5667" data-name="Tracé 5667" d="M188.972,338.812a1.04,1.04,0,0,1-.824-.333,1.333,1.333,0,0,1-.3-.887V333.6h2.059v-1.331h-2.059V329.8H186.2v7.729a2.626,2.626,0,0,0,.744,1.964,2.448,2.448,0,0,0,1.806.729,2.842,2.842,0,0,0,1.932-.776L190,338.274a1.412,1.412,0,0,1-1.03.539" transform="translate(-156.708 -277.563)" fill="#27245d"/>
    <path id="Tracé_5668" data-name="Tracé 5668" d="M220.934,350.608a2.195,2.195,0,0,1-1.647.713,2.323,2.323,0,0,1-1.695-.713,2.482,2.482,0,0,1-.729-1.837,2.633,2.633,0,0,1,.713-1.885,2.23,2.23,0,0,1,1.695-.76,2.119,2.119,0,0,1,1.663.76,2.666,2.666,0,0,1,.681,1.869,2.549,2.549,0,0,1-.681,1.853m.649-4.435a2.988,2.988,0,0,0-2.55-1.473,3.771,3.771,0,0,0-2.693,1.093,3.841,3.841,0,0,0-1.14,2.914,3.978,3.978,0,0,0,1.109,2.946,3.553,3.553,0,0,0,2.6,1.125,3.368,3.368,0,0,0,1.473-.364,3.06,3.06,0,0,0,1.2-1.045v1.283h1.647V344.8h-1.647Z" transform="translate(-181.115 -290.103)" fill="#27245d"/>
    <path id="Tracé_5669" data-name="Tracé 5669" d="M389.208,350.592a2.4,2.4,0,0,1-1.774.713,2.375,2.375,0,0,1-1.774-.713,2.5,2.5,0,0,1-.7-1.853,2.56,2.56,0,0,1,.7-1.853,2.564,2.564,0,0,1,3.548,0,2.56,2.56,0,0,1,.7,1.853,2.5,2.5,0,0,1-.7,1.853m-1.774-5.892a4,4,0,0,0-2.946,1.172,4.053,4.053,0,0,0,0,5.734,4.289,4.289,0,0,0,5.892,0,4.053,4.053,0,0,0,0-5.734,3.987,3.987,0,0,0-2.946-1.172" transform="translate(-322.589 -290.103)" fill="#e2066f"/>
    <path id="Tracé_5670" data-name="Tracé 5670" d="M447.339,350.592a2.323,2.323,0,0,1-1.695.713,2.171,2.171,0,0,1-1.647-.713,2.537,2.537,0,0,1-.681-1.837,2.666,2.666,0,0,1,.681-1.869,2.2,2.2,0,0,1,1.663-.744,2.27,2.27,0,0,1,1.695.744,2.6,2.6,0,0,1,.713,1.869,2.544,2.544,0,0,1-.729,1.837m1.251-4.8A3.719,3.719,0,0,0,445.9,344.7a2.933,2.933,0,0,0-2.55,1.489v-1.378H441.7v10.707h1.647v-4.039a3.448,3.448,0,0,0,5.258.158,4.027,4.027,0,0,0,1.109-2.946,3.853,3.853,0,0,0-1.125-2.9" transform="translate(-371.739 -290.103)" fill="#e2066f"/>
    <path id="Tracé_5671" data-name="Tracé 5671" d="M336.361,328.962a3.059,3.059,0,0,0-1.536.412,2.585,2.585,0,0,0-1.077,1.14V326H332.1v10.929h1.647v-4.245a2.1,2.1,0,0,1,.634-1.663,2.163,2.163,0,0,1,1.489-.57c1.2,0,1.806.729,1.806,2.17v4.308h1.647v-4.815a3.11,3.11,0,0,0-.824-2.344,2.89,2.89,0,0,0-2.138-.808" transform="translate(-279.499 -274.365)" fill="#e2066f"/>
    <path id="Tracé_5672" data-name="Tracé 5672" d="M281.391,333.907A5.706,5.706,0,0,0,279,332.83a7.361,7.361,0,0,1-2.075-.713,1.112,1.112,0,0,1-.491-.966,1.025,1.025,0,0,1,.491-.934,2.288,2.288,0,0,1,1.251-.317,4.832,4.832,0,0,1,1.536.269,3.269,3.269,0,0,1,1.235.681l.934-1.315a5.2,5.2,0,0,0-1.679-.919,6,6,0,0,0-1.964-.317,4.166,4.166,0,0,0-2.582.776,2.586,2.586,0,0,0-1.045,2.2,2.474,2.474,0,0,0,.919,2.122,3.759,3.759,0,0,0,1.045.6,14.625,14.625,0,0,0,1.726.507,4.745,4.745,0,0,1,1.6.6,1.068,1.068,0,0,1,.459.934,1.152,1.152,0,0,1-.491.966,2.245,2.245,0,0,1-1.33.364,4.934,4.934,0,0,1-3.247-1.362l-1.093,1.315a6.278,6.278,0,0,0,4.292,1.663,4.1,4.1,0,0,0,2.677-.839,2.674,2.674,0,0,0,1.014-2.186,2.563,2.563,0,0,0-.792-2.059" transform="translate(-230.77 -276.301)" fill="#e2066f"/>
    <path id="Tracé_5673" data-name="Tracé 5673" d="M111.411,36.509c.38-.174.76-.317,1.156-.475.443-.158.887-.317,1.33-.459.554-.174,1.125-.317,1.695-.443.776-.158,1.552-.285,2.328-.364-.443,1.378-.919,2.756-1.457,4.118.016.269.032.523.048.792a17.126,17.126,0,0,1,6.557,0,6.447,6.447,0,0,1,.048-.792c-.523-1.362-1.014-2.74-1.457-4.118a19.235,19.235,0,0,1,2.328.364c.57.127,1.125.269,1.695.443.444.143.887.285,1.33.459.4.143.776.3,1.156.475a20.615,20.615,0,0,1,7.159,5.29,23.79,23.79,0,1,0-31.076,0,20.615,20.615,0,0,1,7.159-5.29" transform="translate(-80.795)" fill="#a0dbe8"/>
    <path id="Tracé_5674" data-name="Tracé 5674" d="M200.928,225.719a16.524,16.524,0,0,1,3.516-1.109,6.447,6.447,0,0,0-.048-.792c.523-1.362,1.014-2.74,1.457-4.118a19.243,19.243,0,0,0-2.328.364c-.57.127-1.125.269-1.695.444-.443.143-.887.285-1.33.459l1.726.428Z" transform="translate(-168.743 -184.902)" fill="#525353"/>
    <path id="Tracé_5675" data-name="Tracé 5675" d="M152.657,237.274a12.573,12.573,0,0,0,.063-1.346.493.493,0,0,1,.491-.491h.428l1.521-5.037A20.615,20.615,0,0,0,148,235.69a23.779,23.779,0,0,0,3.58,2.566c.364-.333.713-.665,1.077-.982" transform="translate(-124.558 -193.907)" fill="#525353"/>
    <path id="Tracé_5676" data-name="Tracé 5676" d="M299,230.5l1.521,5.037h.428a.493.493,0,0,1,.491.491c0,.459.032.9.063,1.346.364.317.729.634,1.061.982a23,23,0,0,0,3.58-2.566A20.414,20.414,0,0,0,299,230.5" transform="translate(-251.642 -193.991)" fill="#525353"/>
    <path id="Tracé_5677" data-name="Tracé 5677" d="M261.427,221.195l1.726-.428c-.443-.158-.887-.317-1.33-.459-.554-.174-1.125-.317-1.695-.443-.776-.158-1.552-.285-2.328-.364.444,1.378.919,2.756,1.457,4.118-.016.269-.032.523-.048.792a16.248,16.248,0,0,1,3.516,1.109Z" transform="translate(-216.967 -184.734)" fill="#525353"/>
    <path id="Tracé_5678" data-name="Tracé 5678" d="M228.258,250.854h3.358a14.386,14.386,0,0,1-.079-1.837,17.124,17.124,0,0,0-6.557,0,14.266,14.266,0,0,1-.079,1.837Z" transform="translate(-189.278 -209.309)"/>
    <path id="Tracé_5679" data-name="Tracé 5679" d="M170.7,274.782c.269.158.554.317.839.475a14.683,14.683,0,0,0,.222-1.457c-.364.317-.713.649-1.061.982" transform="translate(-143.663 -230.433)"/>
    <path id="Tracé_5680" data-name="Tracé 5680" d="M201.8,252.537h3.675a14.389,14.389,0,0,0,.079-1.837,16.244,16.244,0,0,0-3.516,1.109Z" transform="translate(-169.837 -210.992)"/>
    <path id="Tracé_5681" data-name="Tracé 5681" d="M314.9,273.8a14.678,14.678,0,0,0,.222,1.457c.285-.143.554-.3.839-.475-.348-.333-.7-.665-1.061-.982" transform="translate(-265.023 -230.433)"/>
    <path id="Tracé_5682" data-name="Tracé 5682" d="M270.617,252.537l-.222-.729a16.523,16.523,0,0,0-3.516-1.109,14.264,14.264,0,0,0,.079,1.837Z" transform="translate(-224.604 -210.992)"/>
    <path id="Tracé_5683" data-name="Tracé 5683" d="M186.567,233.012l.222-.729,1.315-4.356-1.726-.428c-.4.143-.776.3-1.156.475l-1.521,5.037h2.867Z" transform="translate(-154.604 -191.466)" fill="#aa9678"/>
    <path id="Tracé_5684" data-name="Tracé 5684" d="M282.115,232.283l.222.729H285.2l-1.521-5.037c-.38-.174-.76-.317-1.156-.475l-1.726.428Z" transform="translate(-236.324 -191.466)" fill="#aa9678"/>
    <path id="Tracé_5685" data-name="Tracé 5685" d="M184,268.532c.016-.016.032-.016.048-.032H184Z" transform="translate(-154.856 -225.972)" fill="#c0b098"/>
    <path id="Tracé_5686" data-name="Tracé 5686" d="M191.9,268.5h-9.788c-.016.016-.032.016-.047.032a14.1,14.1,0,0,1-.364,2.724,23.611,23.611,0,0,0,10.2,2.3Z" transform="translate(-152.921 -225.972)" fill="#c0b098"/>
    <path id="Tracé_5687" data-name="Tracé 5687" d="M308.048,268.5H308c.016.016.032.016.048.032Z" transform="translate(-259.216 -225.972)" fill="#aa9678"/>
    <path id="Tracé_5688" data-name="Tracé 5688" d="M255.9,268.5h-9.8v5.053a23.664,23.664,0,0,0,10.2-2.3,14.267,14.267,0,0,1-.364-2.724.034.034,0,0,0-.032-.032" transform="translate(-207.12 -225.972)" fill="#aa9678"/>
    <path id="Tracé_5689" data-name="Tracé 5689" d="M246.1,265.4h0v0Z" transform="translate(-207.12 -223.363)" fill="#786453"/>
    <path id="Tracé_5690" data-name="Tracé 5690" d="M197.916,264.037a12.574,12.574,0,0,1-.063-1.346.493.493,0,0,0-.491-.491H176.676a.493.493,0,0,0-.491.491c0,.459-.032.9-.063,1.346a14.679,14.679,0,0,1-.222,1.457c.3.158.6.317.9.459a14.267,14.267,0,0,0,.364-2.724V263.2h19.688v.032a14.1,14.1,0,0,0,.364,2.724c.3-.143.6-.3.9-.459a14.675,14.675,0,0,1-.206-1.457" transform="translate(-148.039 -220.67)" fill="#8b7460"/>
    <path id="Tracé_5691" data-name="Tracé 5691" d="M287.922,239.369c-.079-.079-.143-.174-.222-.269.079.111.158.19.222.269" transform="translate(-242.131 -201.229)" fill="#525353"/>
    <path id="Tracé_5692" data-name="Tracé 5692" d="M289.654,241.439h0a5.409,5.409,0,0,1-.554-.539,5.409,5.409,0,0,0,.554.539" transform="translate(-243.31 -202.744)" fill="#aa9678"/>
    <path id="Tracé_5693" data-name="Tracé 5693" d="M338.491,108.395" transform="translate(-284.878 -91.226)" fill="#fff"/>
    <path id="Tracé_5694" data-name="Tracé 5694" d="M344.5,151.6" transform="translate(-289.935 -127.588)" fill="#fff"/>
    <path id="Tracé_5695" data-name="Tracé 5695" d="M339.7,109.815h0a8,8,0,0,0-.618-.76c-.1-.111-.19-.206-.285-.3-.032-.032-.079-.063-.111-.1a1.685,1.685,0,0,0-.19-.158v2.217l.839,3.881c.016.032.016.063.032.1l.586.665h.618v-.174a16.827,16.827,0,0,0-.839-5.243.713.713,0,0,0-.032-.127" transform="translate(-284.885 -91.315)" fill="#bbbcbd"/>
    <path id="Tracé_5696" data-name="Tracé 5696" d="M344.5,151.6" transform="translate(-289.935 -127.588)" fill="#bbbcbd"/>
    <path id="Tracé_5697" data-name="Tracé 5697" d="M344.148,147.617v.032a1.725,1.725,0,0,1,.016.285v.1a1.452,1.452,0,0,1-.016.269v.032l-.048.285.586-.649-.586-.665c.016.111.032.206.048.317" transform="translate(-289.598 -123.969)" fill="#676a6a"/>
    <path id="Tracé_5698" data-name="Tracé 5698" d="M334.369,143.312v-.032a1.629,1.629,0,0,0,.016-.269v-.127a1.721,1.721,0,0,0-.016-.285v-.032l-.048-.285c-.016-.032-.016-.063-.032-.1a2,2,0,0,0-.222-.491c-.016-.016-.032-.032-.032-.048-.032-.032-.048-.063-.079-.1a.426.426,0,0,0-.127-.111c-.016-.016-.032-.016-.048-.032a.4.4,0,0,0-.111-.063c-.016,0-.032-.016-.048-.016a.569.569,0,0,0-.174-.032.674.674,0,0,0-.174.032c-.016,0-.032.016-.048.016a.4.4,0,0,0-.111.063c-.016.016-.032.016-.047.032-.047.032-.079.079-.127.111-.032.032-.047.063-.079.1-.016.016-.032.032-.032.048a1.549,1.549,0,0,0-.222.491v.016a1.343,1.343,0,0,0-.063.269c0,.032-.016.048-.016.079-.016.111-.016.206-.032.317v.048c0,.9.428,1.647.95,1.647a.832.832,0,0,0,.269-.063c.016,0,.032-.016.048-.016.032-.016.063-.048.1-.063l.048-.048a.959.959,0,0,0,.127-.127.666.666,0,0,0,.079-.111c.016-.032.032-.048.048-.079a1.472,1.472,0,0,0,.079-.158c.016-.016.016-.032.032-.063.032-.079.048-.158.079-.238,0-.1.016-.19.016-.285m-.887-.6c-.206,0-.364-.269-.364-.618,0-.333.158-.618.364-.618s.364.269.364.618-.174.618-.364.618" transform="translate(-279.836 -118.92)"/>
    <path id="Tracé_5699" data-name="Tracé 5699" d="M336.764,142.4c.2,0,.364.277.364.618s-.163.618-.364.618-.364-.277-.364-.618.163-.618.364-.618" transform="translate(-283.118 -119.845)" fill="#fff"/>
    <path id="Tracé_5700" data-name="Tracé 5700" d="M333.1,126.281h0a2.006,2.006,0,0,1,.222-.491c.016-.016.032-.032.032-.048.032-.032.048-.063.079-.1a.427.427,0,0,1,.127-.111c.016-.016.032-.016.048-.032a.4.4,0,0,1,.111-.063c.016,0,.032-.016.048-.016a.568.568,0,0,1,.174-.032.673.673,0,0,1,.174.032c.016,0,.032.016.047.016a.4.4,0,0,1,.111.063c.016.016.032.016.048.032.047.032.079.079.127.111.032.032.048.063.079.1.016.016.032.032.032.048a1.548,1.548,0,0,1,.222.491l-.839-3.881Z" transform="translate(-280.34 -103.013)" fill="#909393"/>
    <path id="Tracé_5701" data-name="Tracé 5701" d="M243.7,139.7a1.2,1.2,0,0,0-.016-.238c-.016-.079-.016-.143-.032-.222a.784.784,0,0,0-.063-.206,1.1,1.1,0,0,0-.079-.206l-.1-.19a2.082,2.082,0,0,0-.4-.507,2.534,2.534,0,0,0-.7-.459,3.828,3.828,0,0,0-.4-.127h-.016a1.948,1.948,0,0,0-.855,0h-.016a2.894,2.894,0,0,0-.4.111h-.016a1.6,1.6,0,0,0-.364.19,2.466,2.466,0,0,0-.317.253h-.016a2.6,2.6,0,0,0-.412.523l-.1.19a.016.016,0,0,1-.016.016.772.772,0,0,0-.063.174c0,.016-.016.016-.016.032-.016.063-.032.111-.047.174,0,.016-.016.032-.016.048-.016.063-.016.111-.032.174a.058.058,0,0,1-.016.048c0,.079-.016.158-.016.238a1.968,1.968,0,0,0,.047.428v.016a2.051,2.051,0,0,0,.127.412,2.535,2.535,0,0,0,.459.7,2.6,2.6,0,0,0,.523.412l.19.1h.016a1.209,1.209,0,0,0,.174.063c.016,0,.016,0,.032.016.063.016.111.032.174.048.016,0,.032.016.048.016.063.016.111.016.174.032a.058.058,0,0,1,.047.016c.079,0,.158.016.238.016a2.25,2.25,0,0,0,.871-.174c.127-.063.253-.127.38-.206a2.177,2.177,0,0,0,.6-.6c.079-.127.143-.253.206-.38a2.31,2.31,0,0,0,.174-.871v-.016Zm-2.233-.269a.839.839,0,1,1,.839-.839.845.845,0,0,1-.839.839" transform="translate(-201.313 -115.721)"/>
    <path id="Tracé_5702" data-name="Tracé 5702" d="M249.039,139.1a.839.839,0,1,1-.839.839.839.839,0,0,1,.839-.839" transform="translate(-208.888 -117.068)" fill="#fff"/>
    <path id="Tracé_5703" data-name="Tracé 5703" d="M171.911,108.814h0l1.552-4.736v-1.109a13.26,13.26,0,0,0-2.645-.269c-.3,0-.6.016-.9.032a.349.349,0,0,0-.127.016,12.949,12.949,0,0,0-4.482,1.172,14.465,14.465,0,0,0-3.342,2.138c-.269.238-.539.475-.792.729l-.143.143c-.238.238-.475.491-.7.744-.048.063-.1.111-.143.174-.222.269-.444.539-.649.808-.016.016-.032.048-.048.063-.19.269-.38.539-.57.824-.032.048-.079.111-.111.158-.143.238-.285.475-.412.713h7.032Z" transform="translate(-133.311 -86.433)" fill="#bbbcbd"/>
    <path id="Tracé_5704" data-name="Tracé 5704" d="M258.056,109.638c.016-.19.032-.364.032-.554.016-.253.016-.491.032-.744v-.76c0-.507-.032-1-.047-1.5a11.636,11.636,0,0,0-.032-.032c-.1-.048-.317-.174-.523-.3H257.5a.642.642,0,0,0-.143-.079c-.032-.016-.063-.048-.1-.063l-.016-.016a.345.345,0,0,1-.079-.048c-.317-.174-.649-.317-.982-.459a17.417,17.417,0,0,0-2.487-.776v1.109l1.536,4.72a1.756,1.756,0,0,1,.4.507l.1.19a.8.8,0,0,1,.079.206c.016.063.048.143.063.206a1.067,1.067,0,0,1,.032.222,1.2,1.2,0,0,1,.016.238v.016h1.869a18.126,18.126,0,0,0,.269-2.075h0" transform="translate(-213.517 -87.78)" fill="#e2dddb"/>
    <path id="Tracé_5705" data-name="Tracé 5705" d="M296.7,127.4" transform="translate(-249.706 -107.221)" fill="#fbb040"/>
    <path id="Tracé_5706" data-name="Tracé 5706" d="M261.556,128.018c.428-.428.824-.824,1.2-1.22.222-.238.443-.475.665-.7a14.662,14.662,0,0,0,3.405-5.338,1.656,1.656,0,0,0,.048-.19v-.032c.016-.079.032-.158.047-.253,0-.063.016-.127.016-.19a19.149,19.149,0,0,0-.808-2.613v.016l-.016-.016c-.063-.048-.111-.111-.174-.158-.174-.158-.348-.317-.539-.475a14.471,14.471,0,0,0-1.726-1.251c.032.507.048,1,.048,1.5v.76c0,.253-.016.507-.032.744-.016.19-.016.364-.032.554v.063c-.063.7-.143,1.394-.269,2.075l-.222,1.045a33.374,33.374,0,0,1-2.154,5.29c-.206.459-.4.935-.57,1.41l-.048.143c.238-.253.459-.475.618-.634.206-.206.364-.38.539-.539" transform="translate(-219.155 -97.29)" fill="#fbb040"/>
    <path id="Tracé_5707" data-name="Tracé 5707" d="M243.8,116.388h0a2.465,2.465,0,0,1,.317-.253,1.6,1.6,0,0,1,.364-.19h.016a1.627,1.627,0,0,1,.4-.111h.016a1.949,1.949,0,0,1,.855,0h.016a1.653,1.653,0,0,1,.4.127,2.221,2.221,0,0,1,.7.459l-1.536-4.72Z" transform="translate(-205.185 -94.008)" fill="#909393"/>
    <path id="Tracé_5708" data-name="Tracé 5708" d="M208.755,143.771a3.128,3.128,0,0,1-.127-.412v-.016a1.965,1.965,0,0,1-.048-.428,1.2,1.2,0,0,1,.016-.238.058.058,0,0,1,.016-.048.675.675,0,0,1,.032-.174c0-.016.016-.032.016-.048.016-.063.032-.111.048-.174,0-.016.016-.016.016-.032.016-.063.048-.127.063-.174a.016.016,0,0,1,.016-.016l.1-.19a2.6,2.6,0,0,1,.412-.523l-6.494,1.6H202.8l6.431,1.568a1.949,1.949,0,0,1-.475-.7" transform="translate(-170.679 -118.92)" fill="#676a6a"/>
    <path id="Tracé_5709" data-name="Tracé 5709" d="M302.3,110.065a.686.686,0,0,1,.016-.079,1.339,1.339,0,0,1,.063-.269v-.032l.839-3.881v-2.217a3.461,3.461,0,0,0-2.2-.887,3.8,3.8,0,0,0-2.566,1.2,9.961,9.961,0,0,0-1.79,2.566c-.016.048-.048.079-.063.127l.428.38c.317.285.634.586.935.887l.428.428c.143.158.3.3.443.459.19.206.38.4.554.6.079.079.158.174.238.253.222.253.443.491.665.744l.079.079h1.917v-.048a2.231,2.231,0,0,1,.016-.317" transform="translate(-249.622 -86.433)" fill="#e2dddb"/>
    <path id="Tracé_5710" data-name="Tracé 5710" d="M296.7,127.4h0" transform="translate(-249.706 -107.221)" fill="#e2dddb"/>
    <path id="Tracé_5711" data-name="Tracé 5711" d="M142.6,64.392c0-.016.016-.032.016-.048.127-.317.253-.634.4-.95a1.264,1.264,0,0,1,.127-.253c.111-.253.238-.491.364-.729.048-.1.1-.19.158-.3.032-.048.063-.111.1-.158.143-.238.269-.475.412-.713.032-.048.079-.111.111-.158a9.538,9.538,0,0,1,.57-.824c.016-.016.032-.048.048-.063.206-.285.428-.554.649-.808.048-.063.1-.111.143-.174.222-.253.459-.507.7-.744l.143-.143c.253-.253.507-.491.792-.729a8.6,8.6,0,0,1,8.2-6.193,8.475,8.475,0,0,1,4.435,1.267,8.714,8.714,0,0,1,3.184,3.469.016.016,0,0,0,.016.016.909.909,0,0,0,.063.111,14.472,14.472,0,0,1,1.726,1.251c.19.158.364.317.539.475.063.048.111.111.174.158a.474.474,0,0,1,.063-.127c.539-3.437,2.059-5.924,3.849-5.924,1.346,0,2.55,1.41,3.279,3.58V55.7c.206.222.412.475.618.744a.016.016,0,0,0,.016.016c.016.032.016.063.032.1l-.032-.111A16.682,16.682,0,0,0,141,61.778a16.523,16.523,0,0,0,.824,5.2v-.016c.111-.491.238-.982.38-1.457.127-.38.253-.744.4-1.109" transform="translate(-118.667 -37.957)" fill="#525353"/>
    <path id="Tracé_5712" data-name="Tracé 5712" d="M324.556,151.348l-.586.649a1.391,1.391,0,0,1-.079.238c0,.016-.016.032-.032.063a.74.74,0,0,1-.079.158c-.016.032-.032.048-.048.079-.032.032-.047.079-.079.111a.482.482,0,0,1-.127.127l-.047.048a.331.331,0,0,1-.1.063c-.016,0-.032.016-.048.016a.52.52,0,0,1-.269.063c-.523,0-.95-.729-.95-1.647H320.2c.364.412.713.824,1.045,1.251l.016.016,1,1.235c.016.016.032.048.047.063.317.4.618.792.919,1.188.032.032.063.079.1.111.317.428.634.855.95,1.267v.016a16.423,16.423,0,0,0,.871-5.163Z" transform="translate(-269.484 -127.336)" fill="#fff"/>
    <path id="Tracé_5713" data-name="Tracé 5713" d="M188.556,87.667a.349.349,0,0,0,.127-.016c.3-.016.6-.032.9-.032a13.26,13.26,0,0,1,2.645.269v0a18.76,18.76,0,0,1,2.487.776c.333.143.665.3.982.459a.145.145,0,0,1,.079.048.016.016,0,0,1,.016.016.331.331,0,0,1,.1.063c.048.032.1.048.143.079h.016c.206.111.428.253.523.3a.016.016,0,0,1,.016.016l.016.016a.908.908,0,0,0-.063-.111.016.016,0,0,0-.016-.016A8.515,8.515,0,0,0,180.7,90.993a13.785,13.785,0,0,1,3.342-2.138,13.428,13.428,0,0,1,4.514-1.188" transform="translate(-152.079 -71.369)"/>
    <path id="Tracé_5714" data-name="Tracé 5714" d="M298.974,92.558a3.8,3.8,0,0,1,2.566-1.2,3.428,3.428,0,0,1,2.2.887c.063.048.127.111.19.158.032.032.079.063.111.1.1.1.19.19.285.3V92.78c-.744-2.17-1.932-3.58-3.279-3.58-1.79,0-3.31,2.471-3.849,5.924a9.189,9.189,0,0,1,1.774-2.566" transform="translate(-250.127 -75.072)"/>
    <path id="Tracé_5715" data-name="Tracé 5715" d="M156.168,166.643c.158.063.3.111.459.158a16.708,16.708,0,0,0,11.737-.269c.1-.048.206-.079.3-.127.158-.063.333-.143.491-.222.143-.063.285-.127.428-.206-.032,0-.063.016-.1.016a6.645,6.645,0,0,1-1.774-.016c-3.437-.491-4.2-2.154-4.086-3.865a8.715,8.715,0,0,1-.76-.491,22.222,22.222,0,0,1-4.213-3.96,22.785,22.785,0,0,0,5.084,2.756c.063.032.127.048.19.079.143-.491.317-.966.459-1.378l.048-.143c.174-.475.364-.95.57-1.41a33.992,33.992,0,0,0,2.154-5.29l.222-1.045h-1.869v.016a2.25,2.25,0,0,1-.174.871,2.9,2.9,0,0,1-.206.38,2.177,2.177,0,0,1-.6.6c-.127.079-.253.143-.38.206a2.31,2.31,0,0,1-.871.174,1.2,1.2,0,0,1-.238-.016.058.058,0,0,1-.048-.016.673.673,0,0,1-.174-.032c-.016,0-.032-.016-.048-.016-.063-.016-.111-.032-.174-.048-.016,0-.016,0-.032-.016-.063-.016-.127-.048-.174-.063h-.016l-.19-.1a2.141,2.141,0,0,1-.523-.412l-6.431-1.568h-7.017c-.032.048-.063.111-.1.158-.048.1-.111.19-.158.3-.127.238-.253.491-.364.729-.048.079-.079.174-.127.253-.143.317-.269.634-.4.95,0,.016-.016.032-.016.048-.143.364-.269.744-.38,1.125-.143.475-.269.966-.38,1.457a16.6,16.6,0,0,0,6.066,8.3c.079.063.174.111.253.174a14.253,14.253,0,0,0,1.473.919,13.31,13.31,0,0,0,2.075,1.03" transform="translate(-123.128 -127.252)" fill="#fff"/>
    <path id="Tracé_5716" data-name="Tracé 5716" d="M281.026,206.558a2.916,2.916,0,0,0-.047.523,3.89,3.89,0,0,0,.063.871,5.374,5.374,0,0,0,.111.539,4.744,4.744,0,0,0,.269.713,6.849,6.849,0,0,0,.333.6,1.67,1.67,0,0,0,.111.174c.063.079.111.158.174.238.079.1.158.19.222.269a3.98,3.98,0,0,0,.554.539v.016a.058.058,0,0,0,.016.048c.032,0,.063-.016.095-.016a11.51,11.51,0,0,0,2.233-.554c.38-.143.76-.285,1.125-.443.111-.048.222-.111.333-.158a29.279,29.279,0,0,0,7.017-5.116,20.9,20.9,0,0,1-12.608,1.758" transform="translate(-236.471 -172.362)" fill="#9f2255"/>
    <path id="Tracé_5717" data-name="Tracé 5717" d="M290.6,134.987c-.3-.4-.618-.792-.919-1.188-.016-.016-.032-.048-.048-.063l-1-1.235-.016-.016c-.348-.428-.7-.839-1.045-1.251-.016-.032-.048-.048-.063-.079-.222-.253-.444-.491-.665-.744-.079-.079-.158-.174-.238-.253l-.554-.6c-.143-.158-.3-.3-.443-.459l-.428-.428c-.3-.3-.618-.6-.935-.887l-.428-.38a19.639,19.639,0,0,1,.824,2.645c.048.238.079.459.111.681.428,3.12-.586,5.164-2.17,7.856-.111.19-.238.4-.348.586a6.041,6.041,0,0,0-.729,1.726c-.047.174-.079.348-.111.523a20.914,20.914,0,0,0,12.608-1.758s-.934-1.378-2.36-3.279c-.317-.428-.634-.855-.95-1.267a.883.883,0,0,0-.1-.127" transform="translate(-236.829 -107.221)" fill="#e2066f"/>
    <path id="Tracé_5718" data-name="Tracé 5718" d="M235.118,160.139a5.4,5.4,0,0,1-.554-.539c-.079-.079-.143-.174-.222-.269-.063-.079-.111-.158-.174-.238-.032-.063-.079-.111-.111-.174-.111-.19-.222-.38-.333-.6a7.43,7.43,0,0,1-.269-.713,2.948,2.948,0,0,1-.111-.539,5.124,5.124,0,0,1-.063-.871,2.917,2.917,0,0,1,.048-.523c.032-.174.063-.348.111-.523a6.75,6.75,0,0,1,.729-1.726c.111-.206.238-.4.348-.586,1.584-2.693,2.6-4.72,2.17-7.856-.032-.222-.063-.459-.111-.681a2.377,2.377,0,0,1-.079.412v.032a1.643,1.643,0,0,1-.048.19,14.662,14.662,0,0,1-3.405,5.338c-.206.238-.428.459-.665.7-.38.4-.792.808-1.2,1.22-.174.174-.348.333-.523.507-.158.158-.38.38-.618.634-.143.412-.317.887-.459,1.378-.063-.032-.127-.048-.19-.079a22.055,22.055,0,0,1-5.084-2.756,22.221,22.221,0,0,0,4.213,3.96,6.845,6.845,0,0,0,.76.491c-.111,1.726.649,3.374,4.086,3.865a7.378,7.378,0,0,0,1.774.016c0-.032-.016-.047-.016-.063" transform="translate(-188.773 -121.444)"/>
  </g>
</svg>
