<svg id="Groupe_3330" data-name="Groupe 3330" xmlns="http://www.w3.org/2000/svg" xmlns:xlink="http://www.w3.org/1999/xlink" width="123.427" height="39.946" viewBox="0 0 123.427 39.946">
  <defs>
    <clipPath id="clip-path">
      <rect id="Rectangle_665" data-name="Rectangle 665" width="123.427" height="39.946" fill="none"/>
    </clipPath>
  </defs>
  <path id="Tracé_5719" data-name="Tracé 5719" d="M362.34,44.347h-10L358.6,5.679h10Z" transform="translate(-308.855 -4.978)" fill="#00579f"/>
  <g id="Groupe_3329" data-name="Groupe 3329">
    <g id="Groupe_3328" data-name="Groupe 3328" clip-path="url(#clip-path)">
      <path id="Tracé_5720" data-name="Tracé 5720" d="M514.006,1.646A24.641,24.641,0,0,0,505.038,0c-9.874,0-16.827,5.265-16.87,12.793-.082,5.554,4.978,8.639,8.763,10.49,3.868,1.892,5.183,3.128,5.183,4.814-.039,2.59-3.126,3.785-6,3.785a19.9,19.9,0,0,1-9.381-2.057l-1.317-.618-1.4,8.68a30.432,30.432,0,0,0,11.151,2.058c10.491,0,17.321-5.184,17.4-13.206.04-4.4-2.632-7.775-8.393-10.531-3.5-1.769-5.639-2.962-5.639-4.773.041-1.646,1.811-3.331,5.759-3.331a16.989,16.989,0,0,1,7.448,1.481l.9.411Z" transform="translate(-424.275)" fill="#00579f"/>
      <path id="Tracé_5721" data-name="Tracé 5721" d="M724.826,30.649c.823-2.221,3.992-10.819,3.992-10.819-.042.083.822-2.262,1.315-3.7l.7,3.332s1.893,9.256,2.3,11.189Zm12.342-24.97h-7.734c-2.385,0-4.2.7-5.226,3.208l-14.851,35.46h10.491s1.727-4.773,2.1-5.8h12.837c.287,1.358,1.193,5.8,1.193,5.8h9.258Z" transform="translate(-621.807 -4.978)" fill="#00579f"/>
      <path id="Tracé_5722" data-name="Tracé 5722" d="M109.355,5.679,99.563,32.047,98.493,26.7c-1.81-6.171-7.488-12.875-13.823-16.208l8.969,33.815h10.573L119.928,5.679Z" transform="translate(-74.22 -4.978)" fill="#00579f"/>
      <path id="Tracé_5723" data-name="Tracé 5723" d="M16.251,5.679H.165L0,6.46C12.548,9.669,20.859,17.4,24.274,26.7l-3.5-17.772c-.576-2.47-2.345-3.169-4.525-3.25" transform="translate(0 -4.978)" fill="#faa61a"/>
    </g>
  </g>
</svg>
